<svg width="2459" height="1169" viewBox="0 0 2459 1169" fill="none" xmlns="http://www.w3.org/2000/svg">
<g clip-path="url(#clip0_787_701)">
<rect width="2459" height="1169" transform="matrix(1 0 0 -1 0 1169)" fill="white"/>
<path d="M2158.97 695.034C2230.58 576.651 2459 557 2459 557V1111H1509C1509 1111 1583 946.634 1696.1 895.823C1825.81 837.552 1994.37 991.239 2079.97 895.823C2148.07 819.902 2108.32 778.76 2158.97 695.034Z" fill="#BAC4F5"/>
<path d="M2215.5 766.5C2273.62 688.378 2459 675.41 2459 675.41V1041H1688C1688 1041 1748.06 932.533 1839.85 899.003C1945.11 860.549 2081.92 961.969 2151.38 899.003C2206.66 848.902 2174.4 821.752 2215.5 766.5Z" fill="#848CB8"/>
<path d="M300.032 695.034C228.423 576.651 0 557 0 557V1111H950C950 1111 875.999 946.634 762.9 895.823C633.194 837.552 464.626 991.239 379.033 895.823C310.929 819.902 350.678 778.76 300.032 695.034Z" fill="#BAC4F5"/>
<path d="M243.5 766.09C185.383 687.968 0 675 0 675V1040.59H771C771 1040.59 710.943 932.123 619.153 898.593C513.887 860.139 377.081 961.559 307.616 898.593C252.343 848.492 284.603 821.342 243.5 766.09Z" fill="#848CB8"/>
<path d="M2221.17 888.228C2262.63 848.1 2459 853.211 2459 853.211V1041H1909C1909 1041 1951.84 985.285 2017.32 968.062C2092.41 948.309 2190.01 1000.4 2239.56 968.062C2278.99 942.327 2191.85 916.609 2221.17 888.228Z" fill="#515878"/>
<path d="M237.827 888.228C196.369 848.1 0 853.211 0 853.211V1041H550C550 1041 507.158 985.285 441.679 968.062C366.586 948.309 268.994 1000.4 219.44 968.062C180.012 942.327 267.148 916.609 237.827 888.228Z" fill="#515878"/>
<rect y="1015" width="2459" height="154" fill="#515878"/>
<path d="M2221.17 280.772C2262.63 320.9 2459 315.789 2459 315.789V128H1909C1909 128 1951.84 183.715 2017.32 200.938C2092.41 220.691 2190.01 168.595 2239.56 200.938C2278.99 226.673 2191.85 252.391 2221.17 280.772Z" fill="white"/>
<path d="M237.827 280.772C196.369 320.9 0 315.789 0 315.789V128H550C550 128 507.158 183.715 441.679 200.938C366.586 220.691 268.994 168.595 219.44 200.938C180.012 226.673 267.148 252.391 237.827 280.772Z" fill="white"/>
<rect width="2459" height="154" transform="matrix(1 0 0 -1 0 154)" fill="white"/>
</g>
<defs>
<clipPath id="clip0_787_701">
<rect width="2459" height="1169" fill="white" transform="matrix(1 0 0 -1 0 1169)"/>
</clipPath>
</defs>
</svg>
