<svg width="2459" height="1169" viewBox="0 0 2459 1169" fill="none" xmlns="http://www.w3.org/2000/svg">
<g clip-path="url(#clip0_928_170)">
<rect width="2459" height="1169" transform="matrix(1 0 0 -1 0 1169)" fill="white"/>
<path d="M2158.97 726.034C2230.58 607.651 2459 588 2459 588V1142H1509C1509 1142 1583 977.634 1696.1 926.823C1825.81 868.552 1994.37 1022.24 2079.97 926.823C2148.07 850.902 2108.32 809.76 2158.97 726.034Z" fill="#BAC4F5"/>
<path d="M2215.5 797.5C2273.62 719.378 2459 706.41 2459 706.41V1072H1688C1688 1072 1748.06 963.533 1839.85 930.003C1945.11 891.549 2081.92 992.969 2151.38 930.003C2206.66 879.902 2174.4 852.752 2215.5 797.5Z" fill="#848CB8"/>
<path d="M300.032 726.034C228.423 607.651 0 588 0 588V1142H950C950 1142 875.999 977.634 762.9 926.823C633.194 868.552 464.626 1022.24 379.033 926.823C310.929 850.902 350.678 809.76 300.032 726.034Z" fill="#BAC4F5"/>
<path d="M243.5 797.09C185.383 718.968 0 706 0 706V1071.59H771C771 1071.59 710.943 963.123 619.153 929.593C513.887 891.139 377.081 992.559 307.616 929.593C252.343 879.492 284.603 852.342 243.5 797.09Z" fill="#848CB8"/>
<path d="M2221.17 919.228C2262.63 879.1 2459 884.211 2459 884.211V1072H1909C1909 1072 1951.84 1016.28 2017.32 999.062C2092.41 979.309 2190.01 1031.4 2239.56 999.062C2278.99 973.327 2191.85 947.609 2221.17 919.228Z" fill="#515878"/>
<path d="M237.827 919.228C196.369 879.1 0 884.211 0 884.211V1072H550C550 1072 507.158 1016.28 441.679 999.062C366.586 979.309 268.994 1031.4 219.44 999.062C180.012 973.327 267.148 947.609 237.827 919.228Z" fill="#515878"/>
<rect y="1069" width="2459" height="154" fill="#515878"/>
<path d="M2221.17 280.772C2262.63 320.9 2459 315.789 2459 315.789V128H1909C1909 128 1951.84 183.715 2017.32 200.938C2092.41 220.691 2190.01 168.595 2239.56 200.938C2278.99 226.673 2191.85 252.391 2221.17 280.772Z" fill="white"/>
<path d="M237.827 280.772C196.369 320.9 0 315.789 0 315.789V128H550C550 128 507.158 183.715 441.679 200.938C366.586 220.691 268.994 168.595 219.44 200.938C180.012 226.673 267.148 252.391 237.827 280.772Z" fill="white"/>
<rect width="2459" height="154" transform="matrix(1 0 0 -1 0 154)" fill="white"/>
</g>
<defs>
<clipPath id="clip0_928_170">
<rect width="2459" height="1169" fill="white" transform="matrix(1 0 0 -1 0 1169)"/>
</clipPath>
</defs>
</svg>
