<svg width="2459" height="1169" viewBox="0 0 2459 1169" fill="none" xmlns="http://www.w3.org/2000/svg">
<g opacity="0.8" clip-path="url(#clip0_785_663)">
<rect width="2459" height="1169" fill="#989ACD"/>
<path d="M2215.5 832.5C2273.62 754.378 2459 741.41 2459 741.41V1107H1688C1688 1107 1748.06 998.533 1839.85 965.003C1945.11 926.549 2081.92 1027.97 2151.38 965.003C2206.66 914.902 2174.4 887.752 2215.5 832.5Z" fill="#848CB8"/>
<path d="M243.5 832.09C185.383 753.968 0 741 0 741V1106.59H771C771 1106.59 710.943 998.123 619.153 964.593C513.887 926.139 377.081 1027.56 307.616 964.593C252.343 914.492 284.603 887.342 243.5 832.09Z" fill="#848CB8"/>
<path d="M2221.17 954.228C2262.63 914.1 2459 919.211 2459 919.211V1107H1909C1909 1107 1951.84 1051.28 2017.32 1034.06C2092.41 1014.31 2190.01 1066.4 2239.56 1034.06C2278.99 1008.33 2191.85 982.609 2221.17 954.228Z" fill="#9AA5D9"/>
<path d="M237.827 954.228C196.369 914.1 0 919.211 0 919.211V1107H550C550 1107 507.158 1051.28 441.679 1034.06C366.586 1014.31 268.994 1066.4 219.44 1034.06C180.012 1008.33 267.148 982.609 237.827 954.228Z" fill="#9AA5D9"/>
<rect y="1081" width="2459" height="88" fill="#9AA5D9"/>
<path d="M2215.5 335.5C2273.62 413.622 2459 426.59 2459 426.59V61H1688C1688 61 1748.06 169.467 1839.85 202.997C1945.11 241.451 2081.92 140.031 2151.38 202.997C2206.66 253.098 2174.4 280.248 2215.5 335.5Z" fill="#848CB8"/>
<path d="M243.5 335.91C185.383 414.032 0 427 0 427V61.41H771C771 61.41 710.943 169.877 619.153 203.407C513.887 241.861 377.081 140.441 307.616 203.407C252.343 253.508 284.603 280.658 243.5 335.91Z" fill="#848CB8"/>
<path d="M2221.17 213.772C2262.63 253.9 2459 248.789 2459 248.789V61H1909C1909 61 1951.84 116.715 2017.32 133.938C2092.41 153.691 2190.01 101.595 2239.56 133.938C2278.99 159.673 2191.85 185.391 2221.17 213.772Z" fill="#9AA5D9"/>
<path d="M237.827 213.772C196.369 253.9 0 248.789 0 248.789V61H550C550 61 507.158 116.715 441.679 133.938C366.586 153.691 268.994 101.595 219.44 133.938C180.012 159.673 267.148 185.391 237.827 213.772Z" fill="#9AA5D9"/>
<rect width="2459" height="88" transform="matrix(1 0 0 -1 0 87)" fill="#9AA5D9"/>
</g>
<defs>
<clipPath id="clip0_785_663">
<rect width="2459" height="1169" fill="white"/>
</clipPath>
</defs>
</svg>
