<svg width="1900" height="855" viewBox="0 0 1900 855" fill="none" xmlns="http://www.w3.org/2000/svg">
<g clip-path="url(#clip0_787_716)">
<rect width="1900" height="855" transform="matrix(1 0 0 -1 0 855)" fill="white"/>
<path d="M1599.97 347.034C1671.58 228.651 1900 209 1900 209V763H950C950 763 1024 598.634 1137.1 547.823C1266.81 489.552 1435.37 643.239 1520.97 547.823C1589.07 471.902 1549.32 430.76 1599.97 347.034Z" fill="#BAC4F5"/>
<path d="M1656.5 418.5C1714.62 340.378 1900 327.41 1900 327.41V693H1129C1129 693 1189.06 584.533 1280.85 551.003C1386.11 512.549 1522.92 613.969 1592.38 551.003C1647.66 500.902 1615.4 473.752 1656.5 418.5Z" fill="#848CB8"/>
<path d="M300.032 347.034C228.423 228.651 0 209 0 209V763H950C950 763 875.999 598.634 762.9 547.823C633.194 489.552 464.626 643.239 379.033 547.823C310.929 471.902 350.678 430.76 300.032 347.034Z" fill="#BAC4F5"/>
<path d="M243.5 418.09C185.383 339.968 0 327 0 327V692.59H771C771 692.59 710.943 584.123 619.153 550.593C513.887 512.139 377.081 613.559 307.616 550.593C252.343 500.492 284.603 473.342 243.5 418.09Z" fill="#848CB8"/>
<path d="M1662.17 540.228C1703.63 500.1 1900 505.211 1900 505.211V693H1350C1350 693 1392.84 637.285 1458.32 620.062C1533.41 600.309 1631.01 652.405 1680.56 620.062C1719.99 594.327 1632.85 568.609 1662.17 540.228Z" fill="#515878"/>
<path d="M237.827 540.228C196.369 500.1 0 505.211 0 505.211V693H550C550 693 507.158 637.285 441.679 620.062C366.586 600.309 268.994 652.405 219.44 620.062C180.012 594.327 267.148 568.609 237.827 540.228Z" fill="#515878"/>
<path d="M1599.97 408.966C1671.58 527.349 1900 547 1900 547V-7H950C950 -7 1024 157.366 1137.1 208.177C1266.81 266.448 1435.37 112.761 1520.97 208.177C1589.07 284.098 1549.32 325.24 1599.97 408.966Z" fill="#BAC4F5"/>
<path d="M1656.5 337.5C1714.62 415.622 1900 428.59 1900 428.59V62.9999H1129C1129 62.9999 1189.06 171.467 1280.85 204.997C1386.11 243.451 1522.92 142.031 1592.38 204.997C1647.66 255.098 1615.4 282.248 1656.5 337.5Z" fill="#848CB8"/>
<path d="M300.032 408.966C228.423 527.349 0 547 0 547V-7H950C950 -7 875.999 157.366 762.9 208.177C633.194 266.448 464.626 112.761 379.033 208.177C310.929 284.098 350.678 325.24 300.032 408.966Z" fill="#BAC4F5"/>
<path d="M243.5 337.91C185.383 416.032 0 429 0 429V63.41H771C771 63.41 710.943 171.877 619.153 205.407C513.887 243.861 377.081 142.441 307.616 205.407C252.343 255.508 284.603 282.658 243.5 337.91Z" fill="#848CB8"/>
<path d="M1662.17 215.772C1703.63 255.9 1900 250.789 1900 250.789V-2.5H940.5C940.5 -2.5 992.159 17.9694 1067.5 43.2624C1176.45 79.8394 1334.93 126.504 1458.32 135.938C1544.86 142.555 1631.01 103.595 1680.56 135.938C1719.99 161.673 1632.85 187.391 1662.17 215.772Z" fill="#515878"/>
<path d="M218.827 218.272C177.369 258.4 -19 253.289 -19 253.289V0H940.5C940.5 0 631.393 122.48 422.679 138.438C336.142 145.055 249.994 106.095 200.44 138.438C161.012 164.173 248.148 189.891 218.827 218.272Z" fill="#515878"/>
<rect width="1900" height="80" transform="matrix(1 0 0 -1 0 80)" fill="#515878"/>
</g>
<defs>
<clipPath id="clip0_787_716">
<rect width="1900" height="855" fill="white" transform="matrix(1 0 0 -1 0 855)"/>
</clipPath>
</defs>
</svg>
