<svg width="2459" height="1169" viewBox="0 0 2459 1169" fill="none" xmlns="http://www.w3.org/2000/svg">
<g clip-path="url(#clip0_783_352)">
<rect width="2459" height="1169" fill="white"/>
<path d="M311.5 909C183.63 856.542 0 741 0 741V1107H888.5C888.5 1107 785.838 1048.32 712 1018C562.055 956.43 461.465 970.523 311.5 909Z" fill="#BAC4F5"/>
<path d="M228.5 899.5C144.775 858.731 0 831.312 0 831.312V1109H896C896 1109 825.671 1080.97 719 1055.5C596.667 1026.29 494.727 1076.33 414 1028.5C349.767 990.445 307.832 938.129 228.5 899.5Z" fill="#848CB8"/>
<path d="M157 961C106.169 923.029 -6.10352e-05 919.211 -6.10352e-05 919.211V1107H771.5C771.5 1107 584.482 1086.12 465 1070C368.952 1057.04 295.479 1094.16 219.44 1034.06C189.994 1010.79 187.069 983.462 157 961Z" fill="#515878"/>
<path d="M2147.5 909C2275.37 856.542 2459 741 2459 741V1107H1570.5C1570.5 1107 1673.16 1048.32 1747 1018C1896.95 956.43 1997.54 970.523 2147.5 909Z" fill="#BAC4F5"/>
<path d="M2230.5 899.5C2314.23 858.731 2459 831.312 2459 831.312V1109H1563C1563 1109 1633.33 1080.97 1740 1055.5C1862.33 1026.29 1964.27 1076.33 2045 1028.5C2109.23 990.445 2151.17 938.129 2230.5 899.5Z" fill="#848CB8"/>
<path d="M2302 961C2352.83 923.029 2459 919.211 2459 919.211V1107H1687.5C1687.5 1107 1874.52 1086.12 1994 1070C2090.05 1057.04 2163.52 1094.16 2239.56 1034.06C2269.01 1010.79 2271.93 983.462 2302 961Z" fill="#515878"/>
<rect y="1107" width="2459" height="88" fill="#9AA5D9"/>
</g>
<defs>
<clipPath id="clip0_783_352">
<rect width="2459" height="1169" fill="white"/>
</clipPath>
</defs>
</svg>
