<svg width="2459" height="1169" viewBox="0 0 2459 1169" fill="none" xmlns="http://www.w3.org/2000/svg">
<g clip-path="url(#clip0_970_64)">
<rect width="2459" height="1169" fill="white"/>
<rect y="1107" width="2459" height="88" fill="#9AA5D9"/>
<mask id="mask0_970_64" style="mask-type:luminance" maskUnits="userSpaceOnUse" x="-17" y="577" width="712" height="532">
<path d="M694.781 1108.8H-17.0003V577H694.781V1108.8Z" fill="white"/>
</mask>
<g mask="url(#mask0_970_64)">
<path d="M694.777 1107.34C694.777 1107.34 658.129 906.963 452.571 977.293C171.805 1073.36 384.719 758.192 95.8408 776.199C-16.9959 783.237 60.1071 587.501 -16.9959 577.039V1107.34H694.777Z" fill="#BAC4F5"/>
</g>
<g clip-path="url(#clip1_970_64)">
<mask id="mask1_970_64" style="mask-type:luminance" maskUnits="userSpaceOnUse" x="-14" y="970" width="105" height="140">
<path d="M90.8398 1109.69H-13.7942V970.041H90.8398V1109.69Z" fill="white"/>
</mask>
<g mask="url(#mask1_970_64)">
<path d="M56.5653 1109.46C56.5653 1109.46 87.7624 1017.2 -13.7955 998.708V971.313C-13.7955 971.313 121.354 977.236 82.9164 1109.46H56.5653Z" fill="white"/>
</g>
<path d="M143.001 909.482C143.001 908.859 143.057 908.246 143.169 907.633C143.28 907.025 143.448 906.428 143.665 905.856C143.883 905.279 144.157 904.733 144.475 904.213C144.793 903.698 145.156 903.219 145.564 902.776C145.966 902.338 146.412 901.947 146.887 901.597C147.367 901.252 147.869 900.958 148.4 900.721C148.93 900.484 149.477 900.304 150.041 900.18C150.605 900.062 151.174 900 151.744 900C152.319 900 152.888 900.062 153.452 900.18C154.016 900.304 154.563 900.484 155.094 900.721C155.624 900.958 156.126 901.252 156.607 901.597C157.081 901.947 157.522 902.338 157.93 902.776C158.337 903.219 158.7 903.698 159.018 904.213C159.337 904.733 159.605 905.279 159.828 905.856C160.046 906.428 160.213 907.025 160.325 907.633C160.436 908.246 160.492 908.859 160.492 909.482C160.492 910.105 160.436 910.723 160.325 911.336C160.213 911.944 160.046 912.536 159.828 913.113C159.605 913.69 159.337 914.236 159.018 914.751C158.7 915.271 158.337 915.75 157.93 916.188C157.522 916.631 157.081 917.022 156.607 917.367C156.126 917.713 155.624 918.006 155.094 918.243C154.563 918.485 154.016 918.665 153.452 918.784C152.888 918.907 152.319 918.969 151.744 918.969C151.174 918.969 150.605 918.907 150.041 918.784C149.477 918.665 148.93 918.485 148.4 918.243C147.869 918.006 147.367 917.713 146.887 917.367C146.412 917.022 145.966 916.631 145.564 916.188C145.156 915.75 144.793 915.271 144.475 914.751C144.157 914.236 143.883 913.69 143.665 913.113C143.448 912.536 143.28 911.944 143.169 911.336C143.057 910.723 143.001 910.105 143.001 909.482Z" fill="#484D68"/>
<path d="M108.868 1108.14C108.868 1108.14 139.758 969.858 -14.1896 948.386V870.063C-14.1896 870.063 223.596 896.716 173.769 1108.14H108.868Z" fill="#393D54" fill-opacity="0.8"/>
<path d="M160.001 938.482C160.001 937.859 160.057 937.246 160.169 936.633C160.28 936.02 160.448 935.428 160.665 934.856C160.889 934.279 161.157 933.733 161.475 933.213C161.793 932.698 162.156 932.219 162.564 931.776C162.971 931.338 163.412 930.942 163.887 930.597C164.367 930.251 164.869 929.958 165.4 929.721C165.93 929.484 166.477 929.304 167.041 929.18C167.605 929.062 168.174 929 168.749 929C169.324 929 169.894 929.062 170.452 929.18C171.016 929.304 171.563 929.484 172.094 929.721C172.624 929.958 173.132 930.251 173.607 930.597C174.087 930.942 174.528 931.338 174.935 931.776C175.337 932.219 175.7 932.698 176.018 933.213C176.342 933.733 176.61 934.279 176.828 934.856C177.051 935.428 177.213 936.02 177.325 936.633C177.436 937.246 177.492 937.859 177.492 938.482C177.492 939.105 177.436 939.723 177.325 940.331C177.213 940.944 177.051 941.536 176.828 942.113C176.61 942.69 176.342 943.236 176.018 943.751C175.7 944.271 175.337 944.75 174.935 945.188C174.528 945.631 174.087 946.022 173.607 946.367C173.132 946.712 172.624 947.006 172.094 947.243C171.563 947.485 171.016 947.66 170.452 947.784C169.894 947.907 169.324 947.964 168.749 947.964C168.174 947.964 167.605 947.907 167.041 947.784C166.477 947.66 165.93 947.485 165.4 947.243C164.869 947.006 164.367 946.712 163.887 946.367C163.412 946.022 162.971 945.631 162.564 945.188C162.156 944.75 161.793 944.271 161.475 943.751C161.157 943.236 160.889 942.69 160.665 942.113C160.448 941.536 160.28 940.944 160.169 940.331C160.057 939.723 160.001 939.105 160.001 938.482Z" fill="#484D68"/>
<path d="M267.001 1041.48C267.001 1040.86 267.057 1040.25 267.169 1039.63C267.28 1039.02 267.448 1038.43 267.665 1037.86C267.889 1037.28 268.157 1036.73 268.475 1036.21C268.793 1035.7 269.156 1035.22 269.564 1034.78C269.971 1034.34 270.412 1033.94 270.887 1033.6C271.367 1033.25 271.869 1032.96 272.4 1032.72C272.93 1032.48 273.477 1032.3 274.041 1032.18C274.605 1032.06 275.174 1032 275.749 1032C276.324 1032 276.894 1032.06 277.452 1032.18C278.016 1032.3 278.563 1032.48 279.094 1032.72C279.624 1032.96 280.132 1033.25 280.607 1033.6C281.087 1033.94 281.528 1034.34 281.935 1034.78C282.337 1035.22 282.7 1035.7 283.018 1036.21C283.342 1036.73 283.61 1037.28 283.828 1037.86C284.051 1038.43 284.213 1039.02 284.325 1039.63C284.436 1040.25 284.492 1040.86 284.492 1041.48C284.492 1042.11 284.436 1042.72 284.325 1043.33C284.213 1043.94 284.051 1044.54 283.828 1045.11C283.61 1045.69 283.342 1046.24 283.018 1046.75C282.7 1047.27 282.337 1047.75 281.935 1048.19C281.528 1048.63 281.087 1049.02 280.607 1049.37C280.132 1049.71 279.624 1050.01 279.094 1050.24C278.563 1050.48 278.016 1050.66 277.452 1050.78C276.894 1050.91 276.324 1050.96 275.749 1050.96C275.174 1050.96 274.605 1050.91 274.041 1050.78C273.477 1050.66 272.93 1050.48 272.4 1050.24C271.869 1050.01 271.367 1049.71 270.887 1049.37C270.412 1049.02 269.971 1048.63 269.564 1048.19C269.156 1047.75 268.793 1047.27 268.475 1046.75C268.157 1046.24 267.889 1045.69 267.665 1045.11C267.448 1044.54 267.28 1043.94 267.169 1043.33C267.057 1042.72 267.001 1042.11 267.001 1041.48Z" fill="white"/>
<path d="M301.001 1062.48C301.001 1061.86 301.057 1061.25 301.169 1060.63C301.28 1060.02 301.448 1059.43 301.665 1058.86C301.889 1058.28 302.157 1057.73 302.475 1057.21C302.793 1056.7 303.156 1056.22 303.564 1055.78C303.971 1055.34 304.412 1054.94 304.887 1054.6C305.367 1054.25 305.869 1053.96 306.4 1053.72C306.93 1053.48 307.477 1053.3 308.041 1053.18C308.605 1053.06 309.174 1053 309.749 1053C310.324 1053 310.894 1053.06 311.452 1053.18C312.016 1053.3 312.563 1053.48 313.094 1053.72C313.624 1053.96 314.132 1054.25 314.607 1054.6C315.087 1054.94 315.528 1055.34 315.935 1055.78C316.337 1056.22 316.7 1056.7 317.018 1057.21C317.342 1057.73 317.61 1058.28 317.828 1058.86C318.051 1059.43 318.213 1060.02 318.325 1060.63C318.436 1061.25 318.492 1061.86 318.492 1062.48C318.492 1063.11 318.436 1063.72 318.325 1064.33C318.213 1064.94 318.051 1065.54 317.828 1066.11C317.61 1066.69 317.342 1067.24 317.018 1067.75C316.7 1068.27 316.337 1068.75 315.935 1069.19C315.528 1069.63 315.087 1070.02 314.607 1070.37C314.132 1070.71 313.624 1071.01 313.094 1071.24C312.563 1071.48 312.016 1071.66 311.452 1071.78C310.894 1071.91 310.324 1071.96 309.749 1071.96C309.174 1071.96 308.605 1071.91 308.041 1071.78C307.477 1071.66 306.93 1071.48 306.4 1071.24C305.869 1071.01 305.367 1070.71 304.887 1070.37C304.412 1070.02 303.971 1069.63 303.564 1069.19C303.156 1068.75 302.793 1068.27 302.475 1067.75C302.157 1067.24 301.889 1066.69 301.665 1066.11C301.448 1065.54 301.28 1064.94 301.169 1064.33C301.057 1063.72 301.001 1063.11 301.001 1062.48Z" fill="white"/>
<path d="M344.001 1074.48C344.001 1073.86 344.057 1073.25 344.169 1072.63C344.28 1072.02 344.448 1071.43 344.665 1070.86C344.889 1070.28 345.157 1069.73 345.475 1069.21C345.793 1068.7 346.156 1068.22 346.564 1067.78C346.971 1067.34 347.412 1066.94 347.887 1066.6C348.367 1066.25 348.869 1065.96 349.4 1065.72C349.93 1065.48 350.477 1065.3 351.041 1065.18C351.605 1065.06 352.174 1065 352.749 1065C353.324 1065 353.894 1065.06 354.452 1065.18C355.016 1065.3 355.563 1065.48 356.094 1065.72C356.624 1065.96 357.132 1066.25 357.607 1066.6C358.087 1066.94 358.528 1067.34 358.935 1067.78C359.337 1068.22 359.7 1068.7 360.018 1069.21C360.342 1069.73 360.61 1070.28 360.828 1070.86C361.051 1071.43 361.213 1072.02 361.325 1072.63C361.436 1073.25 361.492 1073.86 361.492 1074.48C361.492 1075.11 361.436 1075.72 361.325 1076.33C361.213 1076.94 361.051 1077.54 360.828 1078.11C360.61 1078.69 360.342 1079.24 360.018 1079.75C359.7 1080.27 359.337 1080.75 358.935 1081.19C358.528 1081.63 358.087 1082.02 357.607 1082.37C357.132 1082.71 356.624 1083.01 356.094 1083.24C355.563 1083.49 355.016 1083.66 354.452 1083.78C353.894 1083.91 353.324 1083.96 352.749 1083.96C352.174 1083.96 351.605 1083.91 351.041 1083.78C350.477 1083.66 349.93 1083.49 349.4 1083.24C348.869 1083.01 348.367 1082.71 347.887 1082.37C347.412 1082.02 346.971 1081.63 346.564 1081.19C346.156 1080.75 345.793 1080.27 345.475 1079.75C345.157 1079.24 344.889 1078.69 344.665 1078.11C344.448 1077.54 344.28 1076.94 344.169 1076.33C344.057 1075.72 344.001 1075.11 344.001 1074.48Z" fill="white"/>
<path d="M387.001 1062.48C387.001 1061.86 387.057 1061.25 387.169 1060.63C387.28 1060.02 387.448 1059.43 387.665 1058.86C387.889 1058.28 388.157 1057.73 388.475 1057.21C388.793 1056.7 389.156 1056.22 389.564 1055.78C389.971 1055.34 390.412 1054.94 390.887 1054.6C391.367 1054.25 391.869 1053.96 392.4 1053.72C392.93 1053.48 393.477 1053.3 394.041 1053.18C394.605 1053.06 395.174 1053 395.749 1053C396.324 1053 396.894 1053.06 397.452 1053.18C398.016 1053.3 398.563 1053.48 399.094 1053.72C399.624 1053.96 400.132 1054.25 400.607 1054.6C401.087 1054.94 401.528 1055.34 401.935 1055.78C402.337 1056.22 402.7 1056.7 403.018 1057.21C403.342 1057.73 403.61 1058.28 403.828 1058.86C404.051 1059.43 404.213 1060.02 404.325 1060.63C404.436 1061.25 404.492 1061.86 404.492 1062.48C404.492 1063.11 404.436 1063.72 404.325 1064.33C404.213 1064.94 404.051 1065.54 403.828 1066.11C403.61 1066.69 403.342 1067.24 403.018 1067.75C402.7 1068.27 402.337 1068.75 401.935 1069.19C401.528 1069.63 401.087 1070.02 400.607 1070.37C400.132 1070.71 399.624 1071.01 399.094 1071.24C398.563 1071.48 398.016 1071.66 397.452 1071.78C396.894 1071.91 396.324 1071.96 395.749 1071.96C395.174 1071.96 394.605 1071.91 394.041 1071.78C393.477 1071.66 392.93 1071.48 392.4 1071.24C391.869 1071.01 391.367 1070.71 390.887 1070.37C390.412 1070.02 389.971 1069.63 389.564 1069.19C389.156 1068.75 388.793 1068.27 388.475 1067.75C388.157 1067.24 387.889 1066.69 387.665 1066.11C387.448 1065.54 387.28 1064.94 387.169 1064.33C387.057 1063.72 387.001 1063.11 387.001 1062.48Z" fill="white"/>
<path d="M113.001 882.482C113.001 881.864 113.057 881.246 113.169 880.633C113.28 880.025 113.448 879.433 113.671 878.856C113.889 878.279 114.157 877.733 114.475 877.213C114.793 876.698 115.156 876.219 115.564 875.776C115.971 875.338 116.412 874.947 116.892 874.597C117.367 874.252 117.869 873.963 118.4 873.721C118.93 873.484 119.477 873.304 120.041 873.185C120.605 873.062 121.174 873 121.749 873C122.324 873 122.894 873.062 123.452 873.185C124.016 873.304 124.563 873.484 125.094 873.721C125.624 873.963 126.132 874.252 126.607 874.597C127.087 874.947 127.528 875.338 127.935 875.776C128.337 876.219 128.7 876.698 129.018 877.213C129.342 877.733 129.61 878.279 129.828 878.856C130.051 879.433 130.213 880.025 130.325 880.633C130.436 881.246 130.492 881.864 130.492 882.482C130.492 883.105 130.436 883.723 130.325 884.336C130.213 884.944 130.051 885.536 129.828 886.113C129.61 886.69 129.342 887.236 129.018 887.751C128.7 888.271 128.337 888.75 127.935 889.188C127.528 889.631 127.087 890.022 126.607 890.367C126.132 890.718 125.624 891.006 125.094 891.248C124.563 891.485 124.016 891.665 123.452 891.784C122.894 891.907 122.324 891.969 121.749 891.969C121.174 891.969 120.605 891.907 120.041 891.784C119.477 891.665 118.93 891.485 118.4 891.248C117.869 891.006 117.367 890.718 116.892 890.367C116.412 890.022 115.971 889.631 115.564 889.188C115.156 888.75 114.793 888.271 114.475 887.751C114.157 887.236 113.889 886.69 113.671 886.113C113.448 885.536 113.28 884.944 113.169 884.336C113.057 883.723 113.001 883.105 113.001 882.482Z" fill="#484D68"/>
<mask id="mask2_970_64" style="mask-type:luminance" maskUnits="userSpaceOnUse" x="-14" y="946" width="259" height="159">
<path d="M244.688 1104.1H-14.0002V946H244.688V1104.1Z" fill="white"/>
</mask>
<g mask="url(#mask2_970_64)">
<path d="M242.677 946.155C242.9 946.155 243.129 946.216 243.347 946.34C244.045 946.742 244.307 947.679 243.939 948.436C243.632 949.065 236.19 964.104 217.409 982.913C206.411 993.935 193.788 1003.95 179.898 1012.67C162.552 1023.56 143.163 1032.47 122.266 1039.13C12.3002 1074.21 -6.49734 1093.1 -9.47301 1099.59C-10.0536 1100.86 -9.9308 1101.49 -9.90289 1101.59C-9.55675 1102.3 -9.75774 1103.19 -10.3942 1103.63C-11.0585 1104.09 -11.9462 1103.89 -12.3705 1103.17C-12.5212 1102.91 -13.2303 1101.53 -12.404 1099.12C-9.48976 1090.62 11.7754 1071.14 121.456 1036.15C168.185 1021.24 198.31 997.798 215.355 980.75C233.817 962.281 241.337 947.133 241.41 946.984C241.667 946.458 242.163 946.155 242.677 946.155Z" fill="#1D3020"/>
</g>
<path d="M26.7339 1020.08C26.7339 1020.08 28.2189 1034.89 19.1468 1051.13C10.5101 1066.59 3.498 1074.83 3.498 1074.83C3.498 1074.83 11.5206 1037.64 26.7339 1020.08Z" fill="#393D54"/>
<path d="M61.394 1003.27C61.394 1003.27 62.8791 1018.08 53.8069 1034.32C45.1758 1049.78 38.1637 1058.01 38.1637 1058.01C38.1637 1058.01 46.1863 1020.83 61.394 1003.27Z" fill="#393D54"/>
<path d="M283.961 976.658C283.961 976.658 273.956 986.872 256.538 988.819C239.962 990.668 229.673 989.57 229.673 989.57C229.673 989.57 261.87 974.088 283.961 976.658Z" fill="#393D54"/>
<path d="M94.1879 992.073C94.1879 992.073 95.6673 1006.89 86.5952 1023.13C77.9641 1038.58 70.952 1046.82 70.952 1046.82C70.952 1046.82 78.9745 1009.63 94.1879 992.073Z" fill="#393D54"/>
<path d="M138.489 975.901C138.489 975.901 139.968 990.714 130.896 1006.95C122.265 1022.41 115.253 1030.65 115.253 1030.65C115.253 1030.65 123.275 993.454 138.489 975.901Z" fill="#393D54"/>
<path d="M172.464 962.113C172.464 962.113 173.949 976.926 164.877 993.165C156.241 1008.62 149.228 1016.86 149.228 1016.86C149.228 1016.86 157.257 979.671 172.464 962.113Z" fill="#393D54"/>
<path d="M206.656 943.901C206.656 943.901 208.141 958.714 199.069 974.953C190.432 990.41 183.42 998.646 183.42 998.646C183.42 998.646 191.442 961.454 206.656 943.901Z" fill="#393D54"/>
<path d="M237.58 895.116C237.58 895.116 242.119 909.177 236.681 927.224C231.506 944.406 226.398 954.15 226.398 954.15C226.398 954.15 226.437 915.96 237.58 895.116Z" fill="#393D54"/>
<path d="M252.672 1013.84C252.672 1013.84 241.584 1022.65 224.082 1022.25C207.423 1021.88 197.335 1019.42 197.335 1019.42C197.335 1019.42 231.044 1008.35 252.672 1013.84Z" fill="#393D54"/>
<path d="M278.766 908.826C278.766 908.826 275.84 919.833 265.021 928.522C254.72 936.793 247.518 940.435 247.518 940.435C247.518 940.435 263.223 916.511 278.766 908.826Z" fill="#393D54"/>
<path d="M306.449 950.823C306.449 950.823 295.323 959.558 277.82 959.069C261.155 958.6 251.084 956.077 251.084 956.077C251.084 956.077 284.844 945.199 306.449 950.823Z" fill="#393D54"/>
<path d="M213.422 1040.62C213.422 1040.62 201.335 1047.7 184.045 1044.72C167.581 1041.89 157.906 1037.96 157.906 1037.96C157.906 1037.96 192.687 1031.97 213.422 1040.62Z" fill="#393D54"/>
<path d="M176.566 1062.29C176.566 1062.29 163.703 1067.53 146.944 1062.04C130.988 1056.81 121.888 1051.49 121.888 1051.49C121.888 1051.49 157.099 1050.68 176.566 1062.29Z" fill="#393D54"/>
<path d="M135.055 1076.19C135.055 1076.19 122.192 1081.43 105.432 1075.94C89.4762 1070.72 80.3817 1065.4 80.3817 1065.4C80.3817 1065.4 115.593 1064.58 135.055 1076.19Z" fill="#393D54"/>
<path d="M91.2305 1094.17C91.2305 1094.17 78.3675 1099.41 61.6078 1093.92C45.652 1088.69 36.5575 1083.38 36.5575 1083.38C36.5575 1083.38 71.763 1082.56 91.2305 1094.17Z" fill="#393D54"/>
<path d="M416.001 1043.48C416.001 1042.86 416.057 1042.25 416.169 1041.63C416.28 1041.02 416.448 1040.43 416.665 1039.86C416.889 1039.28 417.157 1038.73 417.475 1038.21C417.793 1037.7 418.156 1037.22 418.564 1036.78C418.971 1036.34 419.412 1035.94 419.887 1035.6C420.367 1035.25 420.869 1034.96 421.4 1034.72C421.93 1034.48 422.477 1034.3 423.041 1034.18C423.605 1034.06 424.174 1034 424.749 1034C425.324 1034 425.894 1034.06 426.452 1034.18C427.016 1034.3 427.563 1034.48 428.094 1034.72C428.624 1034.96 429.132 1035.25 429.607 1035.6C430.087 1035.94 430.528 1036.34 430.935 1036.78C431.337 1037.22 431.7 1037.7 432.018 1038.21C432.342 1038.73 432.61 1039.28 432.828 1039.86C433.051 1040.43 433.213 1041.02 433.325 1041.63C433.436 1042.25 433.492 1042.86 433.492 1043.48C433.492 1044.11 433.436 1044.72 433.325 1045.33C433.213 1045.94 433.051 1046.54 432.828 1047.11C432.61 1047.69 432.342 1048.24 432.018 1048.75C431.7 1049.27 431.337 1049.75 430.935 1050.19C430.528 1050.63 430.087 1051.02 429.607 1051.37C429.132 1051.71 428.624 1052.01 428.094 1052.24C427.563 1052.48 427.016 1052.66 426.452 1052.78C425.894 1052.91 425.324 1052.96 424.749 1052.96C424.174 1052.96 423.605 1052.91 423.041 1052.78C422.477 1052.66 421.93 1052.48 421.4 1052.24C420.869 1052.01 420.367 1051.71 419.887 1051.37C419.412 1051.02 418.971 1050.63 418.564 1050.19C418.156 1049.75 417.793 1049.27 417.475 1048.75C417.157 1048.24 416.889 1047.69 416.665 1047.11C416.448 1046.54 416.28 1045.94 416.169 1045.33C416.057 1044.72 416.001 1044.11 416.001 1043.48Z" fill="white"/>
</g>
<path d="M70.9994 858.487C70.9994 857.864 71.0552 857.246 71.1669 856.633C71.2785 856.025 71.446 855.433 71.6693 854.856C71.8871 854.279 72.155 853.733 72.4733 853.218C72.7915 852.698 73.1544 852.219 73.5619 851.781C73.9695 851.338 74.4105 850.947 74.8907 850.602C75.3652 850.257 75.8677 849.963 76.398 849.726C76.9284 849.484 77.4755 849.304 78.0394 849.185C78.6033 849.062 79.1727 849 79.7477 849C80.3228 849 80.8922 849.062 81.4561 849.185C82.0144 849.304 82.5615 849.484 83.0919 849.726C83.6223 849.963 84.1303 850.257 84.6048 850.602C85.085 850.947 85.526 851.338 85.9336 851.781C86.3355 852.219 86.6984 852.698 87.0222 853.218C87.3404 853.733 87.6084 854.279 87.8261 854.856C88.0495 855.433 88.2114 856.025 88.323 856.633C88.4347 857.246 88.4961 857.864 88.4961 858.487C88.4961 859.11 88.4347 859.723 88.323 860.336C88.2114 860.944 88.0495 861.541 87.8261 862.113C87.6084 862.69 87.3404 863.236 87.0166 863.756C86.6984 864.271 86.3355 864.75 85.9336 865.193C85.526 865.631 85.085 866.022 84.6048 866.373C84.1303 866.718 83.6223 867.006 83.0919 867.248C82.5615 867.485 82.0144 867.665 81.4561 867.789C80.8922 867.907 80.3228 867.969 79.7477 867.969C79.1727 867.969 78.6033 867.907 78.0394 867.789C77.4755 867.665 76.9284 867.485 76.398 867.248C75.8677 867.006 75.3652 866.718 74.8907 866.373C74.4105 866.022 73.9695 865.631 73.5619 865.193C73.1544 864.75 72.7915 864.271 72.4733 863.756C72.155 863.236 71.8871 862.69 71.6693 862.113C71.446 861.541 71.2785 860.944 71.1669 860.336C71.0552 859.723 70.9994 859.11 70.9994 858.487Z" fill="#484D68"/>
<path d="M10.0011 839.482C10.0011 838.859 10.0569 838.246 10.1686 837.633C10.2802 837.02 10.4421 836.428 10.6654 835.856C10.8832 835.279 11.1511 834.733 11.4749 834.213C11.7932 833.698 12.1561 833.219 12.558 832.776C12.9656 832.338 13.4066 831.942 13.8867 831.597C14.3613 831.252 14.8693 830.958 15.3997 830.721C15.9301 830.484 16.4772 830.304 17.0411 830.18C17.5993 830.062 18.1688 830 18.7438 830C19.3189 830 19.8883 830.062 20.4522 830.18C21.0161 830.304 21.5632 830.484 22.0936 830.721C22.6239 830.958 23.1264 831.252 23.6065 831.597C24.0811 831.942 24.5221 832.338 24.9297 832.776C25.3372 833.219 25.7001 833.698 26.0183 834.213C26.3365 834.733 26.6045 835.279 26.8278 835.856C27.0456 836.428 27.213 837.02 27.3247 837.633C27.4364 838.246 27.4922 838.859 27.4922 839.482C27.4922 840.105 27.4364 840.723 27.3247 841.331C27.213 841.944 27.0456 842.536 26.8278 843.113C26.6045 843.69 26.3365 844.236 26.0183 844.751C25.7001 845.271 25.3372 845.75 24.9297 846.188C24.5221 846.631 24.0811 847.022 23.6065 847.367C23.1264 847.713 22.6239 848.006 22.0936 848.243C21.5632 848.485 21.0161 848.665 20.4522 848.784C19.8883 848.907 19.3189 848.969 18.7438 848.969C18.1688 848.969 17.5993 848.907 17.0411 848.784C16.4772 848.665 15.9301 848.485 15.3997 848.243C14.8693 848.006 14.3613 847.713 13.8867 847.367C13.4066 847.022 12.9656 846.631 12.558 846.188C12.1561 845.75 11.7932 845.271 11.4749 844.751C11.1511 844.236 10.8832 843.69 10.6654 843.113C10.4421 842.536 10.2802 841.944 10.1686 841.331C10.0569 840.723 10.0011 840.105 10.0011 839.482Z" fill="#484D68"/>
<path d="M450.001 1032.48C450.001 1031.86 450.057 1031.25 450.169 1030.63C450.28 1030.02 450.448 1029.43 450.665 1028.86C450.889 1028.28 451.157 1027.73 451.475 1027.21C451.793 1026.7 452.156 1026.22 452.564 1025.78C452.971 1025.34 453.412 1024.94 453.887 1024.6C454.367 1024.25 454.869 1023.96 455.4 1023.72C455.93 1023.48 456.477 1023.3 457.041 1023.18C457.605 1023.06 458.174 1023 458.749 1023C459.324 1023 459.894 1023.06 460.452 1023.18C461.016 1023.3 461.563 1023.48 462.094 1023.72C462.624 1023.96 463.132 1024.25 463.607 1024.6C464.087 1024.94 464.528 1025.34 464.935 1025.78C465.337 1026.22 465.7 1026.7 466.018 1027.21C466.342 1027.73 466.61 1028.28 466.828 1028.86C467.051 1029.43 467.213 1030.02 467.325 1030.63C467.436 1031.25 467.492 1031.86 467.492 1032.48C467.492 1033.11 467.436 1033.72 467.325 1034.33C467.213 1034.94 467.051 1035.54 466.828 1036.11C466.61 1036.69 466.342 1037.24 466.018 1037.75C465.7 1038.27 465.337 1038.75 464.935 1039.19C464.528 1039.63 464.087 1040.02 463.607 1040.37C463.132 1040.71 462.624 1041.01 462.094 1041.24C461.563 1041.48 461.016 1041.66 460.452 1041.78C459.894 1041.91 459.324 1041.96 458.749 1041.96C458.174 1041.96 457.605 1041.91 457.041 1041.78C456.477 1041.66 455.93 1041.48 455.4 1041.24C454.869 1041.01 454.367 1040.71 453.887 1040.37C453.412 1040.02 452.971 1039.63 452.564 1039.19C452.156 1038.75 451.793 1038.27 451.475 1037.75C451.157 1037.24 450.889 1036.69 450.665 1036.11C450.448 1035.54 450.28 1034.94 450.169 1034.33C450.057 1033.72 450.001 1033.11 450.001 1032.48Z" fill="white"/>
<path d="M485.001 1030.48C485.001 1029.86 485.057 1029.25 485.169 1028.63C485.28 1028.02 485.448 1027.43 485.665 1026.86C485.889 1026.28 486.157 1025.73 486.475 1025.21C486.793 1024.7 487.156 1024.22 487.564 1023.78C487.971 1023.34 488.412 1022.94 488.887 1022.6C489.367 1022.25 489.869 1021.96 490.4 1021.72C490.93 1021.48 491.477 1021.3 492.041 1021.18C492.605 1021.06 493.174 1021 493.749 1021C494.324 1021 494.894 1021.06 495.452 1021.18C496.016 1021.3 496.563 1021.48 497.094 1021.72C497.624 1021.96 498.132 1022.25 498.607 1022.6C499.087 1022.94 499.528 1023.34 499.935 1023.78C500.337 1024.22 500.7 1024.7 501.018 1025.21C501.342 1025.73 501.61 1026.28 501.828 1026.86C502.051 1027.43 502.213 1028.02 502.325 1028.63C502.436 1029.25 502.492 1029.86 502.492 1030.48C502.492 1031.11 502.436 1031.72 502.325 1032.33C502.213 1032.94 502.051 1033.54 501.828 1034.11C501.61 1034.69 501.342 1035.24 501.018 1035.75C500.7 1036.27 500.337 1036.75 499.935 1037.19C499.528 1037.63 499.087 1038.02 498.607 1038.37C498.132 1038.71 497.624 1039.01 497.094 1039.24C496.563 1039.48 496.016 1039.66 495.452 1039.78C494.894 1039.91 494.324 1039.96 493.749 1039.96C493.174 1039.96 492.605 1039.91 492.041 1039.78C491.477 1039.66 490.93 1039.48 490.4 1039.24C489.869 1039.01 489.367 1038.71 488.887 1038.37C488.412 1038.02 487.971 1037.63 487.564 1037.19C487.156 1036.75 486.793 1036.27 486.475 1035.75C486.157 1035.24 485.889 1034.69 485.665 1034.11C485.448 1033.54 485.28 1032.94 485.169 1032.33C485.057 1031.72 485.001 1031.11 485.001 1030.48Z" fill="white"/>
<path d="M520.001 1043.48C520.001 1042.86 520.057 1042.25 520.169 1041.63C520.28 1041.02 520.448 1040.43 520.665 1039.86C520.889 1039.28 521.157 1038.73 521.475 1038.21C521.793 1037.7 522.156 1037.22 522.564 1036.78C522.971 1036.34 523.412 1035.94 523.887 1035.6C524.367 1035.25 524.869 1034.96 525.4 1034.72C525.93 1034.48 526.477 1034.3 527.041 1034.18C527.605 1034.06 528.174 1034 528.749 1034C529.324 1034 529.894 1034.06 530.452 1034.18C531.016 1034.3 531.563 1034.48 532.094 1034.72C532.624 1034.96 533.132 1035.25 533.607 1035.6C534.087 1035.94 534.528 1036.34 534.935 1036.78C535.337 1037.22 535.7 1037.7 536.018 1038.21C536.342 1038.73 536.61 1039.28 536.828 1039.86C537.051 1040.43 537.213 1041.02 537.325 1041.63C537.436 1042.25 537.492 1042.86 537.492 1043.48C537.492 1044.11 537.436 1044.72 537.325 1045.33C537.213 1045.94 537.051 1046.54 536.828 1047.11C536.61 1047.69 536.342 1048.24 536.018 1048.75C535.7 1049.27 535.337 1049.75 534.935 1050.19C534.528 1050.63 534.087 1051.02 533.607 1051.37C533.132 1051.71 532.624 1052.01 532.094 1052.24C531.563 1052.48 531.016 1052.66 530.452 1052.78C529.894 1052.91 529.324 1052.96 528.749 1052.96C528.174 1052.96 527.605 1052.91 527.041 1052.78C526.477 1052.66 525.93 1052.48 525.4 1052.24C524.869 1052.01 524.367 1051.71 523.887 1051.37C523.412 1051.02 522.971 1050.63 522.564 1050.19C522.156 1049.75 521.793 1049.27 521.475 1048.75C521.157 1048.24 520.889 1047.69 520.665 1047.11C520.448 1046.54 520.28 1045.94 520.169 1045.33C520.057 1044.72 520.001 1044.11 520.001 1043.48Z" fill="white"/>
<path d="M548.001 1074.48C548.001 1073.86 548.057 1073.25 548.169 1072.63C548.28 1072.02 548.448 1071.43 548.665 1070.86C548.889 1070.28 549.157 1069.73 549.475 1069.21C549.793 1068.7 550.156 1068.22 550.564 1067.78C550.971 1067.34 551.412 1066.94 551.887 1066.6C552.367 1066.25 552.869 1065.96 553.4 1065.72C553.93 1065.48 554.477 1065.3 555.041 1065.18C555.605 1065.06 556.174 1065 556.749 1065C557.324 1065 557.894 1065.06 558.452 1065.18C559.016 1065.3 559.563 1065.48 560.094 1065.72C560.624 1065.96 561.132 1066.25 561.607 1066.6C562.087 1066.94 562.528 1067.34 562.935 1067.78C563.337 1068.22 563.7 1068.7 564.018 1069.21C564.342 1069.73 564.61 1070.28 564.828 1070.86C565.051 1071.43 565.213 1072.02 565.325 1072.63C565.436 1073.25 565.492 1073.86 565.492 1074.48C565.492 1075.11 565.436 1075.72 565.325 1076.33C565.213 1076.94 565.051 1077.54 564.828 1078.11C564.61 1078.69 564.342 1079.24 564.018 1079.75C563.7 1080.27 563.337 1080.75 562.935 1081.19C562.528 1081.63 562.087 1082.02 561.607 1082.37C561.132 1082.71 560.624 1083.01 560.094 1083.24C559.563 1083.48 559.016 1083.66 558.452 1083.78C557.894 1083.91 557.324 1083.96 556.749 1083.96C556.174 1083.96 555.605 1083.91 555.041 1083.78C554.477 1083.66 553.93 1083.48 553.4 1083.24C552.869 1083.01 552.367 1082.71 551.887 1082.37C551.412 1082.02 550.971 1081.63 550.564 1081.19C550.156 1080.75 549.793 1080.27 549.475 1079.75C549.157 1079.24 548.889 1078.69 548.665 1078.11C548.448 1077.54 548.28 1076.94 548.169 1076.33C548.057 1075.72 548.001 1075.11 548.001 1074.48Z" fill="white"/>
<mask id="mask3_970_64" style="mask-type:luminance" maskUnits="userSpaceOnUse" x="1764" y="577" width="712" height="532">
<path d="M1764.22 1108.8H2476V577H1764.22V1108.8Z" fill="white"/>
</mask>
<g mask="url(#mask3_970_64)">
<path d="M1764.22 1107.34C1764.22 1107.34 1800.87 906.963 2006.43 977.293C2287.19 1073.36 2074.28 758.192 2363.16 776.199C2476 783.237 2398.89 587.501 2476 577.039V1107.34H1764.22Z" fill="#BAC4F5"/>
</g>
<g clip-path="url(#clip2_970_64)">
<mask id="mask4_970_64" style="mask-type:luminance" maskUnits="userSpaceOnUse" x="2368" y="970" width="105" height="140">
<path d="M2368.16 1109.69H2472.79V970.041H2368.16V1109.69Z" fill="white"/>
</mask>
<g mask="url(#mask4_970_64)">
<path d="M2402.43 1109.46C2402.43 1109.46 2371.24 1017.2 2472.8 998.708V971.313C2472.8 971.313 2337.65 977.236 2376.08 1109.46H2402.43Z" fill="white"/>
</g>
<path d="M2316 909.482C2316 908.859 2315.94 908.246 2315.83 907.633C2315.72 907.025 2315.55 906.428 2315.33 905.856C2315.12 905.279 2314.84 904.733 2314.53 904.213C2314.21 903.698 2313.84 903.219 2313.44 902.776C2313.03 902.338 2312.59 901.947 2312.11 901.597C2311.63 901.252 2311.13 900.958 2310.6 900.721C2310.07 900.484 2309.52 900.304 2308.96 900.18C2308.4 900.062 2307.83 900 2307.26 900C2306.68 900 2306.11 900.062 2305.55 900.18C2304.98 900.304 2304.44 900.484 2303.91 900.721C2303.38 900.958 2302.87 901.252 2302.39 901.597C2301.92 901.947 2301.48 902.338 2301.07 902.776C2300.66 903.219 2300.3 903.698 2299.98 904.213C2299.66 904.733 2299.4 905.279 2299.17 905.856C2298.95 906.428 2298.79 907.025 2298.68 907.633C2298.56 908.246 2298.51 908.859 2298.51 909.482C2298.51 910.105 2298.56 910.723 2298.68 911.336C2298.79 911.944 2298.95 912.536 2299.17 913.113C2299.4 913.69 2299.66 914.236 2299.98 914.751C2300.3 915.271 2300.66 915.75 2301.07 916.188C2301.48 916.631 2301.92 917.022 2302.39 917.367C2302.87 917.713 2303.38 918.006 2303.91 918.243C2304.44 918.485 2304.98 918.665 2305.55 918.784C2306.11 918.907 2306.68 918.969 2307.26 918.969C2307.83 918.969 2308.4 918.907 2308.96 918.784C2309.52 918.665 2310.07 918.485 2310.6 918.243C2311.13 918.006 2311.63 917.713 2312.11 917.367C2312.59 917.022 2313.03 916.631 2313.44 916.188C2313.84 915.75 2314.21 915.271 2314.53 914.751C2314.84 914.236 2315.12 913.69 2315.33 913.113C2315.55 912.536 2315.72 911.944 2315.83 911.336C2315.94 910.723 2316 910.105 2316 909.482Z" fill="#484D68"/>
<path d="M2350.13 1108.14C2350.13 1108.14 2319.24 969.858 2473.19 948.386V870.063C2473.19 870.063 2235.4 896.716 2285.23 1108.14H2350.13Z" fill="#393D54" fill-opacity="0.8"/>
<path d="M2299 938.482C2299 937.859 2298.94 937.246 2298.83 936.633C2298.72 936.02 2298.55 935.428 2298.33 934.856C2298.11 934.279 2297.84 933.733 2297.53 933.213C2297.21 932.698 2296.84 932.219 2296.44 931.776C2296.03 931.338 2295.59 930.942 2295.11 930.597C2294.63 930.251 2294.13 929.958 2293.6 929.721C2293.07 929.484 2292.52 929.304 2291.96 929.18C2291.4 929.062 2290.83 929 2290.25 929C2289.68 929 2289.11 929.062 2288.55 929.18C2287.98 929.304 2287.44 929.484 2286.91 929.721C2286.38 929.958 2285.87 930.251 2285.39 930.597C2284.91 930.942 2284.47 931.338 2284.06 931.776C2283.66 932.219 2283.3 932.698 2282.98 933.213C2282.66 933.733 2282.39 934.279 2282.17 934.856C2281.95 935.428 2281.79 936.02 2281.68 936.633C2281.56 937.246 2281.51 937.859 2281.51 938.482C2281.51 939.105 2281.56 939.723 2281.68 940.331C2281.79 940.944 2281.95 941.536 2282.17 942.113C2282.39 942.69 2282.66 943.236 2282.98 943.751C2283.3 944.271 2283.66 944.75 2284.06 945.188C2284.47 945.631 2284.91 946.022 2285.39 946.367C2285.87 946.712 2286.38 947.006 2286.91 947.243C2287.44 947.485 2287.98 947.66 2288.55 947.784C2289.11 947.907 2289.68 947.964 2290.25 947.964C2290.83 947.964 2291.4 947.907 2291.96 947.784C2292.52 947.66 2293.07 947.485 2293.6 947.243C2294.13 947.006 2294.63 946.712 2295.11 946.367C2295.59 946.022 2296.03 945.631 2296.44 945.188C2296.84 944.75 2297.21 944.271 2297.53 943.751C2297.84 943.236 2298.11 942.69 2298.33 942.113C2298.55 941.536 2298.72 940.944 2298.83 940.331C2298.94 939.723 2299 939.105 2299 938.482Z" fill="#484D68"/>
<path d="M2192 1041.48C2192 1040.86 2191.94 1040.25 2191.83 1039.63C2191.72 1039.02 2191.55 1038.43 2191.33 1037.86C2191.11 1037.28 2190.84 1036.73 2190.53 1036.21C2190.21 1035.7 2189.84 1035.22 2189.44 1034.78C2189.03 1034.34 2188.59 1033.94 2188.11 1033.6C2187.63 1033.25 2187.13 1032.96 2186.6 1032.72C2186.07 1032.48 2185.52 1032.3 2184.96 1032.18C2184.4 1032.06 2183.83 1032 2183.25 1032C2182.68 1032 2182.11 1032.06 2181.55 1032.18C2180.98 1032.3 2180.44 1032.48 2179.91 1032.72C2179.38 1032.96 2178.87 1033.25 2178.39 1033.6C2177.91 1033.94 2177.47 1034.34 2177.06 1034.78C2176.66 1035.22 2176.3 1035.7 2175.98 1036.21C2175.66 1036.73 2175.39 1037.28 2175.17 1037.86C2174.95 1038.43 2174.79 1039.02 2174.68 1039.63C2174.56 1040.25 2174.51 1040.86 2174.51 1041.48C2174.51 1042.11 2174.56 1042.72 2174.68 1043.33C2174.79 1043.94 2174.95 1044.54 2175.17 1045.11C2175.39 1045.69 2175.66 1046.24 2175.98 1046.75C2176.3 1047.27 2176.66 1047.75 2177.06 1048.19C2177.47 1048.63 2177.91 1049.02 2178.39 1049.37C2178.87 1049.71 2179.38 1050.01 2179.91 1050.24C2180.44 1050.48 2180.98 1050.66 2181.55 1050.78C2182.11 1050.91 2182.68 1050.96 2183.25 1050.96C2183.83 1050.96 2184.4 1050.91 2184.96 1050.78C2185.52 1050.66 2186.07 1050.48 2186.6 1050.24C2187.13 1050.01 2187.63 1049.71 2188.11 1049.37C2188.59 1049.02 2189.03 1048.63 2189.44 1048.19C2189.84 1047.75 2190.21 1047.27 2190.53 1046.75C2190.84 1046.24 2191.11 1045.69 2191.33 1045.11C2191.55 1044.54 2191.72 1043.94 2191.83 1043.33C2191.94 1042.72 2192 1042.11 2192 1041.48Z" fill="white"/>
<path d="M2158 1062.48C2158 1061.86 2157.94 1061.25 2157.83 1060.63C2157.72 1060.02 2157.55 1059.43 2157.33 1058.86C2157.11 1058.28 2156.84 1057.73 2156.53 1057.21C2156.21 1056.7 2155.84 1056.22 2155.44 1055.78C2155.03 1055.34 2154.59 1054.94 2154.11 1054.6C2153.63 1054.25 2153.13 1053.96 2152.6 1053.72C2152.07 1053.48 2151.52 1053.3 2150.96 1053.18C2150.4 1053.06 2149.83 1053 2149.25 1053C2148.68 1053 2148.11 1053.06 2147.55 1053.18C2146.98 1053.3 2146.44 1053.48 2145.91 1053.72C2145.38 1053.96 2144.87 1054.25 2144.39 1054.6C2143.91 1054.94 2143.47 1055.34 2143.06 1055.78C2142.66 1056.22 2142.3 1056.7 2141.98 1057.21C2141.66 1057.73 2141.39 1058.28 2141.17 1058.86C2140.95 1059.43 2140.79 1060.02 2140.68 1060.63C2140.56 1061.25 2140.51 1061.86 2140.51 1062.48C2140.51 1063.11 2140.56 1063.72 2140.68 1064.33C2140.79 1064.94 2140.95 1065.54 2141.17 1066.11C2141.39 1066.69 2141.66 1067.24 2141.98 1067.75C2142.3 1068.27 2142.66 1068.75 2143.06 1069.19C2143.47 1069.63 2143.91 1070.02 2144.39 1070.37C2144.87 1070.71 2145.38 1071.01 2145.91 1071.24C2146.44 1071.48 2146.98 1071.66 2147.55 1071.78C2148.11 1071.91 2148.68 1071.96 2149.25 1071.96C2149.83 1071.96 2150.4 1071.91 2150.96 1071.78C2151.52 1071.66 2152.07 1071.48 2152.6 1071.24C2153.13 1071.01 2153.63 1070.71 2154.11 1070.37C2154.59 1070.02 2155.03 1069.63 2155.44 1069.19C2155.84 1068.75 2156.21 1068.27 2156.53 1067.75C2156.84 1067.24 2157.11 1066.69 2157.33 1066.11C2157.55 1065.54 2157.72 1064.94 2157.83 1064.33C2157.94 1063.72 2158 1063.11 2158 1062.48Z" fill="white"/>
<path d="M2115 1074.48C2115 1073.86 2114.94 1073.25 2114.83 1072.63C2114.72 1072.02 2114.55 1071.43 2114.33 1070.86C2114.11 1070.28 2113.84 1069.73 2113.53 1069.21C2113.21 1068.7 2112.84 1068.22 2112.44 1067.78C2112.03 1067.34 2111.59 1066.94 2111.11 1066.6C2110.63 1066.25 2110.13 1065.96 2109.6 1065.72C2109.07 1065.48 2108.52 1065.3 2107.96 1065.18C2107.4 1065.06 2106.83 1065 2106.25 1065C2105.68 1065 2105.11 1065.06 2104.55 1065.18C2103.98 1065.3 2103.44 1065.48 2102.91 1065.72C2102.38 1065.96 2101.87 1066.25 2101.39 1066.6C2100.91 1066.94 2100.47 1067.34 2100.06 1067.78C2099.66 1068.22 2099.3 1068.7 2098.98 1069.21C2098.66 1069.73 2098.39 1070.28 2098.17 1070.86C2097.95 1071.43 2097.79 1072.02 2097.68 1072.63C2097.56 1073.25 2097.51 1073.86 2097.51 1074.48C2097.51 1075.11 2097.56 1075.72 2097.68 1076.33C2097.79 1076.94 2097.95 1077.54 2098.17 1078.11C2098.39 1078.69 2098.66 1079.24 2098.98 1079.75C2099.3 1080.27 2099.66 1080.75 2100.06 1081.19C2100.47 1081.63 2100.91 1082.02 2101.39 1082.37C2101.87 1082.71 2102.38 1083.01 2102.91 1083.24C2103.44 1083.49 2103.98 1083.66 2104.55 1083.78C2105.11 1083.91 2105.68 1083.96 2106.25 1083.96C2106.83 1083.96 2107.4 1083.91 2107.96 1083.78C2108.52 1083.66 2109.07 1083.49 2109.6 1083.24C2110.13 1083.01 2110.63 1082.71 2111.11 1082.37C2111.59 1082.02 2112.03 1081.63 2112.44 1081.19C2112.84 1080.75 2113.21 1080.27 2113.53 1079.75C2113.84 1079.24 2114.11 1078.69 2114.33 1078.11C2114.55 1077.54 2114.72 1076.94 2114.83 1076.33C2114.94 1075.72 2115 1075.11 2115 1074.48Z" fill="white"/>
<path d="M2072 1062.48C2072 1061.86 2071.94 1061.25 2071.83 1060.63C2071.72 1060.02 2071.55 1059.43 2071.33 1058.86C2071.11 1058.28 2070.84 1057.73 2070.53 1057.21C2070.21 1056.7 2069.84 1056.22 2069.44 1055.78C2069.03 1055.34 2068.59 1054.94 2068.11 1054.6C2067.63 1054.25 2067.13 1053.96 2066.6 1053.72C2066.07 1053.48 2065.52 1053.3 2064.96 1053.18C2064.4 1053.06 2063.83 1053 2063.25 1053C2062.68 1053 2062.11 1053.06 2061.55 1053.18C2060.98 1053.3 2060.44 1053.48 2059.91 1053.72C2059.38 1053.96 2058.87 1054.25 2058.39 1054.6C2057.91 1054.94 2057.47 1055.34 2057.06 1055.78C2056.66 1056.22 2056.3 1056.7 2055.98 1057.21C2055.66 1057.73 2055.39 1058.28 2055.17 1058.86C2054.95 1059.43 2054.79 1060.02 2054.68 1060.63C2054.56 1061.25 2054.51 1061.86 2054.51 1062.48C2054.51 1063.11 2054.56 1063.72 2054.68 1064.33C2054.79 1064.94 2054.95 1065.54 2055.17 1066.11C2055.39 1066.69 2055.66 1067.24 2055.98 1067.75C2056.3 1068.27 2056.66 1068.75 2057.06 1069.19C2057.47 1069.63 2057.91 1070.02 2058.39 1070.37C2058.87 1070.71 2059.38 1071.01 2059.91 1071.24C2060.44 1071.48 2060.98 1071.66 2061.55 1071.78C2062.11 1071.91 2062.68 1071.96 2063.25 1071.96C2063.83 1071.96 2064.4 1071.91 2064.96 1071.78C2065.52 1071.66 2066.07 1071.48 2066.6 1071.24C2067.13 1071.01 2067.63 1070.71 2068.11 1070.37C2068.59 1070.02 2069.03 1069.63 2069.44 1069.19C2069.84 1068.75 2070.21 1068.27 2070.53 1067.75C2070.84 1067.24 2071.11 1066.69 2071.33 1066.11C2071.55 1065.54 2071.72 1064.94 2071.83 1064.33C2071.94 1063.72 2072 1063.11 2072 1062.48Z" fill="white"/>
<path d="M2346 882.482C2346 881.864 2345.94 881.246 2345.83 880.633C2345.72 880.025 2345.55 879.433 2345.33 878.856C2345.11 878.279 2344.84 877.733 2344.53 877.213C2344.21 876.698 2343.84 876.219 2343.44 875.776C2343.03 875.338 2342.59 874.947 2342.11 874.597C2341.63 874.252 2341.13 873.963 2340.6 873.721C2340.07 873.484 2339.52 873.304 2338.96 873.185C2338.4 873.062 2337.83 873 2337.25 873C2336.68 873 2336.11 873.062 2335.55 873.185C2334.98 873.304 2334.44 873.484 2333.91 873.721C2333.38 873.963 2332.87 874.252 2332.39 874.597C2331.91 874.947 2331.47 875.338 2331.06 875.776C2330.66 876.219 2330.3 876.698 2329.98 877.213C2329.66 877.733 2329.39 878.279 2329.17 878.856C2328.95 879.433 2328.79 880.025 2328.68 880.633C2328.56 881.246 2328.51 881.864 2328.51 882.482C2328.51 883.105 2328.56 883.723 2328.68 884.336C2328.79 884.944 2328.95 885.536 2329.17 886.113C2329.39 886.69 2329.66 887.236 2329.98 887.751C2330.3 888.271 2330.66 888.75 2331.06 889.188C2331.47 889.631 2331.91 890.022 2332.39 890.367C2332.87 890.718 2333.38 891.006 2333.91 891.248C2334.44 891.485 2334.98 891.665 2335.55 891.784C2336.11 891.907 2336.68 891.969 2337.25 891.969C2337.83 891.969 2338.4 891.907 2338.96 891.784C2339.52 891.665 2340.07 891.485 2340.6 891.248C2341.13 891.006 2341.63 890.718 2342.11 890.367C2342.59 890.022 2343.03 889.631 2343.44 889.188C2343.84 888.75 2344.21 888.271 2344.53 887.751C2344.84 887.236 2345.11 886.69 2345.33 886.113C2345.55 885.536 2345.72 884.944 2345.83 884.336C2345.94 883.723 2346 883.105 2346 882.482Z" fill="#484D68"/>
<mask id="mask5_970_64" style="mask-type:luminance" maskUnits="userSpaceOnUse" x="2214" y="946" width="259" height="159">
<path d="M2214.31 1104.1H2473V946H2214.31V1104.1Z" fill="white"/>
</mask>
<g mask="url(#mask5_970_64)">
<path d="M2216.32 946.155C2216.1 946.155 2215.87 946.216 2215.65 946.34C2214.96 946.742 2214.69 947.679 2215.06 948.436C2215.37 949.065 2222.81 964.104 2241.59 982.913C2252.59 993.935 2265.21 1003.95 2279.1 1012.67C2296.45 1023.56 2315.84 1032.47 2336.73 1039.13C2446.7 1074.21 2465.5 1093.1 2468.47 1099.59C2469.05 1100.86 2468.93 1101.49 2468.9 1101.59C2468.56 1102.3 2468.76 1103.19 2469.39 1103.63C2470.06 1104.09 2470.95 1103.89 2471.37 1103.17C2471.52 1102.91 2472.23 1101.53 2471.4 1099.12C2468.49 1090.62 2447.22 1071.14 2337.54 1036.15C2290.82 1021.24 2260.69 997.798 2243.65 980.75C2225.18 962.281 2217.66 947.133 2217.59 946.984C2217.33 946.458 2216.84 946.155 2216.32 946.155Z" fill="#1D3020"/>
</g>
<path d="M2432.27 1020.08C2432.27 1020.08 2430.78 1034.89 2439.85 1051.13C2448.49 1066.59 2455.5 1074.83 2455.5 1074.83C2455.5 1074.83 2447.48 1037.64 2432.27 1020.08Z" fill="#393D54"/>
<path d="M2397.61 1003.27C2397.61 1003.27 2396.12 1018.08 2405.19 1034.32C2413.82 1049.78 2420.84 1058.01 2420.84 1058.01C2420.84 1058.01 2412.81 1020.83 2397.61 1003.27Z" fill="#393D54"/>
<path d="M2175.04 976.658C2175.04 976.658 2185.04 986.872 2202.46 988.819C2219.04 990.668 2229.33 989.57 2229.33 989.57C2229.33 989.57 2197.13 974.088 2175.04 976.658Z" fill="#393D54"/>
<path d="M2364.81 992.073C2364.81 992.073 2363.33 1006.89 2372.4 1023.13C2381.04 1038.58 2388.05 1046.82 2388.05 1046.82C2388.05 1046.82 2380.03 1009.63 2364.81 992.073Z" fill="#393D54"/>
<path d="M2320.51 975.901C2320.51 975.901 2319.03 990.714 2328.1 1006.95C2336.74 1022.41 2343.75 1030.65 2343.75 1030.65C2343.75 1030.65 2335.72 993.454 2320.51 975.901Z" fill="#393D54"/>
<path d="M2286.54 962.113C2286.54 962.113 2285.05 976.926 2294.12 993.165C2302.76 1008.62 2309.77 1016.86 2309.77 1016.86C2309.77 1016.86 2301.74 979.671 2286.54 962.113Z" fill="#393D54"/>
<path d="M2252.34 943.901C2252.34 943.901 2250.86 958.714 2259.93 974.953C2268.57 990.41 2275.58 998.646 2275.58 998.646C2275.58 998.646 2267.56 961.454 2252.34 943.901Z" fill="#393D54"/>
<path d="M2221.42 895.116C2221.42 895.116 2216.88 909.177 2222.32 927.224C2227.49 944.406 2232.6 954.15 2232.6 954.15C2232.6 954.15 2232.56 915.96 2221.42 895.116Z" fill="#393D54"/>
<path d="M2206.33 1013.84C2206.33 1013.84 2217.42 1022.65 2234.92 1022.25C2251.58 1021.88 2261.67 1019.42 2261.67 1019.42C2261.67 1019.42 2227.96 1008.35 2206.33 1013.84Z" fill="#393D54"/>
<path d="M2180.23 908.826C2180.23 908.826 2183.16 919.833 2193.98 928.522C2204.28 936.793 2211.48 940.435 2211.48 940.435C2211.48 940.435 2195.78 916.511 2180.23 908.826Z" fill="#393D54"/>
<path d="M2152.55 950.823C2152.55 950.823 2163.68 959.558 2181.18 959.069C2197.84 958.6 2207.92 956.077 2207.92 956.077C2207.92 956.077 2174.16 945.199 2152.55 950.823Z" fill="#393D54"/>
<path d="M2245.58 1040.62C2245.58 1040.62 2257.67 1047.7 2274.96 1044.72C2291.42 1041.89 2301.09 1037.96 2301.09 1037.96C2301.09 1037.96 2266.31 1031.97 2245.58 1040.62Z" fill="#393D54"/>
<path d="M2282.43 1062.29C2282.43 1062.29 2295.3 1067.53 2312.06 1062.04C2328.01 1056.81 2337.11 1051.49 2337.11 1051.49C2337.11 1051.49 2301.9 1050.68 2282.43 1062.29Z" fill="#393D54"/>
<path d="M2323.95 1076.19C2323.95 1076.19 2336.81 1081.43 2353.57 1075.94C2369.52 1070.72 2378.62 1065.4 2378.62 1065.4C2378.62 1065.4 2343.41 1064.58 2323.95 1076.19Z" fill="#393D54"/>
<path d="M2367.77 1094.17C2367.77 1094.17 2380.63 1099.41 2397.39 1093.92C2413.35 1088.69 2422.44 1083.38 2422.44 1083.38C2422.44 1083.38 2387.24 1082.56 2367.77 1094.17Z" fill="#393D54"/>
<path d="M2043 1043.48C2043 1042.86 2042.94 1042.25 2042.83 1041.63C2042.72 1041.02 2042.55 1040.43 2042.33 1039.86C2042.11 1039.28 2041.84 1038.73 2041.53 1038.21C2041.21 1037.7 2040.84 1037.22 2040.44 1036.78C2040.03 1036.34 2039.59 1035.94 2039.11 1035.6C2038.63 1035.25 2038.13 1034.96 2037.6 1034.72C2037.07 1034.48 2036.52 1034.3 2035.96 1034.18C2035.4 1034.06 2034.83 1034 2034.25 1034C2033.68 1034 2033.11 1034.06 2032.55 1034.18C2031.98 1034.3 2031.44 1034.48 2030.91 1034.72C2030.38 1034.96 2029.87 1035.25 2029.39 1035.6C2028.91 1035.94 2028.47 1036.34 2028.06 1036.78C2027.66 1037.22 2027.3 1037.7 2026.98 1038.21C2026.66 1038.73 2026.39 1039.28 2026.17 1039.86C2025.95 1040.43 2025.79 1041.02 2025.68 1041.63C2025.56 1042.25 2025.51 1042.86 2025.51 1043.48C2025.51 1044.11 2025.56 1044.72 2025.68 1045.33C2025.79 1045.94 2025.95 1046.54 2026.17 1047.11C2026.39 1047.69 2026.66 1048.24 2026.98 1048.75C2027.3 1049.27 2027.66 1049.75 2028.06 1050.19C2028.47 1050.63 2028.91 1051.02 2029.39 1051.37C2029.87 1051.71 2030.38 1052.01 2030.91 1052.24C2031.44 1052.48 2031.98 1052.66 2032.55 1052.78C2033.11 1052.91 2033.68 1052.96 2034.25 1052.96C2034.83 1052.96 2035.4 1052.91 2035.96 1052.78C2036.52 1052.66 2037.07 1052.48 2037.6 1052.24C2038.13 1052.01 2038.63 1051.71 2039.11 1051.37C2039.59 1051.02 2040.03 1050.63 2040.44 1050.19C2040.84 1049.75 2041.21 1049.27 2041.53 1048.75C2041.84 1048.24 2042.11 1047.69 2042.33 1047.11C2042.55 1046.54 2042.72 1045.94 2042.83 1045.33C2042.94 1044.72 2043 1044.11 2043 1043.48Z" fill="white"/>
</g>
<path d="M2388 858.487C2388 857.864 2387.94 857.246 2387.83 856.633C2387.72 856.025 2387.55 855.433 2387.33 854.856C2387.11 854.279 2386.84 853.733 2386.53 853.218C2386.21 852.698 2385.85 852.219 2385.44 851.781C2385.03 851.338 2384.59 850.947 2384.11 850.602C2383.63 850.257 2383.13 849.963 2382.6 849.726C2382.07 849.484 2381.52 849.304 2380.96 849.185C2380.4 849.062 2379.83 849 2379.25 849C2378.68 849 2378.11 849.062 2377.54 849.185C2376.99 849.304 2376.44 849.484 2375.91 849.726C2375.38 849.963 2374.87 850.257 2374.4 850.602C2373.92 850.947 2373.47 851.338 2373.07 851.781C2372.66 852.219 2372.3 852.698 2371.98 853.218C2371.66 853.733 2371.39 854.279 2371.17 854.856C2370.95 855.433 2370.79 856.025 2370.68 856.633C2370.57 857.246 2370.5 857.864 2370.5 858.487C2370.5 859.11 2370.57 859.723 2370.68 860.336C2370.79 860.944 2370.95 861.541 2371.17 862.113C2371.39 862.69 2371.66 863.236 2371.98 863.756C2372.3 864.271 2372.66 864.75 2373.07 865.193C2373.47 865.631 2373.92 866.022 2374.4 866.373C2374.87 866.718 2375.38 867.006 2375.91 867.248C2376.44 867.485 2376.99 867.665 2377.54 867.789C2378.11 867.907 2378.68 867.969 2379.25 867.969C2379.83 867.969 2380.4 867.907 2380.96 867.789C2381.52 867.665 2382.07 867.485 2382.6 867.248C2383.13 867.006 2383.63 866.718 2384.11 866.373C2384.59 866.022 2385.03 865.631 2385.44 865.193C2385.85 864.75 2386.21 864.271 2386.53 863.756C2386.84 863.236 2387.11 862.69 2387.33 862.113C2387.55 861.541 2387.72 860.944 2387.83 860.336C2387.94 859.723 2388 859.11 2388 858.487Z" fill="#484D68"/>
<path d="M2449 839.482C2449 838.859 2448.94 838.246 2448.83 837.633C2448.72 837.02 2448.56 836.428 2448.33 835.856C2448.12 835.279 2447.85 834.733 2447.53 834.213C2447.21 833.698 2446.84 833.219 2446.44 832.776C2446.03 832.338 2445.59 831.942 2445.11 831.597C2444.64 831.252 2444.13 830.958 2443.6 830.721C2443.07 830.484 2442.52 830.304 2441.96 830.18C2441.4 830.062 2440.83 830 2440.26 830C2439.68 830 2439.11 830.062 2438.55 830.18C2437.98 830.304 2437.44 830.484 2436.91 830.721C2436.38 830.958 2435.87 831.252 2435.39 831.597C2434.92 831.942 2434.48 832.338 2434.07 832.776C2433.66 833.219 2433.3 833.698 2432.98 834.213C2432.66 834.733 2432.4 835.279 2432.17 835.856C2431.95 836.428 2431.79 837.02 2431.68 837.633C2431.56 838.246 2431.51 838.859 2431.51 839.482C2431.51 840.105 2431.56 840.723 2431.68 841.331C2431.79 841.944 2431.95 842.536 2432.17 843.113C2432.4 843.69 2432.66 844.236 2432.98 844.751C2433.3 845.271 2433.66 845.75 2434.07 846.188C2434.48 846.631 2434.92 847.022 2435.39 847.367C2435.87 847.713 2436.38 848.006 2436.91 848.243C2437.44 848.485 2437.98 848.665 2438.55 848.784C2439.11 848.907 2439.68 848.969 2440.26 848.969C2440.83 848.969 2441.4 848.907 2441.96 848.784C2442.52 848.665 2443.07 848.485 2443.6 848.243C2444.13 848.006 2444.64 847.713 2445.11 847.367C2445.59 847.022 2446.03 846.631 2446.44 846.188C2446.84 845.75 2447.21 845.271 2447.53 844.751C2447.85 844.236 2448.12 843.69 2448.33 843.113C2448.56 842.536 2448.72 841.944 2448.83 841.331C2448.94 840.723 2449 840.105 2449 839.482Z" fill="#484D68"/>
<path d="M2009 1032.48C2009 1031.86 2008.94 1031.25 2008.83 1030.63C2008.72 1030.02 2008.55 1029.43 2008.33 1028.86C2008.11 1028.28 2007.84 1027.73 2007.53 1027.21C2007.21 1026.7 2006.84 1026.22 2006.44 1025.78C2006.03 1025.34 2005.59 1024.94 2005.11 1024.6C2004.63 1024.25 2004.13 1023.96 2003.6 1023.72C2003.07 1023.48 2002.52 1023.3 2001.96 1023.18C2001.4 1023.06 2000.83 1023 2000.25 1023C1999.68 1023 1999.11 1023.06 1998.55 1023.18C1997.98 1023.3 1997.44 1023.48 1996.91 1023.72C1996.38 1023.96 1995.87 1024.25 1995.39 1024.6C1994.91 1024.94 1994.47 1025.34 1994.06 1025.78C1993.66 1026.22 1993.3 1026.7 1992.98 1027.21C1992.66 1027.73 1992.39 1028.28 1992.17 1028.86C1991.95 1029.43 1991.79 1030.02 1991.68 1030.63C1991.56 1031.25 1991.51 1031.86 1991.51 1032.48C1991.51 1033.11 1991.56 1033.72 1991.68 1034.33C1991.79 1034.94 1991.95 1035.54 1992.17 1036.11C1992.39 1036.69 1992.66 1037.24 1992.98 1037.75C1993.3 1038.27 1993.66 1038.75 1994.06 1039.19C1994.47 1039.63 1994.91 1040.02 1995.39 1040.37C1995.87 1040.71 1996.38 1041.01 1996.91 1041.24C1997.44 1041.48 1997.98 1041.66 1998.55 1041.78C1999.11 1041.91 1999.68 1041.96 2000.25 1041.96C2000.83 1041.96 2001.4 1041.91 2001.96 1041.78C2002.52 1041.66 2003.07 1041.48 2003.6 1041.24C2004.13 1041.01 2004.63 1040.71 2005.11 1040.37C2005.59 1040.02 2006.03 1039.63 2006.44 1039.19C2006.84 1038.75 2007.21 1038.27 2007.53 1037.75C2007.84 1037.24 2008.11 1036.69 2008.33 1036.11C2008.55 1035.54 2008.72 1034.94 2008.83 1034.33C2008.94 1033.72 2009 1033.11 2009 1032.48Z" fill="white"/>
<path d="M1974 1030.48C1974 1029.86 1973.94 1029.25 1973.83 1028.63C1973.72 1028.02 1973.55 1027.43 1973.33 1026.86C1973.11 1026.28 1972.84 1025.73 1972.53 1025.21C1972.21 1024.7 1971.84 1024.22 1971.44 1023.78C1971.03 1023.34 1970.59 1022.94 1970.11 1022.6C1969.63 1022.25 1969.13 1021.96 1968.6 1021.72C1968.07 1021.48 1967.52 1021.3 1966.96 1021.18C1966.4 1021.06 1965.83 1021 1965.25 1021C1964.68 1021 1964.11 1021.06 1963.55 1021.18C1962.98 1021.3 1962.44 1021.48 1961.91 1021.72C1961.38 1021.96 1960.87 1022.25 1960.39 1022.6C1959.91 1022.94 1959.47 1023.34 1959.06 1023.78C1958.66 1024.22 1958.3 1024.7 1957.98 1025.21C1957.66 1025.73 1957.39 1026.28 1957.17 1026.86C1956.95 1027.43 1956.79 1028.02 1956.68 1028.63C1956.56 1029.25 1956.51 1029.86 1956.51 1030.48C1956.51 1031.11 1956.56 1031.72 1956.68 1032.33C1956.79 1032.94 1956.95 1033.54 1957.17 1034.11C1957.39 1034.69 1957.66 1035.24 1957.98 1035.75C1958.3 1036.27 1958.66 1036.75 1959.06 1037.19C1959.47 1037.63 1959.91 1038.02 1960.39 1038.37C1960.87 1038.71 1961.38 1039.01 1961.91 1039.24C1962.44 1039.48 1962.98 1039.66 1963.55 1039.78C1964.11 1039.91 1964.68 1039.96 1965.25 1039.96C1965.83 1039.96 1966.4 1039.91 1966.96 1039.78C1967.52 1039.66 1968.07 1039.48 1968.6 1039.24C1969.13 1039.01 1969.63 1038.71 1970.11 1038.37C1970.59 1038.02 1971.03 1037.63 1971.44 1037.19C1971.84 1036.75 1972.21 1036.27 1972.53 1035.75C1972.84 1035.24 1973.11 1034.69 1973.33 1034.11C1973.55 1033.54 1973.72 1032.94 1973.83 1032.33C1973.94 1031.72 1974 1031.11 1974 1030.48Z" fill="white"/>
<path d="M1939 1043.48C1939 1042.86 1938.94 1042.25 1938.83 1041.63C1938.72 1041.02 1938.55 1040.43 1938.33 1039.86C1938.11 1039.28 1937.84 1038.73 1937.53 1038.21C1937.21 1037.7 1936.84 1037.22 1936.44 1036.78C1936.03 1036.34 1935.59 1035.94 1935.11 1035.6C1934.63 1035.25 1934.13 1034.96 1933.6 1034.72C1933.07 1034.48 1932.52 1034.3 1931.96 1034.18C1931.4 1034.06 1930.83 1034 1930.25 1034C1929.68 1034 1929.11 1034.06 1928.55 1034.18C1927.98 1034.3 1927.44 1034.48 1926.91 1034.72C1926.38 1034.96 1925.87 1035.25 1925.39 1035.6C1924.91 1035.94 1924.47 1036.34 1924.06 1036.78C1923.66 1037.22 1923.3 1037.7 1922.98 1038.21C1922.66 1038.73 1922.39 1039.28 1922.17 1039.86C1921.95 1040.43 1921.79 1041.02 1921.68 1041.63C1921.56 1042.25 1921.51 1042.86 1921.51 1043.48C1921.51 1044.11 1921.56 1044.72 1921.68 1045.33C1921.79 1045.94 1921.95 1046.54 1922.17 1047.11C1922.39 1047.69 1922.66 1048.24 1922.98 1048.75C1923.3 1049.27 1923.66 1049.75 1924.06 1050.19C1924.47 1050.63 1924.91 1051.02 1925.39 1051.37C1925.87 1051.71 1926.38 1052.01 1926.91 1052.24C1927.44 1052.48 1927.98 1052.66 1928.55 1052.78C1929.11 1052.91 1929.68 1052.96 1930.25 1052.96C1930.83 1052.96 1931.4 1052.91 1931.96 1052.78C1932.52 1052.66 1933.07 1052.48 1933.6 1052.24C1934.13 1052.01 1934.63 1051.71 1935.11 1051.37C1935.59 1051.02 1936.03 1050.63 1936.44 1050.19C1936.84 1049.75 1937.21 1049.27 1937.53 1048.75C1937.84 1048.24 1938.11 1047.69 1938.33 1047.11C1938.55 1046.54 1938.72 1045.94 1938.83 1045.33C1938.94 1044.72 1939 1044.11 1939 1043.48Z" fill="white"/>
<path d="M1911 1074.48C1911 1073.86 1910.94 1073.25 1910.83 1072.63C1910.72 1072.02 1910.55 1071.43 1910.33 1070.86C1910.11 1070.28 1909.84 1069.73 1909.53 1069.21C1909.21 1068.7 1908.84 1068.22 1908.44 1067.78C1908.03 1067.34 1907.59 1066.94 1907.11 1066.6C1906.63 1066.25 1906.13 1065.96 1905.6 1065.72C1905.07 1065.48 1904.52 1065.3 1903.96 1065.18C1903.4 1065.06 1902.83 1065 1902.25 1065C1901.68 1065 1901.11 1065.06 1900.55 1065.18C1899.98 1065.3 1899.44 1065.48 1898.91 1065.72C1898.38 1065.96 1897.87 1066.25 1897.39 1066.6C1896.91 1066.94 1896.47 1067.34 1896.06 1067.78C1895.66 1068.22 1895.3 1068.7 1894.98 1069.21C1894.66 1069.73 1894.39 1070.28 1894.17 1070.86C1893.95 1071.43 1893.79 1072.02 1893.68 1072.63C1893.56 1073.25 1893.51 1073.86 1893.51 1074.48C1893.51 1075.11 1893.56 1075.72 1893.68 1076.33C1893.79 1076.94 1893.95 1077.54 1894.17 1078.11C1894.39 1078.69 1894.66 1079.24 1894.98 1079.75C1895.3 1080.27 1895.66 1080.75 1896.06 1081.19C1896.47 1081.63 1896.91 1082.02 1897.39 1082.37C1897.87 1082.71 1898.38 1083.01 1898.91 1083.24C1899.44 1083.48 1899.98 1083.66 1900.55 1083.78C1901.11 1083.91 1901.68 1083.96 1902.25 1083.96C1902.83 1083.96 1903.4 1083.91 1903.96 1083.78C1904.52 1083.66 1905.07 1083.48 1905.6 1083.24C1906.13 1083.01 1906.63 1082.71 1907.11 1082.37C1907.59 1082.02 1908.03 1081.63 1908.44 1081.19C1908.84 1080.75 1909.21 1080.27 1909.53 1079.75C1909.84 1079.24 1910.11 1078.69 1910.33 1078.11C1910.55 1077.54 1910.72 1076.94 1910.83 1076.33C1910.94 1075.72 1911 1075.11 1911 1074.48Z" fill="white"/>
</g>
<defs>
<clipPath id="clip0_970_64">
<rect width="2459" height="1169" fill="white"/>
</clipPath>
<clipPath id="clip1_970_64">
<rect width="477" height="267" fill="white" transform="matrix(-1 0 0 -1 441 1122)"/>
</clipPath>
<clipPath id="clip2_970_64">
<rect width="477" height="267" fill="white" transform="matrix(1 0 0 -1 2018 1122)"/>
</clipPath>
</defs>
</svg>
