<svg width="2459" height="1169" viewBox="0 0 2459 1169" fill="none" xmlns="http://www.w3.org/2000/svg">
<g clip-path="url(#clip0_790_5)">
<rect width="2459" height="1169" fill="white"/>
<path d="M2295 87C2178.5 83.372 1993 0 1993 0H2459V161C2459 161 2411.5 90.628 2295 87Z" fill="#525979"/>
<path d="M2254.69 -3.91205C2266.84 20.724 2288.59 13.1547 2297.94 6.29054C2302.61 -6.60041 2304.97 -32.7239 2276.99 -34.057C2249.02 -35.4012 2237.34 -22.6535 2235 -16.1198C2239.87 -17.431 2250.63 -16.825 2254.69 -3.91205Z" fill="#161E2E"/>
<path d="M2333.69 -34.7104C2317.96 -36.8258 2302.79 -34.0053 2290.69 -4.41116C2285.69 4.03958 2308.36 20.8198 2336.76 26.9899C2365.16 33.1599 2367.42 23.1557 2376.26 13.2396C2409.78 -3.91533 2381.97 -28.2098 2333.69 -34.7104Z" fill="url(#paint0_linear_790_5)"/>
<path d="M2422.3 -49.6588C2385.5 -55.6588 2364.23 -33.8188 2365.23 -22.1588C2356.08 -13.1588 2367.45 -17.1188 2385.73 7.84122C2403.72 32.4112 2420.92 32.0212 2461.8 -12.1588C2463.96 -22.1588 2459.1 -43.6588 2422.3 -49.6588Z" fill="url(#paint1_linear_790_5)"/>
</g>
<defs>
<linearGradient id="paint0_linear_790_5" x1="2328.69" y1="32.4988" x2="2347.16" y2="-21.0174" gradientUnits="userSpaceOnUse">
<stop stop-color="#B5B5F0"/>
<stop offset="1" stop-color="#363A50"/>
</linearGradient>
<linearGradient id="paint1_linear_790_5" x1="2470.73" y1="-13.6788" x2="2388.73" y2="-1.67877" gradientUnits="userSpaceOnUse">
<stop stop-color="#B5B5F0"/>
<stop offset="1" stop-color="#363A50"/>
</linearGradient>
<clipPath id="clip0_790_5">
<rect width="2459" height="1169" fill="white"/>
</clipPath>
</defs>
</svg>
