<svg width="793" height="1474" viewBox="0 0 793 1474" fill="none" xmlns="http://www.w3.org/2000/svg">
<rect width="793" height="1474" fill="white"/>
<g clip-path="url(#clip0_884_145)">
<g filter="url(#filter0_dddddd_884_145)">
<path d="M92.0313 1052.76L85.0234 1050.05L87.8265 1061.96C91.1903 1062.83 95.1458 1069.18 96.7031 1072.25H99.5064L109.317 1083.07V1087.94C119.128 1090.65 124.267 1107.97 123.333 1110.13C125.575 1110.57 128.005 1112.12 128.939 1112.84V1116.63C130.808 1116.63 136.259 1128.18 138.75 1133.95C138.439 1133.95 138.003 1134.6 138.75 1137.2C139.498 1139.8 147.782 1147.66 151.831 1151.27V1157.23L163.511 1167.51L166.782 1168.59C169.117 1171.66 173.883 1177.36 174.257 1175.63C174.63 1173.9 175.347 1173.46 175.658 1173.46L180.33 1175.63C180.33 1175.09 180.61 1173.9 181.732 1173.46C183.133 1172.92 185.936 1177.8 185.936 1175.63C185.936 1173.9 186.871 1165.53 187.338 1161.56L185.936 1158.85L187.338 1155.6C187.027 1155.06 186.31 1153.44 185.936 1151.27C185.563 1149.11 187.649 1147.48 188.739 1146.94L183.6 1140.45L177.06 1138.82L175.658 1133.95C173.042 1133.52 172.076 1127.64 171.921 1124.75H166.782C165.847 1124.03 163.885 1122.26 163.511 1120.96C163.044 1119.34 166.782 1118.8 164.913 1116.63C163.418 1113.6 165.536 1112.12 166.782 1111.76C164.224 1108.11 162.868 1105.57 159.774 1105.26C153.42 1103.53 149.028 1098.05 147.627 1095.52H144.357V1092.81L139.217 1087.94L138.283 1089.03C137.193 1089.39 135.293 1089.67 136.414 1087.94C128.192 1078.85 118.973 1070.8 115.391 1067.91V1064.67L106.047 1054.92C104.552 1056.66 101.064 1055.65 99.5064 1054.92L96.7031 1057.09L92.0313 1052.76Z" fill="white"/>
<path d="M188.738 1130.7C186.87 1131.57 183.288 1131.06 181.73 1130.7C181.73 1134.6 184.534 1137.74 185.935 1138.82L188.738 1143.69C191.541 1143.33 196.494 1142.18 193.877 1140.45C191.261 1138.71 189.361 1133.23 188.738 1130.7Z" fill="white"/>
<path d="M184.537 1183.75L180.332 1185.37L183.602 1187.54L187.34 1186.46L190.61 1189.16L192.479 1194.58H201.822C204.471 1197.1 209.764 1201.5 209.764 1198.9C209.764 1196.31 214.126 1196.02 216.305 1196.2L225.182 1197.28C229.294 1202.04 238.73 1202.51 242.935 1202.15L249.943 1204.86L255.549 1202.15C256.297 1204.32 263.648 1206.3 267.229 1207.02L266.295 1197.28C258.446 1198.15 254.616 1196.92 253.681 1196.2L245.271 1186.46H238.264C237.89 1184.72 234.37 1183.21 232.657 1182.67L228.452 1187.54H213.503L212.101 1185.37C211.633 1183.75 210.138 1180.61 207.896 1181.04C205.653 1181.48 202.913 1179.42 201.822 1178.34L197.618 1177.25C197.244 1181.15 195.593 1178.88 194.815 1177.25H188.741L184.537 1183.75Z" fill="white"/>
<path d="M254.614 1187.54L250.875 1189.7C255.36 1195.33 260.53 1190.61 262.556 1187.54H254.614Z" fill="white"/>
<path d="M273.767 1200.53C273.009 1202.17 269.096 1202.69 269.096 1202.69C269.096 1202.69 267.62 1204.75 270.029 1204.32C272.438 1203.89 272.902 1205.94 272.833 1207.02L274.702 1209.19L276.57 1205.94C278.065 1205.94 278.439 1203.78 278.439 1202.69L278.404 1202.66C276.847 1201.22 274.468 1199.01 273.767 1200.53Z" fill="white"/>
<path d="M285.446 1202.15L282.175 1204.32L281.707 1209.19H286.379L288.248 1202.69L285.446 1202.15Z" fill="white"/>
<path d="M289.184 1205.94V1209.19C290.678 1211.79 295.412 1210.63 297.593 1209.73C298.371 1209.55 300.582 1209.08 303.199 1208.65C306.469 1208.11 301.798 1205.94 298.994 1207.02C296.004 1206.16 294.634 1204.86 294.322 1204.32L289.184 1205.94Z" fill="white"/>
<path d="M301.801 1201.61H298.062C298.062 1203.34 301.489 1204.5 303.202 1204.86C303.763 1207.02 307.485 1208.29 309.276 1208.65C309.899 1209.01 311.331 1208.97 312.079 1205.94C312.826 1202.91 306.472 1202.51 303.202 1202.69L301.801 1201.61Z" fill="white"/>
<path d="M319.553 1213.52L310.676 1215.69C310.676 1218.28 314.414 1219.65 316.283 1220.02C319.646 1225.21 325.471 1223.26 327.962 1221.64L319.553 1213.52Z" fill="white"/>
<path d="M214.902 1102.56C214.902 1099.09 218.017 1093.53 219.575 1091.19C219.98 1094.57 222.315 1095.78 221.909 1096.6C226.089 1100.41 231.607 1106.72 231.721 1103.64C231.834 1100.58 240.286 1101.65 244.336 1102.56V1100.39L249.007 1094.98H252.278L253.211 1096.6C255.377 1098.86 256.803 1098.68 259.285 1098.77L263.023 1094.98C264.947 1096.74 266.064 1097.17 268.162 1096.6L270.965 1092.27L271.899 1087.4C272.834 1087.4 274.609 1086.64 274.235 1083.61C273.861 1080.58 276.259 1079.1 277.505 1078.74V1070.08L282.177 1065.75C285.759 1065.93 293.11 1066.18 293.858 1065.75C294.791 1065.21 300.397 1072.79 298.996 1072.79H292.923L294.791 1076.03V1083.61L301.8 1089.57C302.921 1095.63 306.938 1100.75 308.807 1102.56C302.08 1101.26 298.218 1104.18 297.128 1105.8V1122.04C294.265 1125.06 286.262 1130.54 286.382 1132.33C286.585 1135.37 284.295 1147.28 282.177 1152.9L268.162 1155.6L266.761 1151.27C263.646 1149.47 257.042 1146.29 255.547 1148.02C254.053 1149.76 248.073 1149.83 245.269 1149.65L242.467 1145.86H229.385C226.769 1141.53 224.245 1131.79 223.312 1127.45C214.693 1118.97 218.794 1114.63 219.482 1114.43C218.828 1113.68 214.902 1106.53 214.902 1102.56Z" fill="white"/>
<path d="M317.684 1175.09H322.823C324.319 1173.79 321.266 1170.22 319.553 1168.59L322.823 1164.81L320.954 1159.39L323.758 1155.6V1148.57L320.954 1144.78C323.571 1134.82 328.273 1141.35 330.299 1145.86L327.495 1151.27L334.503 1158.31L333.101 1162.64C334.659 1164.62 337.773 1167.84 337.773 1164.81C337.773 1161.77 344.003 1159.93 347.118 1159.39L341.044 1151.27V1145.86C329.831 1133.74 334.191 1131.06 337.773 1131.24C340.39 1124.75 348.207 1123.49 351.789 1123.67C352.568 1121.5 353.378 1117.6 350.388 1119.34C347.398 1121.07 336.995 1122.95 332.167 1123.67C329.177 1132.33 322.512 1122.95 319.553 1117.17C321.048 1107.21 324.848 1106.17 326.561 1106.89C328.118 1108.33 331.419 1110.68 332.167 1108.51C332.915 1106.35 334.971 1107.61 335.905 1108.51H348.051L350.388 1109.59L362.067 1108.51L368.608 1098.77C369.73 1090.11 364.715 1095.16 362.067 1098.77L359.265 1100.39L356.461 1102.56H345.715H343.847C341.823 1102.56 337.12 1102.12 334.503 1100.39C331.887 1098.66 328.118 1098.59 326.561 1098.77L323.758 1104.18H320.954L316.283 1111.22V1119.34L313.012 1124.75V1134.49C312.389 1134.49 311.237 1134.71 311.611 1135.57C311.985 1136.44 309.898 1142.79 308.807 1145.86C308.34 1148.75 307.967 1154.2 310.21 1152.9C313.012 1151.27 316.283 1148.57 314.881 1151.27C313.76 1153.44 314.415 1156.87 314.881 1158.31C314.725 1159.75 314.507 1163.83 314.881 1168.59C315.348 1174.55 315.816 1175.09 317.684 1175.09Z" fill="white"/>
<path d="M342.445 1172.92C341.977 1170.94 341.603 1166.32 343.846 1163.72C344.158 1162.45 345.434 1160.89 348.05 1164.8C350.667 1168.71 345.404 1171.85 342.445 1172.92Z" fill="white"/>
<path d="M375.617 1146.94L378.419 1152.9C384.027 1155.49 387.296 1151.81 388.231 1149.65L384.493 1145.86L375.617 1146.94Z" fill="white"/>
<path d="M422.802 1128.54L419.531 1123.67C424.391 1128 426.852 1123.31 427.475 1120.42H431.212L434.014 1116.09L439.154 1115.55C440.4 1116.27 443.172 1118.25 444.292 1120.42C445.695 1123.13 450.366 1118.25 450.366 1120.42C450.366 1122.15 452.859 1125.11 454.104 1126.37L452.702 1132.87C452.546 1134.85 452.608 1139.36 454.104 1141.53C455.973 1144.24 455.973 1138.82 456.907 1141.53C457.655 1143.69 462.514 1147.84 464.849 1149.65L473.258 1141.53L475.127 1136.12L481.668 1134.49C482.135 1131.79 483.723 1126.81 486.34 1128.54C491.946 1132.44 509.543 1138.82 517.642 1141.53V1181.58L516.239 1184.83C517.953 1197.1 520.072 1219.04 514.838 1208.65C509.606 1198.26 502.381 1202.51 499.422 1205.94L486.34 1203.24L493.814 1191.87L497.553 1193.49V1188.08C495.31 1185.92 490.7 1175.63 488.676 1170.76C486.185 1168.05 479.986 1162.64 475.127 1162.64H464.849C448.404 1155.71 447.719 1149.29 449.432 1146.94L446.628 1149.65V1155.6C441.801 1156.51 433.548 1157.77 439.154 1155.6C444.76 1153.44 436.818 1147.48 432.146 1144.78L434.482 1141.53L439.154 1144.78L444.292 1138.82C448.778 1144.89 449.587 1138.46 449.432 1134.49L437.285 1138.82L428.876 1128.54H422.802Z" fill="white"/>
<path d="M391.498 1111.22C388.881 1112.08 389.474 1104.36 390.097 1100.39C390.561 1097.16 391.949 1090.4 393.801 1089.05C393.81 1088.85 393.821 1088.66 393.834 1088.48C394.612 1088.12 395.702 1087.73 393.834 1089.03C393.823 1089.03 393.812 1089.04 393.801 1089.05C393.68 1091.49 393.731 1095.38 394.769 1094.98C395.889 1094.55 394.924 1096.96 394.301 1098.23C392.433 1101.47 390.097 1106.35 395.702 1099.85C397.197 1094.22 400.063 1095.7 401.308 1097.14V1101.47L397.104 1104.72C398.506 1105.08 401.308 1106.56 401.308 1109.59L394.769 1107.43C394.316 1111.37 393.864 1119.49 395.526 1121.48C395.587 1121.54 395.645 1121.6 395.702 1121.66C395.641 1121.6 395.583 1121.54 395.526 1121.48C394.3 1120.16 392.433 1117 391.498 1111.22Z" fill="white"/>
<path d="M394.127 1149.02C394.02 1149.24 393.922 1149.45 393.837 1149.65C393.72 1149.24 393.673 1148.72 394.127 1149.02C395.571 1146.09 398.886 1141.82 402.714 1144.24C403.337 1144.42 405.142 1144.45 407.385 1143.15C409.628 1141.85 412.057 1144.42 412.992 1145.86H418.131C419.999 1149.29 423.551 1155.93 422.803 1155.06C421.868 1153.98 413.926 1153.44 412.992 1149.65C412.244 1146.62 410.501 1149.11 409.721 1150.73H404.583C401.779 1150.91 395.893 1150.95 394.772 1149.65C394.489 1149.32 394.28 1149.13 394.127 1149.02Z" fill="white"/>
<path d="M451.301 1178.34L452.236 1189.16L454.571 1185.37C458.682 1184.07 456.907 1175.81 455.506 1171.84L451.301 1178.34Z" fill="white"/>
<path d="M428.407 1189.7C426.912 1190.14 424.047 1195.66 422.801 1198.36C423.921 1200.96 427.316 1196.56 428.874 1194.03C429.342 1192.41 429.901 1189.27 428.407 1189.7Z" fill="white"/>
<path d="M353.656 1215.69C353.284 1220.88 351.322 1222.9 350.387 1223.26H358.329C360.665 1222.36 365.805 1219.58 367.673 1215.69C370.009 1210.81 367.206 1209.19 365.337 1209.73C363.843 1210.16 356.928 1213.88 353.656 1215.69Z" fill="white"/>
<path d="M324.695 1203.24L316.285 1205.94C316.285 1210.71 327.497 1210.45 333.103 1209.73H337.775C341.98 1207.57 349.548 1203.45 346.185 1204.32C342.821 1205.19 337.93 1204.68 335.906 1204.32H332.169L324.695 1203.24Z" fill="white"/>
<path d="M361.599 1201.61L355.992 1202.69C357.861 1208.32 364.558 1204.32 367.673 1201.61H361.599Z" fill="white"/>
<path d="M353.656 1204.32H350.387L352.723 1206.48L353.656 1204.32Z" fill="white"/>
</g>
<path d="M547.047 1236.28C543.367 1236.28 540.367 1235.16 538.047 1232.92C535.727 1230.68 534.567 1227.84 534.567 1224.4V1160.92C534.567 1157.4 535.687 1154.44 537.927 1152.04C540.247 1149.64 543.287 1148.44 547.047 1148.44C551.047 1148.44 554.167 1149.64 556.407 1152.04C558.727 1154.36 559.887 1157.24 559.887 1160.68V1224.4C559.887 1227.84 558.647 1230.68 556.167 1232.92C553.767 1235.16 550.727 1236.28 547.047 1236.28ZM715.397 1236.04C711.397 1236.04 708.237 1234.84 705.917 1232.44C703.597 1229.96 702.357 1226.76 702.197 1222.84C701.877 1216.04 700.157 1211.24 697.037 1208.44C693.997 1205.56 689.917 1204.12 684.797 1204.12H682.397V1223.32C682.397 1227.48 681.277 1230.64 679.037 1232.8C676.797 1234.96 673.837 1236.04 670.157 1236.04C666.237 1236.04 663.157 1234.96 660.917 1232.8C658.677 1230.64 657.557 1227.48 657.557 1223.32V1206.4C657.557 1197.92 658.797 1191.48 661.277 1187.08C663.837 1182.68 667.077 1179.52 670.997 1177.6L670.397 1175.32H668.477C664.797 1175.32 661.877 1174.16 659.717 1171.84C657.637 1169.44 656.517 1166.2 656.357 1162.12C656.277 1158.12 657.357 1154.88 659.597 1152.4C661.837 1149.92 664.797 1148.68 668.477 1148.68H699.077C707.637 1148.68 714.557 1150.76 719.837 1154.92C725.117 1159.08 727.757 1165.72 727.757 1174.84C727.757 1179.56 726.957 1183.52 725.357 1186.72C723.757 1189.84 721.717 1192.24 719.237 1193.92C716.757 1195.6 714.157 1196.6 711.437 1196.92V1198.48C716.397 1199.68 720.477 1202.32 723.677 1206.4C726.957 1210.48 728.597 1215.96 728.597 1222.84C728.597 1227.24 727.397 1230.56 724.997 1232.8C722.677 1234.96 719.477 1236.04 715.397 1236.04ZM681.797 1185.76C681.797 1187.52 682.117 1188.68 682.757 1189.24C683.397 1189.8 684.597 1190.08 686.357 1190.08H697.637C700.997 1190.08 703.437 1189.32 704.957 1187.8C706.477 1186.28 707.237 1184.16 707.237 1181.44C707.237 1178.64 706.477 1176.48 704.957 1174.96C703.437 1173.44 700.997 1172.68 697.637 1172.68H686.357C684.597 1172.68 683.397 1172.92 682.757 1173.4C682.117 1173.88 681.797 1175.04 681.797 1176.88V1185.76Z" fill="#EEEEEE"/>
<path d="M600.253 1181.92L618.253 1156.48C621.453 1151.92 624.933 1149.36 628.693 1148.8C632.453 1148.16 635.853 1149.04 638.893 1151.44C640.893 1152.96 642.213 1155 642.853 1157.56C643.493 1160.12 643.293 1162.84 642.253 1165.72C641.213 1168.6 639.133 1171.32 636.013 1173.88L615.973 1190.08V1192.6C618.533 1192.6 621.533 1192.92 624.973 1193.56C628.413 1194.2 631.533 1195.64 634.333 1197.88C636.573 1199.56 638.493 1201.48 640.093 1203.64C641.773 1205.8 643.093 1208.48 644.053 1211.68C645.013 1214.8 645.493 1218.76 645.493 1223.56C645.493 1227.48 644.413 1230.64 642.253 1233.04C640.173 1235.36 637.053 1236.52 632.893 1236.52C628.733 1236.52 625.533 1235.36 623.293 1233.04C621.133 1230.64 620.053 1227.48 620.053 1223.56C620.053 1219.16 619.333 1215.68 617.893 1213.12C616.533 1210.48 614.693 1208.56 612.373 1207.36C610.053 1206.16 607.533 1205.56 604.813 1205.56H598.933V1224.4C598.933 1227.84 597.733 1230.68 595.333 1232.92C593.013 1235.16 590.013 1236.28 586.333 1236.28C582.653 1236.28 579.613 1235.16 577.213 1232.92C574.893 1230.68 573.733 1227.84 573.733 1224.4V1160.92C573.733 1157.4 574.893 1154.44 577.213 1152.04C579.533 1149.64 582.573 1148.44 586.333 1148.44C590.333 1148.44 593.413 1149.64 595.573 1152.04C597.813 1154.36 598.933 1157.24 598.933 1160.68V1181.68L600.253 1181.92Z" fill="#B5B5F0"/>
<path d="M525.705 1068.26C518.049 1068.27 510.71 1071.08 505.296 1076.08C499.882 1081.08 496.837 1087.85 496.828 1094.92C496.819 1100.7 498.863 1106.31 502.646 1110.91C502.646 1110.91 503.433 1111.87 503.562 1112.01L525.705 1136.12L547.859 1112C547.975 1111.87 548.765 1110.91 548.765 1110.91L548.767 1110.91C552.549 1106.31 554.591 1100.69 554.582 1094.92C554.573 1087.85 551.528 1081.08 546.114 1076.08C540.701 1071.08 533.361 1068.27 525.705 1068.26ZM525.705 1104.61C523.628 1104.61 521.598 1104.05 519.871 1102.98C518.144 1101.91 516.799 1100.4 516.004 1098.63C515.209 1096.86 515.001 1094.91 515.406 1093.03C515.811 1091.15 516.812 1089.42 518.28 1088.07C519.749 1086.71 521.62 1085.79 523.657 1085.41C525.694 1085.04 527.805 1085.23 529.724 1085.97C531.642 1086.7 533.282 1087.94 534.436 1089.54C535.59 1091.13 536.206 1093 536.206 1094.92C536.202 1097.49 535.095 1099.95 533.127 1101.77C531.158 1103.59 528.489 1104.61 525.705 1104.61Z" fill="#B5B5F0"/>
</g>
<defs>
<filter id="filter0_dddddd_884_145" x="5.02344" y="1050.05" width="593.129" height="353.333" filterUnits="userSpaceOnUse" color-interpolation-filters="sRGB">
<feFlood flood-opacity="0" result="BackgroundImageFix"/>
<feColorMatrix in="SourceAlpha" type="matrix" values="0 0 0 0 0 0 0 0 0 0 0 0 0 0 0 0 0 0 127 0" result="hardAlpha"/>
<feOffset dy="2.76726"/>
<feGaussianBlur stdDeviation="1.1069"/>
<feColorMatrix type="matrix" values="0 0 0 0 0 0 0 0 0 0 0 0 0 0 0 0 0 0 0.07 0"/>
<feBlend mode="normal" in2="BackgroundImageFix" result="effect1_dropShadow_884_145"/>
<feColorMatrix in="SourceAlpha" type="matrix" values="0 0 0 0 0 0 0 0 0 0 0 0 0 0 0 0 0 0 127 0" result="hardAlpha"/>
<feOffset dy="6.6501"/>
<feGaussianBlur stdDeviation="2.66004"/>
<feColorMatrix type="matrix" values="0 0 0 0 0 0 0 0 0 0 0 0 0 0 0 0 0 0 0.0503198 0"/>
<feBlend mode="normal" in2="effect1_dropShadow_884_145" result="effect2_dropShadow_884_145"/>
<feColorMatrix in="SourceAlpha" type="matrix" values="0 0 0 0 0 0 0 0 0 0 0 0 0 0 0 0 0 0 127 0" result="hardAlpha"/>
<feOffset dy="12.5216"/>
<feGaussianBlur stdDeviation="5.00862"/>
<feColorMatrix type="matrix" values="0 0 0 0 0 0 0 0 0 0 0 0 0 0 0 0 0 0 0.0417275 0"/>
<feBlend mode="normal" in2="effect2_dropShadow_884_145" result="effect3_dropShadow_884_145"/>
<feColorMatrix in="SourceAlpha" type="matrix" values="0 0 0 0 0 0 0 0 0 0 0 0 0 0 0 0 0 0 127 0" result="hardAlpha"/>
<feOffset dy="22.3363"/>
<feGaussianBlur stdDeviation="8.93452"/>
<feColorMatrix type="matrix" values="0 0 0 0 0 0 0 0 0 0 0 0 0 0 0 0 0 0 0.035 0"/>
<feBlend mode="normal" in2="effect3_dropShadow_884_145" result="effect4_dropShadow_884_145"/>
<feColorMatrix in="SourceAlpha" type="matrix" values="0 0 0 0 0 0 0 0 0 0 0 0 0 0 0 0 0 0 127 0" result="hardAlpha"/>
<feOffset dy="41.7776"/>
<feGaussianBlur stdDeviation="16.711"/>
<feColorMatrix type="matrix" values="0 0 0 0 0 0 0 0 0 0 0 0 0 0 0 0 0 0 0.0282725 0"/>
<feBlend mode="normal" in2="effect4_dropShadow_884_145" result="effect5_dropShadow_884_145"/>
<feColorMatrix in="SourceAlpha" type="matrix" values="0 0 0 0 0 0 0 0 0 0 0 0 0 0 0 0 0 0 127 0" result="hardAlpha"/>
<feOffset dy="100"/>
<feGaussianBlur stdDeviation="40"/>
<feColorMatrix type="matrix" values="0 0 0 0 0 0 0 0 0 0 0 0 0 0 0 0 0 0 0.0196802 0"/>
<feBlend mode="normal" in2="effect5_dropShadow_884_145" result="effect6_dropShadow_884_145"/>
<feBlend mode="normal" in="SourceGraphic" in2="effect6_dropShadow_884_145" result="shape"/>
</filter>
<clipPath id="clip0_884_145">
<rect width="683" height="260" fill="white" transform="translate(55 1009)"/>
</clipPath>
</defs>
</svg>
