<svg width="724" height="1792" viewBox="0 0 724 1792" fill="none" xmlns="http://www.w3.org/2000/svg">
<g clip-path="url(#clip0_884_455)">
<rect width="724" height="1792" fill="#515878"/>
<path d="M450.073 1178.45C515.452 969.575 723.999 934.904 723.999 934.904V1912.36H-143.34C-143.34 1912.36 -75.7781 1622.36 27.4806 1532.71C145.901 1429.9 299.801 1701.06 377.946 1532.71C440.125 1398.76 403.834 1326.17 450.073 1178.45Z" fill="#BAC4F5"/>
<path d="M501.687 1493.54C554.747 1398.56 724 1382.79 724 1382.79V1827.26H20.0859C20.0859 1827.26 74.9176 1695.39 158.72 1654.62C254.828 1607.88 379.73 1731.18 443.151 1654.62C493.613 1593.72 464.161 1560.71 501.687 1493.54Z" fill="#848CB8"/>
<path d="M506.866 1641.53C544.717 1592.74 723.999 1598.95 723.999 1598.95V1827.26H221.855C221.855 1827.26 260.97 1759.52 320.752 1738.58C389.311 1714.57 478.411 1777.9 523.653 1738.58C559.651 1707.3 480.096 1676.03 506.866 1641.53Z" fill="#515878"/>
<path d="M273.927 677.126C208.548 898.206 0.000610352 934.904 0.000610352 934.904V-99.6904H867.34C867.34 -99.6904 683.735 104.76 638.5 237.5C425 864 352.072 177.81 273.927 356C211.748 497.782 320.166 520.766 273.927 677.126Z" fill="#BAC4F5"/>
<path d="M193.766 319.506C147.519 414.589 -0.0010376 430.372 -0.0010376 430.372V-14.5888H613.527C613.527 -14.5888 565.736 117.427 492.694 158.236C408.928 205.038 300.064 81.6002 244.786 158.236C200.803 219.214 226.474 252.259 193.766 319.506Z" fill="#848CB8"/>
<path d="M217.134 171.142C179.283 219.927 0.000762939 213.714 0.000762939 213.714V-14.5888H502.145C502.145 -14.5888 463.03 53.1464 403.248 74.0854C334.689 98.0988 245.589 34.7644 200.347 74.0854C164.349 105.372 243.904 136.638 217.134 171.142Z" fill="#515878"/>
</g>
<defs>
<clipPath id="clip0_884_455">
<rect width="724" height="1792" fill="white"/>
</clipPath>
</defs>
</svg>
