<svg width="896" height="1815" viewBox="0 0 896 1815" fill="none" xmlns="http://www.w3.org/2000/svg">
<g clip-path="url(#clip0_859_2)">
<rect width="896" height="1815" fill="white"/>
<circle cx="417.5" cy="1940.5" r="417.5" fill="#3D415A"/>
<path d="M337.315 1677.09C175.953 1607.84 82.107 1797.95 46 1823.62C50.2163 1875.47 51.3118 1811.91 63.9605 1840.94C214.781 1947.28 609.376 2011.21 820.778 1862.72C662.645 1810.4 657.106 1705.54 534.776 1677.09C458.805 1659.41 441.682 1721.87 337.315 1677.09Z" fill="#636B92"/>
<path d="M250.094 1873.85C152.244 1901.54 106.212 1858.55 84.3168 1848.28C72.8217 1817.67 118.67 1831.66 122.502 1810.5C149.951 1797.74 142.023 1763.7 200.124 1763.7C258.225 1763.7 361.196 1728.86 427.481 1762.63C514.484 1803.35 561.894 1757.48 576.351 1747.06C580.18 1810.26 565.853 1848.01 565.853 1859.62C469.961 1880.54 395.725 1879.37 369.834 1873.85C312.299 1863.3 313.382 1855.93 250.094 1873.85Z" fill="#8B95C2"/>
<path d="M206.999 1728.5L206.499 1716.5H195.5L181.499 1715.5C181.499 1720 180.666 1725 181.499 1727.5C181.899 1728.7 186.774 1734.17 189.274 1735C191.106 1735.5 194.768 1735.5 198.265 1735.5H198.274C201.774 1735.5 204.499 1732 206.999 1728.5Z" fill="url(#paint0_linear_859_2)"/>
<path d="M205 1715.5L184.429 1717C184.429 1719.12 181.5 1714.68 181.5 1716C181.5 1716.63 186.238 1722.19 188.5 1723C191.667 1723.81 196.781 1723.49 199 1723.49C201.219 1723.49 204.856 1718.65 207 1717L205 1715.5Z" fill="#CD9763" fill-opacity="0.6"/>
<path d="M244.017 1575C251.517 1582.5 260.017 1579 265.017 1612V1645L272.517 1638.5C274.684 1638.17 279.917 1640.1 283.517 1650.5C287.117 1660.9 269.648 1668.34 261.981 1669.5C259.814 1677.5 253.548 1689.5 244.548 1697C242.807 1698.45 239.178 1701.57 234.084 1704.5C225.457 1709.46 211.06 1717.06 201 1718C197.549 1718.32 195.884 1718.06 193 1718C182.513 1717.79 169.457 1712.88 158.084 1707C154.785 1705.29 146.772 1700.12 144.084 1697C139.584 1694 126.946 1675.51 124.084 1670.5C121.917 1669.17 113.217 1668 108.017 1664C101.517 1659 104.517 1650.5 108.017 1645C110.817 1640.6 117.851 1644.33 121.017 1648V1642C119.851 1635.5 115.017 1616.8 121.017 1608C125.449 1601.5 122.437 1587.05 153.017 1575C186.017 1562 233.057 1564.04 244.017 1575Z" fill="url(#paint1_linear_859_2)" stroke="#DBA36D"/>
<path d="M224.059 1615.34C230.132 1612.5 243.526 1622.45 247.877 1627.25C243.63 1624.46 230.479 1619.52 219.777 1620.97C206.4 1622.79 218.113 1616.15 224.059 1615.34Z" fill="black" stroke="black" stroke-width="2"/>
<path d="M167.031 1616.5C160.958 1613.65 147.564 1623.61 143.213 1628.4C147.46 1625.61 160.611 1620.67 171.313 1622.12C184.69 1623.94 172.976 1617.3 167.031 1616.5Z" fill="black" stroke="black" stroke-width="2"/>
<path d="M204.086 1663C203.253 1665.83 200.586 1668.5 196.586 1668.5C192.086 1668.5 190.086 1663 190.086 1663" stroke="#DB9C7B" stroke-width="2"/>
<ellipse cx="164.086" cy="1648.5" rx="7" ry="9.5" fill="black"/>
<ellipse cx="160.586" cy="1646" rx="1.5" ry="3" fill="white"/>
<ellipse cx="230" cy="1646.5" rx="7" ry="9.5" fill="black"/>
<ellipse cx="226.5" cy="1644" rx="1.5" ry="3" fill="white"/>
<ellipse cx="3" cy="1.5" rx="3" ry="1.5" transform="matrix(-1 0 0 1 200.086 1661)" fill="white"/>
<path d="M122.086 1661.87C121.253 1658.04 119.086 1651.5 116.086 1650.5C111.086 1649.5 109.586 1652.83 109.586 1655C109.586 1657 109.886 1659.5 113.086 1659.5C116.286 1659.5 116.253 1657.17 116.086 1656" stroke="#DBA36D"/>
<path d="M264.586 1660.56C265.419 1656.72 267.586 1650.18 270.586 1649.18C275.586 1648.18 277.086 1651.52 277.086 1653.68C277.086 1655.68 276.786 1658.18 273.586 1658.18C270.386 1658.18 270.419 1655.85 270.586 1654.68" stroke="#DBA36D"/>
<ellipse cx="4.5" cy="1.5" rx="4.5" ry="1.5" transform="matrix(-1 0 0 1 201.109 1670.22)" fill="#DFA874"/>
<path d="M193.687 1695.5C205.701 1697.39 213.103 1685.5 215.687 1679L200.687 1680.5H196.437H192.187L178.188 1679C179.021 1683.17 182.939 1693.81 193.687 1695.5Z" fill="#D73C3C" stroke="#DF6157" stroke-width="2"/>
<path d="M212.687 1682L180.188 1681.5C182.095 1685.4 182.783 1687.15 185.187 1689.5C194.79 1683.04 203.521 1687.06 207.687 1689C209.721 1686.89 210.801 1685.24 212.687 1682Z" fill="#310505"/>
<path d="M214.187 1680.41C195.787 1682.05 183.354 1680.82 179.688 1680C180.887 1682.62 181.687 1682 182.687 1682.5C183.687 1683 211.495 1685.11 214.187 1680.41Z" fill="white" stroke="white"/>
<path d="M241.688 1588.5C225.688 1611.98 136.688 1600 129.188 1613.19C121.688 1626.39 120.687 1632 123.164 1653.5C120.364 1656.3 114.188 1630.48 110.688 1619.48C110.28 1618.19 101.374 1617.67 98.6878 1613.19C95.6878 1608.19 92.6878 1603.5 92.6878 1594.5C92.6878 1591 96.1878 1573.5 108.188 1562.48C128.021 1540.13 183.388 1504.76 246.188 1541.98C262.188 1545.48 301.687 1565.8 285.687 1603L272.688 1615.5C266.187 1634.52 266.688 1647.17 263.188 1649V1630.5C263.188 1621.5 262.688 1614.5 262.688 1614.5C253.854 1608.83 263.188 1598.5 241.688 1588.5Z" fill="url(#paint2_linear_859_2)"/>
<path d="M294 1682.01C282.35 1692 257.333 1703.67 241 1718.5L250.5 1745.01C269.167 1727.68 305.8 1692.31 303 1689.51C308.5 1683.01 297.5 1679.01 294 1682.01Z" fill="#F8CEA6" stroke="#DFA874"/>
<path d="M295.698 1684.07L299.17 1688.45L302.13 1690.39C308.802 1687.29 321.737 1679.13 320.096 1671.3C318.044 1661.51 309.441 1664.33 307.483 1664.75C305.917 1665.07 303.342 1669.36 302.25 1671.46C301.84 1669.5 297.796 1664.83 295.92 1665.64C293.576 1666.64 299.416 1672.57 296.298 1674.75C293.804 1676.5 295.469 1680.55 295.698 1684.07Z" fill="#F8CEA6" stroke="#F8CEA6"/>
<path d="M89.5156 1815C101.116 1812.6 139.182 1783.33 155.516 1768.5L133.016 1752C114.349 1769.33 77.7156 1804.7 80.5156 1807.5C75.0156 1814 86.0156 1818 89.5156 1815Z" fill="#F8CEA6" stroke="#DFA874"/>
<path d="M90.4742 1810.34L87.0017 1805.96L84.0421 1804.03C77.3697 1807.13 64.4352 1815.29 66.0762 1823.12C68.1275 1832.9 76.731 1830.08 78.6884 1829.67C80.2544 1829.34 82.83 1825.05 83.922 1822.95C84.3323 1824.91 88.3762 1829.58 90.2516 1828.78C92.5959 1827.78 86.7556 1821.85 89.8735 1819.66C92.3678 1817.91 90.7028 1813.87 90.4742 1810.34Z" fill="#F8CEA6" stroke="#F8CEA6"/>
<path d="M144.923 1739.69C152.515 1733.85 176.5 1725 180.5 1726C178.506 1732.7 195.588 1736.47 200.421 1736.17C206.034 1735.82 206.847 1725.11 212.408 1723.89C221 1722 221 1720 230.5 1719C236.5 1715.5 244.352 1713.62 249 1711C249 1711 252.507 1735.26 259.5 1736.17C266.492 1737.08 241.5 1764 241.5 1764C242.926 1779.17 243.066 1804.49 240.5 1817.5C236.287 1826.5 235.101 1826.33 233 1827.5C207.876 1838.48 184.128 1836.51 157.5 1827.5C155.189 1826.72 152.112 1823.5 150.583 1819C147.67 1810.43 150.406 1791.38 150.583 1776.56C148.516 1778.25 146.079 1779.77 139.282 1783.41C139.851 1777.57 135.709 1771.32 124.5 1756.5C129.921 1751.36 131.725 1747.76 144.923 1739.69Z" fill="white"/>
<path d="M144.923 1739.69C152.515 1733.85 176.5 1725 180.5 1726C178.506 1732.7 195.588 1736.47 200.421 1736.17C206.034 1735.82 206.847 1725.11 212.408 1723.89C221 1722 221 1720 230.5 1719M144.923 1739.69C131.725 1747.76 129.921 1751.36 124.5 1756.5C135.709 1771.32 139.851 1777.57 139.282 1783.41C146.079 1779.77 148.516 1778.25 150.583 1776.56M144.923 1739.69C143.069 1744.05 150.782 1759.84 150.583 1776.56M230.5 1719C236.5 1715.5 244.352 1713.62 249 1711C249 1711 252.507 1735.26 259.5 1736.17C266.492 1737.08 241.5 1764 241.5 1764M230.5 1719C230.5 1724.94 240.169 1749.85 241.5 1764M241.5 1764C242.926 1779.17 243.066 1804.49 240.5 1817.5C236.287 1826.5 235.101 1826.33 233 1827.5C207.876 1838.48 184.128 1836.51 157.5 1827.5C155.189 1826.72 152.112 1823.5 150.583 1819C147.67 1810.43 150.406 1791.38 150.583 1776.56" stroke="#EEEEEE" stroke-opacity="0.933333"/>
<path d="M200.46 1736H192.166C191.148 1739.86 186.371 1774.48 187.069 1775.74C187.502 1776.52 191.293 1785.42 194.786 1787C197.841 1784.9 201.77 1780.16 204 1775.74L200.46 1736Z" fill="url(#paint3_linear_859_2)"/>
<path d="M211.894 1724.06L206.998 1722C207.998 1729 204.998 1734 196.456 1735.56C184.456 1734.76 180.331 1726.5 180.998 1723C178.831 1723 178.157 1724.5 176.498 1725.5C174.498 1739.1 182.956 1742.39 185.956 1743.06L196.456 1735.56C200.456 1738.56 208.956 1744.26 208.956 1743.06C214.956 1739.06 213.727 1729.39 211.894 1724.06Z" fill="white"/>
<path d="M196.456 1735.56C200.456 1738.56 208.956 1744.26 208.956 1743.06C214.956 1739.06 213.727 1729.39 211.894 1724.06L206.998 1722C207.998 1729 204.998 1734 196.456 1735.56ZM196.456 1735.56L185.956 1743.06C182.956 1742.39 174.498 1739.1 176.498 1725.5C178.157 1724.5 178.831 1723 180.998 1723C180.331 1726.5 184.456 1734.76 196.456 1735.56Z" stroke="#D9D9D9"/>
<path d="M233 1752H213V1772.93C215.555 1776.15 217.905 1777.64 220.692 1777.88C222.848 1778.07 225.471 1778.13 227.359 1777.33C229.691 1776.35 231.683 1774.21 233 1772.93V1752Z" stroke="#D9D9D9"/>
<g clip-path="url(#clip1_859_2)">
<path d="M522 1626C537.667 1636.33 575.5 1650.8 601.5 1626" stroke="#C60000" stroke-width="2"/>
</g>
</g>
<defs>
<linearGradient id="paint0_linear_859_2" x1="195.151" y1="1715.5" x2="195.151" y2="1735.5" gradientUnits="userSpaceOnUse">
<stop stop-color="#F8CEA6"/>
<stop offset="1" stop-color="#FCC48E"/>
</linearGradient>
<linearGradient id="paint1_linear_859_2" x1="194.093" y1="1566" x2="127" y2="1684.5" gradientUnits="userSpaceOnUse">
<stop stop-color="#F8CEA6"/>
<stop offset="0.713542" stop-color="#F7CCA4"/>
<stop offset="1" stop-color="#FFC38A"/>
</linearGradient>
<linearGradient id="paint2_linear_859_2" x1="191.059" y1="1525.74" x2="191.059" y2="1653.77" gradientUnits="userSpaceOnUse">
<stop stop-color="#252525"/>
<stop offset="1"/>
</linearGradient>
<linearGradient id="paint3_linear_859_2" x1="195.488" y1="1736" x2="195.488" y2="1749.84" gradientUnits="userSpaceOnUse">
<stop stop-color="#8A0202"/>
<stop offset="1" stop-color="#D73C3C"/>
</linearGradient>
<clipPath id="clip0_859_2">
<rect width="896" height="1815" fill="white"/>
</clipPath>
<clipPath id="clip1_859_2">
<rect width="727" height="674" fill="white" transform="translate(292 1296)"/>
</clipPath>
</defs>
</svg>
