<svg width="625" height="508" viewBox="0 0 625 508" fill="none" xmlns="http://www.w3.org/2000/svg">
<circle cx="309" cy="281" r="225" fill="#B5B5F0"/>
<circle cx="309" cy="281" r="200" fill="url(#paint0_linear_430_2)"/>
<path d="M456.95 266.931C456.419 248.913 448.762 265.763 445 276.44C456.685 265.629 447.656 319.982 445 339L450.975 323.485C453.631 310.139 457.482 284.948 456.95 266.931Z" fill="#363A50" stroke="#363A50" stroke-width="5"/>
<path d="M400 353.448C386.4 338.248 373.667 353.448 369 362.948C426.6 342.148 391.667 380.948 367 402.948H372.5C387.7 404.148 403.5 400.782 409.5 398.948H377C390.333 390.115 413.6 368.648 400 353.448Z" fill="#363A50" stroke="#363A50" stroke-width="4"/>
<path d="M335 311.859L345.5 398.359C347.5 377.559 342.667 334.359 340 315.359L409.5 318.359L400 246.859L503.5 241.859C474.3 233.059 417.333 238.192 392.5 241.859L404.5 311.859H335Z" fill="#D9D9D9"/>
<path d="M504.193 184.633C511.796 174.929 538.569 159.078 584.846 173.306C581.294 187.244 560.191 209.024 504.193 184.633C524.252 195.174 529.575 197.552 540.795 217.692C590.958 197.157 620.485 221.409 624.047 230.088C600.577 241.729 563.097 237.348 544.245 221.042C546.069 223.313 548.882 228.164 553.611 239.831C553.611 239.831 555.971 248.53 557.343 254.267C567.509 251.298 598.614 266.118 612.406 281.871C597.874 288.394 562.111 279.845 557.71 256.99C559.29 268.443 562.393 288.79 561.346 297.679C568.686 295.697 588.325 303.843 594.279 335.701C588.479 338.395 570.997 331.246 561.346 297.679C559.496 313.383 558.374 331.052 553.005 339.502C561.04 351.141 540.567 374.143 536.164 378.253C527.356 361.975 548.28 341.679 553.005 339.502C556.385 326.947 558.136 309.717 557.272 291.779C554.716 318.167 531.349 325.744 519.985 326.234C524.994 310.624 546.931 296.76 557.272 291.779C556.673 279.334 554.815 266.548 551.37 254.745C548.471 280.563 522.833 291.256 510.376 293.375C517.587 272.842 540.71 259.066 551.37 254.745C548.319 244.293 544.024 234.612 538.256 226.62C537.483 225.549 536.491 224.323 535.258 222.969C544 238.548 519.349 258.165 503.192 267.348C507.029 245.256 519.743 222.707 525.621 214.194C517.659 207.98 506.065 200.834 489.85 194.119C513.654 213.108 492.741 250.829 479.309 267.315C468.822 229.258 481.967 202.661 489.85 194.119C471.457 185.27 435.325 163.865 440.825 129.865L462.326 149.865L489.173 173.551L504.193 184.633Z" fill="#363A50"/>
<path d="M520.453 147.586C504.894 125.594 489.27 126.059 483.403 129.041C494.916 132.304 504.049 144.18 507.176 149.711C493.389 134.736 483.418 131.106 480.156 131.163C489.513 174.71 520.791 168.483 535.26 159.927C531.362 158.822 522.944 154.808 520.453 147.586Z" fill="url(#paint1_linear_430_2)"/>
<path d="M494.898 95.6026C495.03 105.844 488.929 113.862 485.862 116.59C492.295 117.236 505.296 106.366 510.993 100.851C508.794 105.722 498.084 113.742 493.004 117.142C523.145 119.562 526.662 95.4142 524.653 83.038C519.772 87.2276 514.065 87.854 511.822 87.6435C506.126 86.0292 494.766 85.361 494.898 95.6026Z" fill="url(#paint2_linear_430_2)"/>
<path d="M493.17 65.7756C499.549 113.66 480.716 122 470.502 120.185C462.307 115.429 471.098 97.7537 476.518 89.5107C468.085 100.543 464.909 113.203 464.375 118.154C461.236 116.12 455.324 110.055 456.792 102.072C457.869 87.1494 481.492 71.6566 493.17 65.7756Z" fill="url(#paint3_linear_430_2)"/>
<circle cx="410" cy="75" r="75" fill="white"/>
<path d="M395.58 132.724C395.58 132.724 407.307 97.7155 428.588 87.481C449.869 77.2465 420.784 97.7435 427.739 103.223L467.338 109.359C445.109 107.712 428.83 113.897 395.58 132.724Z" fill="#B5B5F0"/>
<path d="M386.867 93C386.867 93 391.24 68.3713 382.805 55.2079C374.37 42.0446 383.898 63.886 378.431 64.8047L355 55.2079C367.601 61.6587 374.559 70.7554 386.867 93Z" fill="#B5B5F0"/>
<path d="M386.735 103.724C377.814 84.1792 362.5 76 355 83.5C364.664 89.2486 383.534 113.305 390.761 126C394.5 111 435.466 54.2628 462 32.9452C428.549 20.0109 397.885 74.742 386.735 103.724Z" fill="#363A50"/>
<path d="M91.2857 151.586C106.845 129.594 122.468 130.059 128.335 133.041C116.822 136.304 107.69 148.18 104.562 153.711C118.349 138.736 128.32 135.106 131.582 135.163C122.225 178.71 90.9476 172.483 76.4785 163.927C80.3759 162.822 88.7938 158.808 91.2857 151.586Z" fill="url(#paint4_linear_430_2)"/>
<path d="M116.84 99.6026C116.708 109.844 122.809 117.862 125.876 120.59C119.443 121.236 106.442 110.366 100.746 104.851C102.944 109.722 113.654 117.742 118.734 121.142C88.593 123.562 85.076 99.4142 87.0851 87.038C91.9668 91.2276 97.6732 91.854 99.9163 91.6435C105.613 90.0292 116.972 89.361 116.84 99.6026Z" fill="url(#paint5_linear_430_2)"/>
<path d="M118.569 69.7756C112.189 117.66 131.022 126 141.236 124.185C149.431 119.429 140.64 101.754 135.22 93.5107C143.654 104.543 146.829 117.203 147.363 122.154C150.503 120.12 156.415 114.055 154.946 106.072C153.87 91.1494 130.246 75.6566 118.569 69.7756Z" fill="url(#paint6_linear_430_2)"/>
<path d="M109.286 425.97C124.845 447.962 140.468 447.496 146.335 444.515C134.822 441.252 125.69 429.376 122.562 423.845C136.349 438.82 146.32 442.45 149.582 442.393C140.225 398.846 108.948 405.073 94.4785 413.629C98.3759 414.734 106.794 418.748 109.286 425.97Z" fill="url(#paint7_linear_430_2)"/>
<path d="M134.84 477.953C134.708 467.712 140.809 459.694 143.876 456.966C137.443 456.32 124.442 467.19 118.746 472.705C120.944 467.834 131.654 459.814 136.734 456.414C106.593 453.994 103.076 478.142 105.085 490.518C109.967 486.328 115.673 485.702 117.916 485.912C123.613 487.527 134.972 488.195 134.84 477.953Z" fill="url(#paint8_linear_430_2)"/>
<path d="M136.569 507.78C130.189 459.896 149.022 451.556 159.236 453.371C167.431 458.127 158.64 475.802 153.22 484.045C161.654 473.013 164.829 460.353 165.363 455.402C168.503 457.436 174.415 463.501 172.946 471.484C171.87 486.407 148.246 501.899 136.569 507.78Z" fill="url(#paint9_linear_430_2)"/>
<path d="M514.453 421.97C498.894 443.962 483.27 443.496 477.403 440.515C488.916 437.252 498.049 425.376 501.176 419.845C487.389 434.82 477.418 438.45 474.156 438.393C483.513 394.846 514.791 401.073 529.26 409.629C525.362 410.734 516.944 414.748 514.453 421.97Z" fill="url(#paint10_linear_430_2)"/>
<path d="M488.898 473.953C489.03 463.712 482.929 455.694 479.862 452.966C486.295 452.32 499.296 463.19 504.993 468.705C502.794 463.834 492.084 455.814 487.004 452.414C517.145 449.994 520.662 474.142 518.653 486.518C513.772 482.328 508.065 481.702 505.822 481.912C500.126 483.527 488.766 484.195 488.898 473.953Z" fill="url(#paint11_linear_430_2)"/>
<path d="M487.17 503.78C493.549 455.896 474.716 447.556 464.502 449.371C456.307 454.127 465.098 471.802 470.518 480.045C462.085 469.013 458.909 456.353 458.375 451.402C455.236 453.436 449.324 459.501 450.792 467.484C451.869 482.407 475.492 497.899 487.17 503.78Z" fill="url(#paint12_linear_430_2)"/>
<path d="M120.132 382.732C112.53 392.436 85.7562 408.287 39.4791 394.059C43.0311 380.12 64.1346 358.341 120.132 382.732C100.073 372.191 94.7504 369.813 83.5301 349.673C33.3676 370.208 3.83983 345.956 0.277801 337.277C23.7477 325.636 61.2278 330.017 80.0805 346.323C78.2566 344.052 75.4431 339.201 70.7145 327.534C70.7145 327.534 68.3542 318.835 66.9824 313.098C56.8158 316.066 25.7117 301.247 11.9194 285.494C26.4514 278.97 62.214 287.52 66.6149 310.375C65.035 298.922 61.9321 278.575 62.9793 269.686C55.639 271.668 36.0004 263.522 30.0464 231.664C35.8465 228.97 53.3287 236.119 62.9793 269.686C64.8292 253.982 65.9511 236.313 71.3201 227.863C63.2849 216.224 83.7585 193.222 88.1615 189.112C96.9693 205.39 76.0449 225.686 71.3201 227.863C67.94 240.418 66.189 257.648 67.0529 275.586C69.6091 249.197 92.9764 241.621 104.341 241.131C99.3308 256.741 77.3947 270.605 67.0529 275.586C67.6522 288.031 69.5099 300.816 72.9552 312.62C75.8538 286.802 101.493 276.109 113.95 273.99C106.738 294.523 83.6152 308.299 72.9552 312.62C76.0058 323.071 80.301 332.753 86.0692 340.745C86.8418 341.816 87.834 343.042 89.067 344.396C80.3257 328.817 104.977 309.2 121.133 300.017C117.296 322.108 104.582 344.658 98.7045 353.171C106.666 359.385 118.261 366.531 134.475 373.246C110.672 354.256 131.585 316.536 145.017 300.05C155.504 338.107 142.358 364.704 134.475 373.246C152.868 382.095 189 403.5 183.5 437.5L162 417.5L135.152 393.814L120.132 382.732Z" fill="#363A50"/>
<path d="M261.845 361.596L261.221 347.534H247.51L230.058 346.362C230.058 351.635 229.019 357.494 230.058 360.424C230.557 361.83 236.633 368.236 239.749 369.212C242.033 369.798 246.598 369.798 250.958 369.798H250.968C255.331 369.798 258.728 365.697 261.845 361.596Z" fill="url(#paint13_linear_430_2)"/>
<path d="M259.351 346.362L233.708 348.12C233.708 350.605 230.058 345.398 230.058 346.948C230.057 347.689 235.963 354.2 238.783 355.151C242.732 356.102 249.106 355.728 251.872 355.728C254.638 355.728 259.172 350.053 261.845 348.12L259.351 346.362Z" fill="#CD9763" fill-opacity="0.6"/>
<path d="M307.988 181.727C317.337 190.515 327.933 186.414 334.166 225.083V263.752L343.515 256.136C346.216 255.745 352.739 258.011 357.227 270.197C361.715 282.384 339.938 291.096 330.381 292.463C327.68 301.837 319.868 315.897 308.649 324.686C306.479 326.385 301.956 330.039 295.606 333.473C284.852 339.287 266.906 348.187 254.365 349.292C250.064 349.671 247.988 349.361 244.393 349.292C231.321 349.042 215.045 343.295 200.868 336.402C196.756 334.403 186.768 328.34 183.417 324.686C177.807 321.17 162.054 299.502 158.486 293.632C155.785 292.069 144.94 290.704 138.458 286.017C130.356 280.158 134.095 270.197 138.458 263.752C141.948 258.597 150.716 262.97 154.663 267.266V260.237C153.209 252.62 147.184 230.708 154.663 220.396C160.188 212.779 156.433 195.843 194.553 181.727C235.689 166.494 294.326 168.884 307.988 181.727Z" fill="url(#paint14_linear_430_2)"/>
<path d="M283.106 228.998C290.676 225.667 307.373 237.332 312.796 242.947C307.502 239.68 291.109 233.889 277.768 235.592C261.093 237.721 275.694 229.944 283.106 228.998Z" fill="black"/>
<path d="M212.02 230.35C204.45 227.018 187.753 238.683 182.33 244.298C187.624 241.032 204.017 235.241 217.358 236.944C234.033 239.072 219.431 231.296 212.02 230.35Z" fill="black"/>
<path d="M217.074 267.852C217.074 274 213.167 278.984 208.348 278.984C203.529 278.984 199.622 274 199.622 267.852C199.622 261.704 203.529 256.72 208.348 256.72C213.167 256.72 217.074 261.704 217.074 267.852Z" fill="black"/>
<path d="M205.855 264.923C205.855 266.864 205.017 268.438 203.985 268.438C202.952 268.438 202.115 266.864 202.115 264.923C202.115 262.981 202.952 261.407 203.985 261.407C205.017 261.407 205.855 262.981 205.855 264.923Z" fill="white"/>
<path d="M299.241 265.509C299.241 271.657 295.334 276.641 290.515 276.641C285.696 276.641 281.789 271.657 281.789 265.509C281.789 259.361 285.696 254.377 290.515 254.377C295.334 254.377 299.241 259.361 299.241 265.509Z" fill="black"/>
<path d="M288.022 262.579C288.022 264.521 287.185 266.095 286.152 266.095C285.12 266.095 284.282 264.521 284.282 262.579C284.282 260.638 285.12 259.064 286.152 259.064C287.185 259.064 288.022 260.638 288.022 262.579Z" fill="white"/>
<path d="M245.744 284.257C245.744 285.228 247.418 286.015 249.484 286.015C251.549 286.015 253.223 285.228 253.223 284.257C253.223 283.287 251.549 282.5 249.484 282.5C247.418 282.5 245.744 283.287 245.744 284.257Z" fill="white"/>
<path d="M243.28 295.06C243.28 296.031 245.792 296.818 248.89 296.818C251.988 296.818 254.499 296.031 254.499 295.06C254.499 294.089 251.988 293.302 248.89 293.302C245.792 293.302 243.28 294.089 243.28 295.06Z" fill="#DFA874"/>
<path d="M245.249 322.927C260.224 325.142 269.451 311.205 272.673 303.592L253.975 305.35H243.379L225.927 303.592C226.966 308.474 231.85 320.944 245.249 322.927Z" fill="#D73C3C"/>
<path d="M268.933 307.107L228.42 306.521C230.799 311.087 231.656 313.145 234.653 315.896C246.623 308.331 257.506 313.032 262.7 315.31C265.236 312.841 266.581 310.901 268.933 307.107Z" fill="#310505"/>
<path d="M270.803 305.243C247.866 307.162 232.368 305.723 227.797 304.764C229.293 307.834 230.29 307.107 231.537 307.693C232.783 308.279 267.446 310.755 270.803 305.243Z" fill="white"/>
<path d="M305.083 197.545C285.138 225.054 174.196 211.02 164.846 226.481C155.497 241.943 154.25 248.518 157.338 273.711C153.847 276.992 146.148 246.732 141.785 233.842C141.277 232.34 130.175 231.727 126.827 226.481C123.087 220.622 119.348 215.122 119.348 204.576C119.348 200.474 123.711 179.968 138.669 167.05C163.393 140.87 232.41 99.4147 310.693 143.028C330.637 147.129 379.875 170.945 359.931 214.536L343.726 229.183C335.623 251.475 336.247 266.29 331.884 268.438V246.76C331.884 236.214 331.26 228.011 331.26 228.011C320.249 221.371 331.884 209.263 305.083 197.545Z" fill="url(#paint15_linear_430_2)"/>
<path d="M370.294 307.124C355.771 318.825 324.587 332.496 304.227 349.878L316.069 380.947C339.338 360.636 385.003 319.193 381.513 315.912C388.369 308.295 374.657 303.608 370.294 307.124Z" fill="#F8CEA6"/>
<path d="M372.409 309.538L376.738 314.671L380.427 316.937C388.744 313.303 404.868 303.741 402.822 294.566C400.265 283.097 389.541 286.407 387.101 286.888C385.149 287.273 381.938 292.295 380.577 294.758C380.065 292.465 375.024 286.993 372.687 287.932C369.764 289.106 377.044 296.053 373.158 298.615C370.049 300.664 372.124 305.403 372.409 309.538Z" fill="#F8CEA6"/>
<path d="M115.392 462.956C129.852 460.144 177.304 425.849 197.664 408.467L169.617 389.133C146.348 409.444 100.683 450.886 104.173 454.167C97.3174 461.784 111.029 466.471 115.392 462.956Z" fill="#F8CEA6"/>
<path d="M116.591 457.496L112.262 452.363L108.573 450.096C100.256 453.73 84.1321 463.292 86.1777 472.467C88.7347 483.936 99.4593 480.626 101.899 480.145C103.851 479.76 107.062 474.738 108.423 472.275C108.935 474.569 113.976 480.041 116.313 479.101C119.236 477.927 111.956 470.98 115.842 468.419C118.951 466.369 116.876 461.63 116.591 457.496Z" fill="#F8CEA6"/>
<path d="M184.463 374.711C193.926 367.859 223.825 357.494 228.811 358.666C226.325 366.513 247.619 370.938 253.644 370.584C260.64 370.173 261.654 357.621 268.586 356.19C279.296 353.979 279.296 351.635 291.138 350.464C298.618 346.362 308.406 344.158 314.2 341.089C314.2 341.089 318.572 369.513 327.288 370.584C336.005 371.654 304.85 403.194 304.85 403.194C306.628 420.966 306.802 450.635 303.604 465.885C298.352 476.431 293.619 479.751 291 481.119C255 478.5 213.5 459 205.5 454.167C202.619 453.251 194.906 450.773 193 445.5C189.369 435.456 191.298 435.275 191.518 417.912C188.942 419.889 185.904 421.673 177.431 425.942C178.141 419.093 172.977 411.766 159.004 394.406C165.762 388.385 168.01 384.162 184.463 374.711Z" fill="white"/>
<path d="M253.692 370.384H243.354C242.084 374.902 236.13 415.473 237 416.952C237.539 417.867 242.266 428.297 246.619 430.146C250.428 427.681 255.325 422.136 258.105 416.952L253.692 370.384Z" fill="url(#paint16_linear_430_2)"/>
<path d="M267.947 356.389L261.845 353.979C263.091 362.182 259.351 368.041 248.703 369.865C233.745 368.928 228.603 359.252 229.434 355.151C226.733 355.151 225.893 356.908 223.825 358.08C221.332 374.017 231.875 377.872 235.615 378.654L248.703 369.865C253.69 373.38 264.285 380.06 264.285 378.654C271.764 373.966 270.233 362.639 267.947 356.389Z" fill="white"/>
<defs>
<linearGradient id="paint0_linear_430_2" x1="109" y1="281" x2="413.5" y2="481" gradientUnits="userSpaceOnUse">
<stop stop-color="#6F79A2"/>
<stop offset="0.505208" stop-color="#373F61"/>
<stop offset="0.946932" stop-color="#717CA5"/>
</linearGradient>
<linearGradient id="paint1_linear_430_2" x1="621.981" y1="149.13" x2="362.739" y2="127.155" gradientUnits="userSpaceOnUse">
<stop stop-color="#363A50"/>
<stop offset="0.607257" stop-color="#AAAAE2"/>
</linearGradient>
<linearGradient id="paint2_linear_430_2" x1="621.981" y1="149.13" x2="362.739" y2="127.155" gradientUnits="userSpaceOnUse">
<stop stop-color="#363A50"/>
<stop offset="0.607257" stop-color="#AAAAE2"/>
</linearGradient>
<linearGradient id="paint3_linear_430_2" x1="621.981" y1="149.13" x2="362.739" y2="127.155" gradientUnits="userSpaceOnUse">
<stop stop-color="#363A50"/>
<stop offset="0.607257" stop-color="#AAAAE2"/>
</linearGradient>
<linearGradient id="paint4_linear_430_2" x1="-10.2424" y1="153.13" x2="248.999" y2="131.155" gradientUnits="userSpaceOnUse">
<stop stop-color="#363A50"/>
<stop offset="0.607257" stop-color="#AAAAE2"/>
</linearGradient>
<linearGradient id="paint5_linear_430_2" x1="-10.2424" y1="153.13" x2="248.999" y2="131.155" gradientUnits="userSpaceOnUse">
<stop stop-color="#363A50"/>
<stop offset="0.607257" stop-color="#AAAAE2"/>
</linearGradient>
<linearGradient id="paint6_linear_430_2" x1="-10.2424" y1="153.13" x2="248.999" y2="131.155" gradientUnits="userSpaceOnUse">
<stop stop-color="#363A50"/>
<stop offset="0.607257" stop-color="#AAAAE2"/>
</linearGradient>
<linearGradient id="paint7_linear_430_2" x1="7.75764" y1="424.426" x2="266.999" y2="446.401" gradientUnits="userSpaceOnUse">
<stop stop-color="#363A50"/>
<stop offset="0.607257" stop-color="#AAAAE2"/>
</linearGradient>
<linearGradient id="paint8_linear_430_2" x1="7.75764" y1="424.426" x2="266.999" y2="446.401" gradientUnits="userSpaceOnUse">
<stop stop-color="#363A50"/>
<stop offset="0.607257" stop-color="#AAAAE2"/>
</linearGradient>
<linearGradient id="paint9_linear_430_2" x1="7.75764" y1="424.426" x2="266.999" y2="446.401" gradientUnits="userSpaceOnUse">
<stop stop-color="#363A50"/>
<stop offset="0.607257" stop-color="#AAAAE2"/>
</linearGradient>
<linearGradient id="paint10_linear_430_2" x1="615.981" y1="420.426" x2="356.739" y2="442.401" gradientUnits="userSpaceOnUse">
<stop stop-color="#363A50"/>
<stop offset="0.607257" stop-color="#AAAAE2"/>
</linearGradient>
<linearGradient id="paint11_linear_430_2" x1="615.981" y1="420.426" x2="356.739" y2="442.401" gradientUnits="userSpaceOnUse">
<stop stop-color="#363A50"/>
<stop offset="0.607257" stop-color="#AAAAE2"/>
</linearGradient>
<linearGradient id="paint12_linear_430_2" x1="615.981" y1="420.426" x2="356.739" y2="442.401" gradientUnits="userSpaceOnUse">
<stop stop-color="#363A50"/>
<stop offset="0.607257" stop-color="#AAAAE2"/>
</linearGradient>
<linearGradient id="paint13_linear_430_2" x1="257.818" y1="124" x2="257.818" y2="481.119" gradientUnits="userSpaceOnUse">
<stop stop-color="#F8CEA6"/>
<stop offset="1" stop-color="#FCC48E"/>
</linearGradient>
<linearGradient id="paint14_linear_430_2" x1="244.5" y1="124" x2="421.041" y2="358.208" gradientUnits="userSpaceOnUse">
<stop stop-color="#F8CEA6"/>
<stop offset="0.713542" stop-color="#F7CCA4"/>
<stop offset="1" stop-color="#FFC38A"/>
</linearGradient>
<linearGradient id="paint15_linear_430_2" x1="244.5" y1="124" x2="244.5" y2="481.295" gradientUnits="userSpaceOnUse">
<stop stop-color="#252525"/>
<stop offset="1"/>
</linearGradient>
<linearGradient id="paint16_linear_430_2" x1="244.273" y1="124" x2="244.273" y2="220.925" gradientUnits="userSpaceOnUse">
<stop stop-color="#8A0202"/>
<stop offset="1" stop-color="#D73C3C"/>
</linearGradient>
</defs>
</svg>
