<svg width="100" height="100" viewBox="0 0 100 100" fill="none" xmlns="http://www.w3.org/2000/svg">
<g clip-path="url(#clip0_770_29)">
<rect width="100" height="100" rx="50" fill="white"/>
<circle cx="49.5" cy="4.5" r="16.5" fill="#DBF2FF"/>
<circle cx="49.5" cy="4.5" r="16.5" fill="#DBF2FF"/>
<circle cx="49.5" cy="4.5" r="16.5" fill="#B5B5F0"/>
<circle cx="49.5" cy="96.5" r="16.5" fill="#DBF2FF"/>
<circle cx="49.5" cy="96.5" r="16.5" fill="#DBF2FF"/>
<circle cx="49.5" cy="96.5" r="16.5" fill="#B5B5F0"/>
<path d="M21.44 67.08C20.2133 67.08 19.2133 66.7067 18.44 65.96C17.6667 65.2133 17.28 64.2667 17.28 63.12V41.96C17.28 40.7867 17.6533 39.8 18.4 39C19.1733 38.2 20.1867 37.8 21.44 37.8C22.7733 37.8 23.8133 38.2 24.56 39C25.3333 39.7733 25.72 40.7333 25.72 41.88V63.12C25.72 64.2667 25.3067 65.2133 24.48 65.96C23.68 66.7067 22.6667 67.08 21.44 67.08ZM77.5569 67C76.2235 67 75.1702 66.6 74.3969 65.8C73.6235 64.9733 73.2102 63.9067 73.1569 62.6C73.0502 60.3333 72.4769 58.7333 71.4369 57.8C70.4235 56.84 69.0635 56.36 67.3569 56.36H66.5569V62.76C66.5569 64.1467 66.1835 65.2 65.4369 65.92C64.6902 66.64 63.7035 67 62.4769 67C61.1702 67 60.1435 66.64 59.3969 65.92C58.6502 65.2 58.2769 64.1467 58.2769 62.76V57.12C58.2769 54.2933 58.6902 52.1467 59.5169 50.68C60.3702 49.2133 61.4502 48.16 62.7569 47.52L62.5569 46.76H61.9169C60.6902 46.76 59.7169 46.3733 58.9969 45.6C58.3035 44.8 57.9302 43.72 57.8769 42.36C57.8502 41.0267 58.2102 39.9467 58.9569 39.12C59.7035 38.2933 60.6902 37.88 61.9169 37.88H72.1169C74.9702 37.88 77.2769 38.5733 79.0369 39.96C80.7969 41.3467 81.6769 43.56 81.6769 46.6C81.6769 48.1733 81.4102 49.4933 80.8769 50.56C80.3435 51.6 79.6635 52.4 78.8369 52.96C78.0102 53.52 77.1435 53.8533 76.2369 53.96V54.48C77.8902 54.88 79.2502 55.76 80.3169 57.12C81.4102 58.48 81.9569 60.3067 81.9569 62.6C81.9569 64.0667 81.5569 65.1733 80.7569 65.92C79.9835 66.64 78.9169 67 77.5569 67ZM66.3569 50.24C66.3569 50.8267 66.4635 51.2133 66.6769 51.4C66.8902 51.5867 67.2902 51.68 67.8769 51.68H71.6369C72.7569 51.68 73.5702 51.4267 74.0769 50.92C74.5835 50.4133 74.8369 49.7067 74.8369 48.8C74.8369 47.8667 74.5835 47.1467 74.0769 46.64C73.5702 46.1333 72.7569 45.88 71.6369 45.88H67.8769C67.2902 45.88 66.8902 45.96 66.6769 46.12C66.4635 46.28 66.3569 46.6667 66.3569 47.28V50.24Z" fill="#3B3F55"/>
<path d="M39.1756 48.96L45.1756 40.48C46.2423 38.96 47.4023 38.1067 48.6556 37.92C49.909 37.7067 51.0423 38 52.0556 38.8C52.7223 39.3067 53.1623 39.9867 53.3756 40.84C53.589 41.6933 53.5223 42.6 53.1756 43.56C52.829 44.52 52.1356 45.4267 51.0956 46.28L44.4156 51.68V52.52C45.269 52.52 46.269 52.6267 47.4156 52.84C48.5623 53.0533 49.6023 53.5333 50.5356 54.28C51.2823 54.84 51.9223 55.48 52.4556 56.2C53.0156 56.92 53.4556 57.8133 53.7756 58.88C54.0956 59.92 54.2556 61.24 54.2556 62.84C54.2556 64.1467 53.8956 65.2 53.1756 66C52.4823 66.7733 51.4423 67.16 50.0556 67.16C48.669 67.16 47.6023 66.7733 46.8556 66C46.1356 65.2 45.7756 64.1467 45.7756 62.84C45.7756 61.3733 45.5356 60.2133 45.0556 59.36C44.6023 58.48 43.989 57.84 43.2156 57.44C42.4423 57.04 41.6023 56.84 40.6956 56.84H38.7356V63.12C38.7356 64.2667 38.3356 65.2133 37.5356 65.96C36.7623 66.7067 35.7623 67.08 34.5356 67.08C33.309 67.08 32.2956 66.7067 31.4956 65.96C30.7223 65.2133 30.3356 64.2667 30.3356 63.12V41.96C30.3356 40.7867 30.7223 39.8 31.4956 39C32.269 38.2 33.2823 37.8 34.5356 37.8C35.869 37.8 36.8956 38.2 37.6156 39C38.3623 39.7733 38.7356 40.7333 38.7356 41.88V48.88L39.1756 48.96Z" fill="#B5B5F0"/>
</g>
<defs>
<clipPath id="clip0_770_29">
<rect width="100" height="100" rx="50" fill="white"/>
</clipPath>
</defs>
</svg>
