<svg width="139" height="57" viewBox="0 0 139 57" fill="none" xmlns="http://www.w3.org/2000/svg">
<g clip-path="url(#clip0_221_198)">
<g filter="url(#filter0_dddddd_221_198)">
<path d="M6.61215 9.59324L5.36084 9L5.86136 11.6107C6.46199 11.8004 7.16828 13.1929 7.44635 13.8653H7.94689L9.69872 16.2385V17.3066C11.4505 17.8999 12.3682 21.6973 12.2013 22.1719C12.6018 22.2667 13.0355 22.6071 13.2024 22.7651V23.5958C13.5361 23.5958 14.5093 26.1273 14.9542 27.3933C14.8986 27.3933 14.8208 27.5355 14.9542 28.1052C15.0877 28.6749 16.567 30.3993 17.29 31.1904V32.4959L19.3755 34.7505L19.9595 34.9879C20.3766 35.6603 21.2275 36.9102 21.2942 36.5305C21.3609 36.1505 21.4888 36.0557 21.5445 36.0557L22.3787 36.5305C22.3787 36.4118 22.4287 36.1505 22.6289 36.0557C22.8792 35.937 23.3797 37.0051 23.3797 36.5305C23.3797 36.1505 23.5466 34.3152 23.63 33.445L23.3797 32.8518L23.63 32.1398C23.5744 32.0211 23.4465 31.6653 23.3797 31.1904C23.313 30.7159 23.6856 30.3598 23.8802 30.2411L22.9626 28.8172L21.7947 28.461L21.5445 27.3933C21.0773 27.2981 20.9049 26.0086 20.8771 25.3758H19.9595C19.7926 25.2175 19.4423 24.83 19.3755 24.5451C19.2921 24.1893 19.9595 24.0706 19.6258 23.5958C19.3588 22.9312 19.737 22.6071 19.9595 22.528C19.5028 21.7269 19.2606 21.1719 18.7082 21.1038C17.5736 20.7241 16.7895 19.5216 16.5392 18.9679H15.9553V18.3747L15.0377 17.3066L14.8708 17.544C14.6762 17.6232 14.3369 17.6863 14.5371 17.3066C13.0689 15.313 11.4228 13.5487 10.7832 12.9159V12.2039L9.11478 10.0681C8.84782 10.4478 8.22494 10.2264 7.94689 10.0681L7.44635 10.5426L6.61215 9.59324Z" fill="white"/>
<path d="M23.8805 26.6813C23.5468 26.871 22.9072 26.7601 22.6292 26.6813C22.6292 27.5355 23.1297 28.2239 23.3799 28.461L23.8805 29.5291C24.381 29.4499 25.2652 29.1968 24.7981 28.8171C24.3309 28.4374 23.9917 27.2349 23.8805 26.6813Z" fill="white"/>
<path d="M23.1297 38.3103L22.3789 38.6664L22.9628 39.1409L23.6302 38.9038L24.2142 39.497L24.5478 40.6838H26.2162C26.6891 41.2375 27.6343 42.2026 27.6343 41.6329C27.6343 41.0635 28.4131 41.0001 28.8023 41.0397L30.3873 41.2771C31.1214 42.3213 32.8064 42.424 33.5572 42.3452L34.8086 42.9384L35.8096 42.3452C35.9432 42.8197 37.2557 43.2547 37.8951 43.4129L37.7283 41.2771C36.3269 41.4668 35.6429 41.1979 35.476 41.0397L33.9744 38.9038H32.7232C32.6564 38.5241 32.0279 38.1919 31.722 38.0731L30.9712 39.1409H28.3019L28.0515 38.6664C27.968 38.3103 27.7011 37.6222 27.3007 37.717C26.9002 37.8119 26.4109 37.3612 26.2162 37.1238L25.4655 36.8864C25.3987 37.7409 25.104 37.2425 24.965 36.8864H23.8805L23.1297 38.3103Z" fill="white"/>
<path d="M35.6427 39.1409L34.9751 39.6157C35.776 40.8499 36.6991 39.8136 37.0608 39.1409H35.6427Z" fill="white"/>
<path d="M39.0628 41.989C38.9275 42.3479 38.2288 42.4635 38.2288 42.4635C38.2288 42.4635 37.9653 42.9145 38.3955 42.8196C38.8256 42.7248 38.9084 43.1758 38.8961 43.4129L39.2298 43.8877L39.5634 43.1758C39.8303 43.1758 39.8971 42.7009 39.8971 42.4635L39.8909 42.4566C39.6128 42.14 39.188 41.6567 39.0628 41.989Z" fill="white"/>
<path d="M41.1483 42.3451L40.5642 42.8196L40.4807 43.8877H41.315L41.6486 42.4635L41.1483 42.3451Z" fill="white"/>
<path d="M41.8157 43.1758V43.8878C42.0826 44.4572 42.9279 44.204 43.3173 44.0065C43.4562 43.9669 43.851 43.8639 44.3182 43.7691C44.9021 43.6504 44.0681 43.1758 43.5675 43.4129C43.0334 43.2233 42.7889 42.9384 42.7332 42.8197L41.8157 43.1758Z" fill="white"/>
<path d="M44.0682 42.2264H43.4006C43.4006 42.6061 44.0125 42.8593 44.3184 42.9384C44.4186 43.4129 45.0832 43.6899 45.4028 43.7691C45.5141 43.8482 45.7699 43.8403 45.9035 43.1758C46.0368 42.5113 44.9022 42.424 44.3184 42.4635L44.0682 42.2264Z" fill="white"/>
<path d="M47.2379 44.8372L45.6528 45.3117C45.6528 45.8814 46.3204 46.1819 46.6541 46.2611C47.2546 47.4001 48.2946 46.973 48.7395 46.6169L47.2379 44.8372Z" fill="white"/>
<path d="M28.5518 20.5104C28.5518 19.7511 29.1079 18.5326 29.386 18.0185C29.4585 18.7593 29.8754 19.0253 29.8029 19.2053C30.5493 20.0403 31.5346 21.4231 31.5549 20.7479C31.5751 20.0771 33.0843 20.3126 33.8073 20.5104V20.0359L34.6414 18.8491H35.2255L35.3922 19.2053C35.7789 19.7005 36.0335 19.6597 36.4766 19.6798L37.1442 18.8491C37.4877 19.2357 37.687 19.3306 38.0617 19.2053L38.5623 18.2559L38.729 17.1878C38.896 17.1878 39.2129 17.0217 39.1462 16.3571C39.0794 15.6926 39.5076 15.3682 39.73 15.2891V13.3906L40.5643 12.4413C41.2038 12.4808 42.5164 12.5361 42.65 12.4413C42.8167 12.3225 43.8176 13.9839 43.5675 13.9839H42.483L42.8167 14.6958V16.3571L44.0681 17.6626C44.2682 18.9914 44.9856 20.1151 45.3192 20.5104C44.1182 20.2256 43.4285 20.8666 43.2338 21.2224V24.7825C42.7226 25.4429 41.2937 26.6445 41.3151 27.037C41.3514 27.7034 40.9424 30.3151 40.5643 31.5465L38.0617 32.1397L37.8115 31.1903C37.2554 30.7949 36.0762 30.0987 35.8093 30.4784C35.5424 30.8581 34.4747 30.8738 33.974 30.8345L33.4737 30.0039H31.1378C30.6706 29.0545 30.2201 26.9183 30.0534 25.9689C28.5144 24.1085 29.2466 23.1563 29.3696 23.1127C29.2527 22.9487 28.5518 21.3807 28.5518 20.5104Z" fill="white"/>
<path d="M46.9042 36.4118H47.8217C48.0888 36.1269 47.5438 35.3437 47.2378 34.9879L47.8217 34.1572L47.488 32.9704L47.9886 32.1398V30.5972L47.488 29.7665C47.9553 27.5829 48.7949 29.015 49.1566 30.0039L48.656 31.1904L49.9074 32.733L49.6569 33.6824C49.9351 34.1177 50.4912 34.8218 50.4912 34.1572C50.4912 33.4927 51.6037 33.0891 52.1598 32.9704L51.0753 31.1904V30.0039C49.0731 27.3458 49.8516 26.7601 50.4912 26.7997C50.9584 25.3758 52.3542 25.0988 52.9938 25.1383C53.133 24.6638 53.2776 23.8093 52.7436 24.1893C52.2098 24.569 50.3523 24.9804 49.4902 25.1383C48.9562 27.0371 47.7662 24.9804 47.2378 23.7144C47.5047 21.5312 48.1833 21.3016 48.4893 21.4599C48.7672 21.7764 49.3567 22.2905 49.4902 21.8157C49.6238 21.3412 49.9908 21.6182 50.1576 21.8157H52.3265L52.7436 22.0531L54.829 21.8157L55.997 19.6798C56.1973 17.7811 55.3019 18.8888 54.829 19.6798L54.3287 20.036L53.8281 20.5105H51.9093H51.5757C51.2143 20.5105 50.3746 20.4157 49.9074 20.036C49.4401 19.656 48.7672 19.6403 48.4893 19.6798L47.9886 20.8666H47.488L46.654 22.4093V24.1893L46.0699 25.3758V27.5119C45.9587 27.5119 45.7529 27.5594 45.8197 27.749C45.8865 27.939 45.5138 29.3312 45.3191 30.0039C45.2356 30.6367 45.1691 31.8314 45.5695 31.5465C46.0699 31.1904 46.654 30.5972 46.4036 31.1904C46.2035 31.6652 46.3203 32.4168 46.4036 32.733C46.3758 33.0496 46.3368 33.9434 46.4036 34.9879C46.487 36.2931 46.5705 36.4118 46.9042 36.4118Z" fill="white"/>
<path d="M51.3255 35.9369C51.2421 35.5019 51.1753 34.4894 51.5757 33.9197C51.6315 33.6415 51.8593 33.2998 52.3265 34.1571C52.7938 35.0142 51.8539 35.7007 51.3255 35.9369Z" fill="white"/>
<path d="M57.2485 30.241L57.7489 31.5465C58.7501 32.1159 59.334 31.3091 59.5009 30.8346L58.8334 30.0039L57.2485 30.241Z" fill="white"/>
<path d="M65.6739 26.2066L65.0898 25.1385C65.9575 26.0879 66.397 25.0597 66.5082 24.4265H67.1755L67.6759 23.4772L68.5936 23.3588C68.8161 23.5167 69.3111 23.952 69.5112 24.4265C69.7616 25.0201 70.5956 23.952 70.5956 24.4265C70.5956 24.8062 71.0407 25.455 71.2632 25.732L71.0127 27.1559C70.985 27.5909 70.996 28.5798 71.2632 29.0547C71.5968 29.6479 71.5968 28.4611 71.7635 29.0547C71.8971 29.5292 72.7648 30.439 73.1817 30.8347L74.6833 29.0547L75.0169 27.8679L76.1849 27.5121C76.2683 26.9185 76.5519 25.8269 77.0191 26.2066C78.0201 27.0611 81.1623 28.4611 82.6084 29.0547V37.8358L82.3579 38.5478C82.6639 41.2376 83.0422 46.0476 82.1078 43.7692C81.1736 41.4907 79.8834 42.4244 79.355 43.1759L77.0191 42.5824L78.3538 40.0904L79.0213 40.4465V39.2597C78.6209 38.7852 77.7977 36.5306 77.4363 35.4626C76.9914 34.8693 75.8846 33.6825 75.0169 33.6825H73.1817C70.2452 32.1638 70.123 30.7556 70.4289 30.2412L69.9283 30.8347V32.1399C69.0663 32.3378 67.5927 32.6144 68.5936 32.1399C69.5946 31.6654 68.1765 30.3599 67.3422 29.7666L67.7594 29.0547L68.5936 29.7666L69.5112 28.4611C70.312 29.7902 70.4566 28.3823 70.4289 27.5121L68.26 28.4611L66.7584 26.2066H65.6739Z" fill="white"/>
<path d="M60.0848 22.4094C59.6176 22.5991 59.7234 20.9064 59.8346 20.0361C59.9176 19.3283 60.1653 17.8463 60.496 17.5492C60.4978 17.5055 60.4997 17.4641 60.5019 17.4254C60.6409 17.3463 60.8356 17.2593 60.5019 17.5441C60.5 17.5457 60.498 17.5473 60.496 17.5492C60.4744 18.0846 60.4835 18.9373 60.6689 18.8493C60.869 18.7545 60.6966 19.2846 60.5854 19.5613C60.2517 20.2732 59.8346 21.3413 60.8356 19.9174C61.1025 18.6832 61.6141 19.0076 61.8366 19.3239V20.2732L61.0858 20.9852C61.3362 21.0643 61.8366 21.3887 61.8366 22.0533L60.6689 21.5787C60.5881 22.4421 60.5073 24.2227 60.8042 24.658C60.815 24.6721 60.8253 24.6853 60.8356 24.6976C60.8245 24.6859 60.8142 24.6727 60.8042 24.658C60.5852 24.3706 60.2518 23.676 60.0848 22.4094Z" fill="white"/>
<path d="M60.5537 30.6971C60.5346 30.7448 60.5172 30.7907 60.5019 30.8347C60.4811 30.7458 60.4727 30.6305 60.5537 30.6971C60.8115 30.0546 61.4035 29.1174 62.087 29.6479C62.1982 29.6874 62.5206 29.6953 62.921 29.4104C63.3215 29.1256 63.7553 29.6874 63.9223 30.004H64.8398C65.1734 30.7555 65.8076 32.2111 65.6741 32.0211C65.5071 31.7837 64.089 31.6653 63.9223 30.8347C63.7887 30.1701 63.4774 30.7159 63.3382 31.0718H62.4207C61.9201 31.1113 60.869 31.1192 60.6689 30.8347C60.6183 30.7627 60.581 30.7197 60.5537 30.6971Z" fill="white"/>
<path d="M70.7627 37.1239L70.9297 39.4971L71.3465 38.6665C72.0806 38.3816 71.7637 36.5702 71.5135 35.7L70.7627 37.1239Z" fill="white"/>
<path d="M66.6751 39.6157C66.4082 39.7105 65.8965 40.9209 65.6741 41.5144C65.8742 42.0838 66.4804 41.1187 66.7585 40.5651C66.842 40.2089 66.9419 39.5209 66.6751 39.6157Z" fill="white"/>
<path d="M53.3277 45.3118C53.2612 46.4508 52.9108 46.8939 52.7439 46.9731H54.162C54.5792 46.7752 55.4969 46.1663 55.8306 45.3118C56.2477 44.2437 55.7471 43.8879 55.4134 44.0066C55.1465 44.1014 53.9118 44.9161 53.3277 45.3118Z" fill="white"/>
<path d="M48.1559 42.5824L46.6543 43.176C46.6543 44.2202 48.6563 44.1646 49.6572 44.0066H50.4915C51.2423 43.5318 52.5936 42.6298 51.9931 42.8198C51.3926 43.0098 50.5193 42.899 50.1579 42.8198H49.4905L48.1559 42.5824Z" fill="white"/>
<path d="M54.7459 42.2264L53.7446 42.4635C54.0783 43.6978 55.2742 42.8197 55.8303 42.2264H54.7459Z" fill="white"/>
<path d="M53.3277 42.8197H52.7439L53.161 43.2942L53.3277 42.8197Z" fill="white"/>
</g>
<path d="M90.5976 46.056C89.7389 46.056 89.0389 45.7947 88.4976 45.272C87.9562 44.7493 87.6856 44.0867 87.6856 43.284V28.472C87.6856 27.6507 87.9469 26.96 88.4696 26.4C89.0109 25.84 89.7202 25.56 90.5976 25.56C91.5309 25.56 92.2589 25.84 92.7816 26.4C93.3229 26.9413 93.5936 27.6133 93.5936 28.416V43.284C93.5936 44.0867 93.3042 44.7493 92.7256 45.272C92.1656 45.7947 91.4562 46.056 90.5976 46.056ZM129.879 46C128.946 46 128.209 45.72 127.667 45.16C127.126 44.5813 126.837 43.8347 126.799 42.92C126.725 41.3333 126.323 40.2133 125.595 39.56C124.886 38.888 123.934 38.552 122.739 38.552H122.179V43.032C122.179 44.0027 121.918 44.74 121.395 45.244C120.873 45.748 120.182 46 119.323 46C118.409 46 117.69 45.748 117.167 45.244C116.645 44.74 116.383 44.0027 116.383 43.032V39.084C116.383 37.1053 116.673 35.6027 117.251 34.576C117.849 33.5493 118.605 32.812 119.519 32.364L119.379 31.832H118.931C118.073 31.832 117.391 31.5613 116.887 31.02C116.402 30.46 116.141 29.704 116.103 28.752C116.085 27.8187 116.337 27.0627 116.859 26.484C117.382 25.9053 118.073 25.616 118.931 25.616H126.071C128.069 25.616 129.683 26.1013 130.915 27.072C132.147 28.0427 132.763 29.592 132.763 31.72C132.763 32.8213 132.577 33.7453 132.203 34.492C131.83 35.22 131.354 35.78 130.775 36.172C130.197 36.564 129.59 36.7973 128.955 36.872V37.236C130.113 37.516 131.065 38.132 131.811 39.084C132.577 40.036 132.959 41.3147 132.959 42.92C132.959 43.9467 132.679 44.7213 132.119 45.244C131.578 45.748 130.831 46 129.879 46ZM122.039 34.268C122.039 34.6787 122.114 34.9493 122.263 35.08C122.413 35.2107 122.693 35.276 123.103 35.276H125.735C126.519 35.276 127.089 35.0987 127.443 34.744C127.798 34.3893 127.975 33.8947 127.975 33.26C127.975 32.6067 127.798 32.1027 127.443 31.748C127.089 31.3933 126.519 31.216 125.735 31.216H123.103C122.693 31.216 122.413 31.272 122.263 31.384C122.114 31.496 122.039 31.7667 122.039 32.196V34.268Z" fill="white"/>
<path d="M103.012 33.372L107.212 27.436C107.959 26.372 108.771 25.7747 109.648 25.644C110.526 25.4947 111.319 25.7 112.028 26.26C112.495 26.6147 112.803 27.0907 112.952 27.688C113.102 28.2853 113.055 28.92 112.812 29.592C112.57 30.264 112.084 30.8987 111.356 31.496L106.68 35.276V35.864C107.278 35.864 107.978 35.9387 108.78 36.088C109.583 36.2373 110.311 36.5733 110.964 37.096C111.487 37.488 111.935 37.936 112.308 38.44C112.7 38.944 113.008 39.5693 113.232 40.316C113.456 41.044 113.568 41.968 113.568 43.088C113.568 44.0027 113.316 44.74 112.812 45.3C112.327 45.8413 111.599 46.112 110.628 46.112C109.658 46.112 108.911 45.8413 108.388 45.3C107.884 44.74 107.632 44.0027 107.632 43.088C107.632 42.0613 107.464 41.2493 107.128 40.652C106.811 40.036 106.382 39.588 105.84 39.308C105.299 39.028 104.711 38.888 104.076 38.888H102.704V43.284C102.704 44.0867 102.424 44.7493 101.864 45.272C101.323 45.7947 100.623 46.056 99.7645 46.056C98.9058 46.056 98.1965 45.7947 97.6365 45.272C97.0952 44.7493 96.8245 44.0867 96.8245 43.284V28.472C96.8245 27.6507 97.0952 26.96 97.6365 26.4C98.1778 25.84 98.8872 25.56 99.7645 25.56C100.698 25.56 101.416 25.84 101.92 26.4C102.443 26.9413 102.704 27.6133 102.704 28.416V33.316L103.012 33.372Z" fill="#B5B5F0"/>
<path d="M83.2017 11.36C81.8346 11.3618 80.5241 11.9781 79.5574 13.0736C78.5908 14.1691 78.047 15.6544 78.0454 17.2037C78.0438 18.4698 78.4087 19.7016 79.0842 20.71C79.0842 20.71 79.2248 20.9198 79.2478 20.9501L83.2017 26.235L87.1574 20.9475C87.1781 20.9193 87.3192 20.71 87.3192 20.71L87.3196 20.7084C87.9948 19.7004 88.3595 18.4692 88.3579 17.2037C88.3563 15.6544 87.8125 14.1691 86.8459 13.0736C85.8793 11.9781 84.5687 11.3618 83.2017 11.36ZM83.2017 19.3287C82.8308 19.3287 82.4683 19.2041 82.16 18.9706C81.8516 18.7371 81.6113 18.4052 81.4694 18.0169C81.3275 17.6286 81.2903 17.2014 81.3627 16.7892C81.435 16.377 81.6136 15.9983 81.8758 15.7011C82.1381 15.4039 82.4722 15.2016 82.8359 15.1196C83.1996 15.0376 83.5766 15.0797 83.9192 15.2405C84.2618 15.4013 84.5546 15.6737 84.7607 16.0231C84.9667 16.3726 85.0767 16.7835 85.0767 17.2037C85.076 17.7671 84.8783 18.3072 84.5268 18.7056C84.1753 19.1039 83.6988 19.328 83.2017 19.3287Z" fill="#B5B5F0"/>
</g>
<defs>
<filter id="filter0_dddddd_221_198" x="-74.6392" y="9" width="237.338" height="218" filterUnits="userSpaceOnUse" color-interpolation-filters="sRGB">
<feFlood flood-opacity="0" result="BackgroundImageFix"/>
<feColorMatrix in="SourceAlpha" type="matrix" values="0 0 0 0 0 0 0 0 0 0 0 0 0 0 0 0 0 0 127 0" result="hardAlpha"/>
<feOffset dy="2.76726"/>
<feGaussianBlur stdDeviation="1.1069"/>
<feColorMatrix type="matrix" values="0 0 0 0 0 0 0 0 0 0 0 0 0 0 0 0 0 0 0.07 0"/>
<feBlend mode="normal" in2="BackgroundImageFix" result="effect1_dropShadow_221_198"/>
<feColorMatrix in="SourceAlpha" type="matrix" values="0 0 0 0 0 0 0 0 0 0 0 0 0 0 0 0 0 0 127 0" result="hardAlpha"/>
<feOffset dy="6.6501"/>
<feGaussianBlur stdDeviation="2.66004"/>
<feColorMatrix type="matrix" values="0 0 0 0 0 0 0 0 0 0 0 0 0 0 0 0 0 0 0.0503198 0"/>
<feBlend mode="normal" in2="effect1_dropShadow_221_198" result="effect2_dropShadow_221_198"/>
<feColorMatrix in="SourceAlpha" type="matrix" values="0 0 0 0 0 0 0 0 0 0 0 0 0 0 0 0 0 0 127 0" result="hardAlpha"/>
<feOffset dy="12.5216"/>
<feGaussianBlur stdDeviation="5.00862"/>
<feColorMatrix type="matrix" values="0 0 0 0 0 0 0 0 0 0 0 0 0 0 0 0 0 0 0.0417275 0"/>
<feBlend mode="normal" in2="effect2_dropShadow_221_198" result="effect3_dropShadow_221_198"/>
<feColorMatrix in="SourceAlpha" type="matrix" values="0 0 0 0 0 0 0 0 0 0 0 0 0 0 0 0 0 0 127 0" result="hardAlpha"/>
<feOffset dy="22.3363"/>
<feGaussianBlur stdDeviation="8.93452"/>
<feColorMatrix type="matrix" values="0 0 0 0 0 0 0 0 0 0 0 0 0 0 0 0 0 0 0.035 0"/>
<feBlend mode="normal" in2="effect3_dropShadow_221_198" result="effect4_dropShadow_221_198"/>
<feColorMatrix in="SourceAlpha" type="matrix" values="0 0 0 0 0 0 0 0 0 0 0 0 0 0 0 0 0 0 127 0" result="hardAlpha"/>
<feOffset dy="41.7776"/>
<feGaussianBlur stdDeviation="16.711"/>
<feColorMatrix type="matrix" values="0 0 0 0 0 0 0 0 0 0 0 0 0 0 0 0 0 0 0.0282725 0"/>
<feBlend mode="normal" in2="effect4_dropShadow_221_198" result="effect5_dropShadow_221_198"/>
<feColorMatrix in="SourceAlpha" type="matrix" values="0 0 0 0 0 0 0 0 0 0 0 0 0 0 0 0 0 0 127 0" result="hardAlpha"/>
<feOffset dy="100"/>
<feGaussianBlur stdDeviation="40"/>
<feColorMatrix type="matrix" values="0 0 0 0 0 0 0 0 0 0 0 0 0 0 0 0 0 0 0.0196802 0"/>
<feBlend mode="normal" in2="effect5_dropShadow_221_198" result="effect6_dropShadow_221_198"/>
<feBlend mode="normal" in="SourceGraphic" in2="effect6_dropShadow_221_198" result="shape"/>
</filter>
<clipPath id="clip0_221_198">
<rect width="139" height="57" fill="white"/>
</clipPath>
</defs>
</svg>
