<svg width="139" height="73" viewBox="0 0 139 73" fill="none" xmlns="http://www.w3.org/2000/svg">
<rect width="139" height="73" rx="36.5" fill="white"/>
<path d="M9.61069 16.5932L8.35938 16L8.85989 18.6107C9.46053 18.8004 10.1668 20.1929 10.4449 20.8653H10.9454L12.6973 23.2385V24.3066C14.4491 24.8999 15.3667 28.6973 15.1999 29.1719C15.6003 29.2667 16.0341 29.6071 16.2009 29.7651V30.5958C16.5346 30.5958 17.5079 33.1273 17.9528 34.3933C17.8972 34.3933 17.8193 34.5355 17.9528 35.1052C18.0862 35.6749 19.5656 37.3993 20.2885 38.1904V39.4959L22.3741 41.7505L22.958 41.9879C23.3751 42.6603 24.226 43.9102 24.2927 43.5305C24.3595 43.1505 24.4874 43.0557 24.543 43.0557L25.3772 43.5305C25.3772 43.4118 25.4273 43.1505 25.6275 43.0557C25.8777 42.937 26.3783 44.0051 26.3783 43.5305C26.3783 43.1505 26.5451 41.3152 26.6285 40.445L26.3783 39.8518L26.6285 39.1398C26.5729 39.0211 26.445 38.6653 26.3783 38.1904C26.3115 37.7159 26.6841 37.3598 26.8788 37.2411L25.9612 35.8172L24.7933 35.461L24.543 34.3933C24.0758 34.2981 23.9034 33.0086 23.8756 32.3758H22.958C22.7912 32.2175 22.4408 31.83 22.3741 31.5451C22.2906 31.1893 22.958 31.0706 22.6243 30.5958C22.3574 29.9312 22.7355 29.6071 22.958 29.528C22.5013 28.7269 22.2591 28.1719 21.7067 28.1038C20.5722 27.7241 19.788 26.5216 19.5378 25.9679H18.9538V25.3747L18.0362 24.3066L17.8693 24.544C17.6747 24.6232 17.3355 24.6863 17.5356 24.3066C16.0674 22.313 14.4213 20.5487 13.7817 19.9159V19.2039L12.1133 17.0681C11.8464 17.4478 11.2235 17.2264 10.9454 17.0681L10.4449 17.5426L9.61069 16.5932Z" fill="#3B3F55"/>
<path d="M26.8802 33.6813C26.5465 33.871 25.907 33.7601 25.6289 33.6813C25.6289 34.5355 26.1294 35.2239 26.3797 35.461L26.8802 36.5291C27.3807 36.4499 28.265 36.1968 27.7978 35.8171C27.3307 35.4374 26.9914 34.2349 26.8802 33.6813Z" fill="#3B3F55"/>
<path d="M26.1299 45.3102C26.1299 45.3102 25.3925 45.3421 25.3791 45.6664C25.367 45.96 25.963 46.1409 25.963 46.1409L26.6304 45.9038C26.6304 45.9038 27.0374 46.2243 27.2143 46.497C27.4764 46.9009 27.1996 47.3516 27.548 47.6838C28.0196 48.1334 28.7435 47.1302 29.2164 47.6838C29.6893 48.2375 30.6345 49.2026 30.6345 48.6329C30.6345 48.0635 31.4133 48.0001 31.8024 48.0396C31.8024 48.0396 32.6534 47.2328 33.3875 48.2771C34.1216 49.3213 35.8066 49.424 36.5574 49.3451C37.3082 49.2663 37.8088 49.9384 37.8088 49.9384C37.8088 49.9384 38.6762 48.8706 38.8098 49.3451C38.9434 49.8197 40.2559 50.2546 40.8952 50.4129C40.8952 50.4129 42.1299 48.0874 40.7285 48.2771C39.3271 48.4668 38.4761 48.0396 38.4761 48.0396C38.4761 48.0396 37.9492 46.2033 36.9745 45.9038C36.5075 45.7603 35.7902 46.2835 35.7234 45.9038C35.6566 45.5241 35.0281 45.1918 34.7221 45.0731C34.4162 44.9544 34.3755 45.8302 33.9713 46.1409C33.1449 46.7762 31.3021 46.1409 31.3021 46.1409C31.3021 46.1409 31.1351 46.0225 31.0516 45.6664C30.9682 45.3102 30.7013 44.6222 30.3008 44.717C29.9004 44.8118 29.4111 44.3612 29.2164 44.1238L28.4657 43.8863C28.4657 43.8863 28.1042 44.2425 27.9651 43.8863C27.8261 43.5302 27.2664 43.7114 26.8807 43.8863C26.3081 44.146 26.1299 45.3102 26.1299 45.3102Z" fill="#3B3F55"/>
<path d="M38.6402 46.1409L37.9727 46.6157C38.7735 47.8499 39.6967 46.8136 40.0583 46.1409H38.6402Z" fill="#3B3F55"/>
<path d="M42.0623 48.989C41.927 49.3479 41.2283 49.4635 41.2283 49.4635C41.2283 49.4635 40.9648 49.9145 41.395 49.8196C41.8251 49.7248 41.9079 50.1758 41.8956 50.4129L42.2293 50.8877L42.5629 50.1758C42.8298 50.1758 42.8966 49.7009 42.8966 49.4635L42.8904 49.4566C42.6123 49.14 42.1875 48.6567 42.0623 48.989Z" fill="#3B3F55"/>
<path d="M44.148 49.3451L43.5639 49.8196L43.4805 50.8877H44.3147L44.6484 49.4635L44.148 49.3451Z" fill="#3B3F55"/>
<path d="M44.8125 50.1758V50.8878C45.0794 51.4572 45.9247 51.204 46.3141 51.0065C46.4531 50.9669 46.8479 50.8639 47.3151 50.7691C47.8989 50.6504 47.0649 50.1758 46.5643 50.4129C46.0303 50.2233 45.7857 49.9384 45.73 49.8197L44.8125 50.1758Z" fill="#3B3F55"/>
<path d="M47.066 49.2264H46.3984C46.3984 49.6061 47.0103 49.8593 47.3162 49.9384C47.4164 50.4129 48.081 50.6899 48.4006 50.7691C48.5119 50.8482 48.7677 50.8403 48.9013 50.1758C49.0346 49.5113 47.9 49.424 47.3162 49.4635L47.066 49.2264Z" fill="#3B3F55"/>
<path d="M50.2374 51.8372L48.6523 52.3117C48.6523 52.8814 49.3199 53.1819 49.6536 53.2611C50.2541 54.4001 51.2941 53.973 51.739 53.6169L50.2374 51.8372Z" fill="#3B3F55"/>
<path d="M31.5508 27.5105C31.5508 26.7511 31.664 24.2882 32.3851 25.0185C32.7302 25.368 32.8019 26.2053 32.8019 26.2053L34.554 27.7479C34.554 27.7479 36.0833 27.3126 36.8064 27.5105C36.8064 27.5105 36.7792 27.2192 36.8064 27.0359C36.8895 26.4756 37.0932 25.9955 37.6404 25.8491C37.8607 25.7902 38.0486 25.7039 38.2245 25.8491C38.3429 25.9469 38.0045 25.71 38.3912 26.2053C38.7779 26.7005 39.4756 26.6798 39.4756 26.6798C39.4756 26.6798 39.7997 25.4626 40.1432 25.8491C40.4867 26.2357 40.6861 26.3306 41.0607 26.2053C41.4354 26.08 41.4292 25.6537 41.5613 25.2559C41.6944 24.8553 41.728 24.1878 41.728 24.1878L42.1452 23.3572L42.729 22.2891C42.729 22.2891 42.4159 21.0627 42.729 20.3906C42.9374 19.9433 42.9237 19.4017 43.5633 19.4413C44.2029 19.4808 44.9588 19.0088 45.649 19.4413C46.243 19.8134 46.8167 20.9839 46.5665 20.9839H45.482L45.8157 21.6958V23.3572L47.0671 24.6627C47.2672 25.9914 49.0018 26.5063 48.3183 27.5105C47.834 28.2219 46.4275 27.8666 46.2328 28.2224C46.0381 28.5782 46.744 31.122 46.2328 31.7825C45.7217 32.4429 44.3141 34.0371 44.3141 34.0371C44.3141 34.0371 43.9414 37.3151 43.5633 38.5465C43.1852 39.7779 41.6436 39.9577 41.0607 39.1397C40.8382 38.8275 40.8105 38.1904 40.8105 38.1904C40.8105 38.1904 39.0752 37.0987 38.8083 37.4784C38.5414 37.8581 37.4737 37.8738 36.9731 37.8345L36.4727 37.0039H34.1368C33.6696 36.0545 33.2191 33.9183 33.0524 32.969C31.5135 31.1085 32.2456 30.1563 32.3686 30.1127C32.2517 29.9488 31.5508 28.3807 31.5508 27.5105Z" fill="#3B3F55"/>
<path d="M49.9022 43.4118H50.8197C51.0869 43.1269 50.5418 42.3437 50.2359 41.9879L50.8197 41.1572L50.4861 39.9704L50.9867 39.1398V37.5972L50.4861 36.7665C50.9533 34.5829 51.793 36.015 52.1546 37.0039L51.654 38.1904L52.9054 39.733L52.655 40.6824C52.9332 41.1177 53.4893 41.8218 53.4893 41.1572C53.4893 40.4927 54.6017 40.0891 55.1578 39.9704L54.0734 38.1904V37.0039C52.0711 34.3458 52.8497 33.7601 53.4893 33.7997C53.9565 32.3758 55.3523 32.0988 55.9918 32.1383C56.131 31.6638 56.2757 30.8093 55.7417 31.1893C55.2079 31.569 53.3503 31.9804 52.4883 32.1383C51.9543 34.0371 50.7642 31.9804 50.2359 30.7144C50.5028 28.5312 51.1814 28.3016 51.4873 28.4599C51.7652 28.7764 52.3547 29.2905 52.4883 28.8157C52.6218 28.3412 52.9889 28.6182 53.1556 28.8157H55.3245L55.7417 29.0531L57.8271 28.8157L58.995 26.6798C59.1954 24.7811 58.3 25.8888 57.8271 26.6798L57.3267 27.036L56.8261 27.5105H54.9074H54.5737C54.2123 27.5105 53.3726 27.4157 52.9054 27.036C52.4382 26.656 51.7652 26.6403 51.4873 26.6798L50.9867 27.8666H50.4861L49.652 29.4093V31.1893L49.068 32.3758V34.5119C48.9567 34.5119 48.751 34.5594 48.8178 34.749C48.8846 34.939 48.5119 36.3312 48.3172 37.0039C48.2337 37.6367 48.1671 38.8314 48.5676 38.5465C49.068 38.1904 49.652 37.5972 49.4016 38.1904C49.2015 38.6652 49.3184 39.4168 49.4016 39.733C49.3739 40.0496 49.3348 40.9434 49.4016 41.9879C49.4851 43.2931 49.5686 43.4118 49.9022 43.4118Z" fill="#3B3F55"/>
<path d="M54.3251 42.9369C54.2416 42.5019 54.1748 41.4894 54.5752 40.9197C54.631 40.6415 54.8588 40.2998 55.326 41.1571C55.7933 42.0142 54.8534 42.7007 54.3251 42.9369Z" fill="#3B3F55"/>
<path d="M60.2461 37.241L60.7465 38.5465C61.7477 39.1159 62.3315 38.3091 62.4985 37.8346L61.8309 37.0039L60.2461 37.241Z" fill="#3B3F55"/>
<path d="M68.6739 33.2066L68.0898 32.1385C68.9575 33.0879 69.397 32.0597 69.5082 31.4265H70.1755L70.6759 30.4772L71.5936 30.3588C71.8161 30.5167 72.3111 30.952 72.5112 31.4265C72.7616 32.0201 73.5956 30.952 73.5956 31.4265C73.5956 31.8062 74.0407 32.455 74.2632 32.732L74.0127 34.1559C73.985 34.5909 73.996 35.5798 74.2632 36.0547C74.5968 36.6479 74.5968 35.4611 74.7635 36.0547C74.8971 36.5292 75.7648 37.439 76.1817 37.8347L77.6833 36.0547L78.0169 34.8679L79.1849 34.5121C79.2683 33.9185 79.5519 32.8269 80.0191 33.2066C81.0201 34.0611 84.1623 35.4611 85.6084 36.0547V44.8358L85.3579 45.5478C85.6639 48.2376 86.0422 53.0476 85.1078 50.7692C84.1736 48.4907 82.8834 49.4244 82.355 50.1759L80.0191 49.5824L81.3538 47.0904L82.0213 47.4465V46.2597C81.6209 45.7852 80.7977 43.5306 80.4363 42.4626C79.9914 41.8693 78.8846 40.6825 78.0169 40.6825H76.1817C73.2452 39.1638 73.123 37.7556 73.4289 37.2412L72.9283 37.8347V39.1399C72.0663 39.3378 70.5927 39.6144 71.5936 39.1399C72.5946 38.6654 71.1765 37.3599 70.3422 36.7666L70.7594 36.0547L71.5936 36.7666L72.5112 35.4611C73.312 36.7902 73.4566 35.3823 73.4289 34.5121L71.26 35.4611L69.7584 33.2066H68.6739Z" fill="#3B3F55"/>
<path d="M63.0838 29.4094C62.6166 29.5991 62.7224 27.9064 62.8336 27.0361C62.9166 26.3283 63.1643 24.8463 63.4951 24.5492C63.4968 24.5055 63.4987 24.4641 63.501 24.4254C63.6399 24.3463 63.8346 24.2593 63.501 24.5441C63.499 24.5457 63.497 24.5473 63.4951 24.5492C63.4735 25.0846 63.4825 25.9373 63.6679 25.8493C63.868 25.7545 63.6957 26.2846 63.5844 26.5613C63.2508 27.2732 62.8336 28.3413 63.8346 26.9174C64.1015 25.6832 64.6132 26.0076 64.8356 26.3239V27.2732L64.0848 27.9852C64.3352 28.0643 64.8356 28.3887 64.8356 29.0533L63.6679 28.5787C63.5871 29.4421 63.5064 31.2227 63.8032 31.658C63.814 31.6721 63.8243 31.6853 63.8346 31.6976C63.8236 31.6859 63.8133 31.6727 63.8032 31.658C63.5842 31.3706 63.2508 30.676 63.0838 29.4094Z" fill="#3B3F55"/>
<path d="M63.5542 37.6971C63.5351 37.7448 63.5177 37.7907 63.5024 37.8347C63.4816 37.7458 63.4732 37.6305 63.5542 37.6971C63.812 37.0546 64.404 36.1174 65.0875 36.6479C65.1987 36.6874 65.5211 36.6953 65.9215 36.4104C66.322 36.1256 66.7558 36.6874 66.9228 37.004H67.8403C68.1739 37.7555 68.8081 39.2111 68.6745 39.0211C68.5076 38.7837 67.0895 38.6653 66.9228 37.8347C66.7892 37.1701 66.4779 37.7159 66.3387 38.0718H65.4212C64.9206 38.1113 63.8695 38.1192 63.6694 37.8347C63.6188 37.7627 63.5815 37.7197 63.5542 37.6971Z" fill="#3B3F55"/>
<path d="M73.7617 44.1239L73.9287 46.4971L74.3456 45.6665C75.0797 45.3816 74.7627 43.5702 74.5125 42.7L73.7617 44.1239Z" fill="#3B3F55"/>
<path d="M69.6729 46.6157C69.406 46.7105 68.8943 47.9209 68.6719 48.5144C68.872 49.0838 69.4782 48.1187 69.7563 47.5651C69.8398 47.2089 69.9397 46.5209 69.6729 46.6157Z" fill="#3B3F55"/>
<path d="M56.326 52.3118C56.2595 53.4508 55.9091 53.8939 55.7422 53.9731H57.1603C57.5774 53.7752 58.4952 53.1663 58.8289 52.3118C59.246 51.2437 58.7454 50.8879 58.4117 51.0066C58.1448 51.1014 56.9101 51.9161 56.326 52.3118Z" fill="#3B3F55"/>
<path d="M51.1539 49.5824L49.6523 50.176C49.6523 51.2202 51.6543 51.1646 52.6553 51.0066H53.4896C54.2404 50.5318 55.5917 49.6298 54.9912 49.8198C54.3906 50.0098 53.5173 49.899 53.1559 49.8198H52.4886L51.1539 49.5824Z" fill="#3B3F55"/>
<path d="M57.7434 49.2264L56.7422 49.4635C57.0758 50.6978 58.2718 49.8197 58.8279 49.2264H57.7434Z" fill="#3B3F55"/>
<path d="M56.326 49.8197H55.7422L56.1593 50.2942L56.326 49.8197Z" fill="#3B3F55"/>
<path d="M93.5971 52.056C92.7384 52.056 92.0384 51.7947 91.4971 51.272C90.9557 50.7493 90.6851 50.0867 90.6851 49.284V34.472C90.6851 33.6507 90.9464 32.96 91.4691 32.4C92.0104 31.84 92.7197 31.56 93.5971 31.56C94.5304 31.56 95.2584 31.84 95.7811 32.4C96.3224 32.9413 96.5931 33.6133 96.5931 34.416V49.284C96.5931 50.0867 96.3037 50.7493 95.7251 51.272C95.1651 51.7947 94.4557 52.056 93.5971 52.056ZM132.879 52C131.946 52 131.208 51.72 130.667 51.16C130.126 50.5813 129.836 49.8347 129.799 48.92C129.724 47.3333 129.323 46.2133 128.595 45.56C127.886 44.888 126.934 44.552 125.739 44.552H125.179V49.032C125.179 50.0027 124.918 50.74 124.395 51.244C123.872 51.748 123.182 52 122.323 52C121.408 52 120.69 51.748 120.167 51.244C119.644 50.74 119.383 50.0027 119.383 49.032V45.084C119.383 43.1053 119.672 41.6027 120.251 40.576C120.848 39.5493 121.604 38.812 122.519 38.364L122.379 37.832H121.931C121.072 37.832 120.391 37.5613 119.887 37.02C119.402 36.46 119.14 35.704 119.103 34.752C119.084 33.8187 119.336 33.0627 119.859 32.484C120.382 31.9053 121.072 31.616 121.931 31.616H129.071C131.068 31.616 132.683 32.1013 133.915 33.072C135.147 34.0427 135.763 35.592 135.763 37.72C135.763 38.8213 135.576 39.7453 135.203 40.492C134.83 41.22 134.354 41.78 133.775 42.172C133.196 42.564 132.59 42.7973 131.955 42.872V43.236C133.112 43.516 134.064 44.132 134.811 45.084C135.576 46.036 135.959 47.3147 135.959 48.92C135.959 49.9467 135.679 50.7213 135.119 51.244C134.578 51.748 133.831 52 132.879 52ZM125.039 40.268C125.039 40.6787 125.114 40.9493 125.263 41.08C125.412 41.2107 125.692 41.276 126.103 41.276H128.735C129.519 41.276 130.088 41.0987 130.443 40.744C130.798 40.3893 130.975 39.8947 130.975 39.26C130.975 38.6067 130.798 38.1027 130.443 37.748C130.088 37.3933 129.519 37.216 128.735 37.216H126.103C125.692 37.216 125.412 37.272 125.263 37.384C125.114 37.496 125.039 37.7667 125.039 38.196V40.268Z" fill="#3B3F55"/>
<path d="M106.012 39.372L110.212 33.436C110.959 32.372 111.771 31.7747 112.648 31.644C113.525 31.4947 114.319 31.7 115.028 32.26C115.495 32.6147 115.803 33.0907 115.952 33.688C116.101 34.2853 116.055 34.92 115.812 35.592C115.569 36.264 115.084 36.8987 114.356 37.496L109.68 41.276V41.864C110.277 41.864 110.977 41.9387 111.78 42.088C112.583 42.2373 113.311 42.5733 113.964 43.096C114.487 43.488 114.935 43.936 115.308 44.44C115.7 44.944 116.008 45.5693 116.232 46.316C116.456 47.044 116.568 47.968 116.568 49.088C116.568 50.0027 116.316 50.74 115.812 51.3C115.327 51.8413 114.599 52.112 113.628 52.112C112.657 52.112 111.911 51.8413 111.388 51.3C110.884 50.74 110.632 50.0027 110.632 49.088C110.632 48.0613 110.464 47.2493 110.128 46.652C109.811 46.036 109.381 45.588 108.84 45.308C108.299 45.028 107.711 44.888 107.076 44.888H105.704V49.284C105.704 50.0867 105.424 50.7493 104.864 51.272C104.323 51.7947 103.623 52.056 102.764 52.056C101.905 52.056 101.196 51.7947 100.636 51.272C100.095 50.7493 99.824 50.0867 99.824 49.284V34.472C99.824 33.6507 100.095 32.96 100.636 32.4C101.177 31.84 101.887 31.56 102.764 31.56C103.697 31.56 104.416 31.84 104.92 32.4C105.443 32.9413 105.704 33.6133 105.704 34.416V39.316L106.012 39.372Z" fill="#B5B5F0"/>
<path d="M87.2031 18.36C85.8361 18.3618 84.5255 18.9781 83.5589 20.0736C82.5923 21.1691 82.0485 22.6544 82.0469 24.2037C82.0452 25.4698 82.4102 26.7016 83.0856 27.71C83.0856 27.71 83.2263 27.9198 83.2492 27.9501L87.2031 33.235L91.1589 27.9475C91.1795 27.9193 91.3206 27.71 91.3206 27.71L91.3211 27.7084C91.9962 26.7004 92.361 25.4692 92.3594 24.2037C92.3578 22.6544 91.814 21.1691 90.8474 20.0736C89.8807 18.9781 88.5702 18.3618 87.2031 18.36ZM87.2031 26.3287C86.8323 26.3287 86.4698 26.2041 86.1614 25.9706C85.8531 25.7371 85.6128 25.4052 85.4709 25.0169C85.3289 24.6286 85.2918 24.2014 85.3642 23.7892C85.4365 23.377 85.6151 22.9983 85.8773 22.7011C86.1395 22.4039 86.4736 22.2016 86.8373 22.1196C87.2011 22.0376 87.578 22.0797 87.9207 22.2405C88.2633 22.4013 88.5561 22.6737 88.7621 23.0231C88.9682 23.3726 89.0781 23.7835 89.0781 24.2037C89.0775 24.7671 88.8798 25.3072 88.5283 25.7056C88.1768 26.1039 87.7002 26.328 87.2031 26.3287Z" fill="#B5B5F0"/>
</svg>
