<svg width="625" height="508" viewBox="0 0 625 508" fill="none" xmlns="http://www.w3.org/2000/svg">
<circle cx="309" cy="281" r="225" fill="#B5B5F0"/>
<circle cx="309" cy="281" r="200" fill="url(#paint0_linear_432_20)"/>
<path d="M504.193 184.633C511.796 174.929 538.569 159.078 584.846 173.306C581.294 187.244 560.191 209.024 504.193 184.633C524.252 195.174 529.575 197.552 540.795 217.692C590.958 197.157 620.485 221.409 624.047 230.088C600.577 241.729 563.097 237.348 544.245 221.042C546.069 223.313 548.882 228.164 553.611 239.831C553.611 239.831 555.971 248.53 557.343 254.267C567.509 251.298 598.614 266.118 612.406 281.871C597.874 288.394 562.111 279.845 557.71 256.99C559.29 268.443 562.393 288.79 561.346 297.679C568.686 295.697 588.325 303.843 594.279 335.701C588.479 338.395 570.997 331.246 561.346 297.679C559.496 313.383 558.374 331.052 553.005 339.502C561.04 351.141 540.567 374.143 536.164 378.253C527.356 361.975 548.28 341.679 553.005 339.502C556.385 326.947 558.136 309.717 557.272 291.779C554.716 318.167 531.349 325.744 519.985 326.234C524.994 310.624 546.931 296.76 557.272 291.779C556.673 279.334 554.815 266.548 551.37 254.745C548.471 280.563 522.833 291.256 510.376 293.375C517.587 272.842 540.71 259.066 551.37 254.745C548.319 244.293 544.024 234.612 538.256 226.62C537.483 225.549 536.491 224.323 535.258 222.969C544 238.548 519.349 258.165 503.192 267.348C507.029 245.256 519.743 222.707 525.621 214.194C517.659 207.98 506.065 200.834 489.85 194.119C513.654 213.108 492.741 250.829 479.309 267.315C468.822 229.258 481.967 202.661 489.85 194.119C471.457 185.27 435.325 163.865 440.825 129.865L462.326 149.865L489.173 173.551L504.193 184.633Z" fill="#363A50"/>
<path d="M325.341 358.579L295.151 357.861C295.151 364.325 293.438 365.761 294.508 369.352C295.022 371.076 299.005 378.211 302.216 379.408C304.57 380.125 309.275 380.125 313.768 380.125H313.778C318.275 380.125 322.129 375.098 325.341 370.07V358.579Z" fill="#F8CEA6"/>
<path d="M325.341 355.746L296.409 355.387C296.409 358.619 294.767 359.337 295.793 361.133C296.285 361.995 300.102 365.562 303.18 366.16C305.435 366.519 309.944 366.519 314.25 366.519H314.26C318.569 366.519 322.263 364.005 325.341 361.491V355.746Z" fill="#CD9763" fill-opacity="0.6"/>
<path d="M389.262 132.773C373.053 154.986 371.827 156.403 378.581 160.214L383.676 164.282C401.685 164.282 417.156 200.448 417.156 211.465V273.292C418.094 293.164 444.909 318.279 454.371 318.279C478.95 318.279 498.372 292.964 504 280.169C490.493 286.703 478.971 249.869 485.724 164.282C481.222 84.2478 409.522 105.006 389.262 132.773Z" fill="url(#paint1_linear_432_20)"/>
<path d="M246.058 184.691C236.313 193.968 225.269 189.639 218.772 230.458V271.277L209.027 263.237C206.212 262.824 199.412 265.216 194.734 278.08C190.057 290.944 212.756 300.14 222.717 301.583C225.533 311.479 233.675 326.32 245.369 335.597C247.631 337.392 252.346 341.249 258.965 344.873C270.175 351.011 288.881 360.405 301.952 361.571C306.436 361.972 308.6 361.644 312.347 361.571C325.973 361.307 342.938 355.241 357.715 347.965C362.001 345.855 372.413 339.455 375.906 335.597C381.753 331.887 398.173 309.013 401.893 302.817C404.708 301.168 416.012 299.726 422.769 294.779C431.214 288.594 427.316 278.08 422.769 271.277C419.13 265.834 409.992 270.451 405.877 274.986V267.566C407.393 259.526 413.673 236.395 405.877 225.51C400.119 217.47 404.032 199.592 364.298 184.691C321.42 168.611 260.299 171.135 246.058 184.691Z" fill="url(#paint2_linear_432_20)"/>
<path d="M271.994 234.591C264.103 231.074 246.699 243.388 241.046 249.314C246.564 245.867 263.652 239.754 277.557 241.551C294.939 243.798 279.719 235.589 271.994 234.591Z" fill="black"/>
<path d="M346.09 236.017C353.98 232.501 371.384 244.814 377.038 250.741C371.519 247.293 354.432 241.18 340.526 242.978C323.145 245.225 338.365 237.016 346.09 236.017Z" fill="black"/>
<path d="M272.068 296.632C272.068 299.023 268.577 300.962 264.271 300.962C259.966 300.962 256.475 299.023 256.475 296.632C256.475 294.241 259.966 292.303 264.271 292.303C268.577 292.303 272.068 294.241 272.068 296.632Z" fill="#F09A9A"/>
<path d="M357.824 296.632C357.824 299.023 354.334 300.962 350.028 300.962C345.722 300.962 342.232 299.023 342.232 296.632C342.232 294.241 345.722 292.303 350.028 292.303C354.334 292.303 357.824 294.241 357.824 296.632Z" fill="#F09A9A"/>
<path d="M359.014 275.605C359.014 282.094 354.942 287.355 349.919 287.355C344.896 287.355 340.824 282.094 340.824 275.605C340.824 269.115 344.896 263.854 349.919 263.854C354.942 263.854 359.014 269.115 359.014 275.605Z" fill="black"/>
<path d="M347.32 272.512C347.32 274.562 346.448 276.223 345.371 276.223C344.295 276.223 343.422 274.562 343.422 272.512C343.422 270.463 344.295 268.801 345.371 268.801C346.448 268.801 347.32 270.463 347.32 272.512Z" fill="white"/>
<path d="M272.643 273.852C273.119 280.326 269.442 285.844 264.431 286.178C259.42 286.511 254.972 281.534 254.497 275.06C254.021 268.586 257.698 263.067 262.709 262.733C267.72 262.4 272.168 267.378 272.643 273.852Z" fill="black"/>
<path d="M260.254 271.469C260.029 273.507 258.979 275.073 257.908 274.966C256.838 274.859 256.153 273.119 256.378 271.081C256.603 269.043 257.653 267.478 258.723 267.585C259.794 267.692 260.479 269.431 260.254 271.469Z" fill="white"/>
<path d="M310.939 292.922C310.939 293.946 309.193 294.777 307.041 294.777C304.888 294.777 303.143 293.946 303.143 292.922C303.143 291.897 304.888 291.066 307.041 291.066C309.193 291.066 310.939 291.897 310.939 292.922Z" fill="white"/>
<path d="M313.507 304.325C313.507 305.349 310.889 306.18 307.66 306.18C304.431 306.18 301.813 305.349 301.813 304.325C301.813 303.3 304.431 302.469 307.66 302.469C310.889 302.469 313.507 303.3 313.507 304.325Z" fill="#DFA874"/>
<path d="M392.163 174.176C385.407 166.755 375.489 159.951 371.374 157.477C369.295 154.014 373.54 151.087 375.922 150.056C384.151 153.561 400.219 162.673 398.66 171.084C395.542 174.547 393.03 174.588 392.163 174.176Z" fill="#910707"/>
<path d="M383.161 216.232C355.225 177.541 231.062 177.748 225.291 229.492C221.862 260.239 221.132 269.635 221.104 272.198C221.201 272.308 221.297 272.413 221.393 272.512C221.393 272.512 221.085 273.949 221.104 272.198C213.987 264.158 204.502 230.088 204.502 223.035C204.502 204.001 215.631 181.598 221.393 175.413C256.674 138.976 295.456 136.214 315.595 136.214C389.008 146.11 424.034 201.776 424.034 220.215C428.638 250.866 396.804 295.396 396.804 295.396C396.804 295.396 411.097 254.923 383.161 216.232Z" fill="url(#paint3_linear_432_20)"/>
<path d="M404.6 194.658C401.854 201.135 390.765 213.697 386.473 215.384C384.825 216.031 378.073 215.286 374.937 213.44C372.293 211.884 370.818 208.907 370.818 206.964C380.705 197.637 398.833 194.011 404.6 194.658Z" fill="#D73C3C"/>
<path d="M381.066 209.057C378.233 206.964 390.936 199.84 394.713 199.84C398.262 199.84 383.899 211.151 381.066 209.057Z" fill="black"/>
<path d="M374.716 187.164C370.782 189.369 360.786 198.65 356.525 202.784L358 203.244L374.716 187.164Z" fill="#F8CEA6"/>
<path d="M261.138 159.946C270.195 173.772 294.075 186.844 288.961 188.054C288.961 188.054 262.974 193.349 254.528 197.678C246.083 202.007 242.375 203.484 236.987 211.284C233.282 216.649 236.186 228.867 233.739 241.589C230.564 258.097 207.223 264.389 200.606 263.235C183.416 260.239 168.623 234.119 166 226.608C174.776 231.74 189.626 222.76 193.684 176.278C205.044 134.131 249.818 142.663 261.138 159.946Z" fill="url(#paint4_linear_432_20)"/>
<path d="M357.173 374.559C353.926 373.322 333.786 367.138 328.588 368.375C331.179 376.657 307.685 381.946 301.405 381.572C294.112 381.139 292.548 369.326 285.83 366.378C280.513 364.045 256.475 372.085 253.876 373.322C251.278 374.559 253.006 389.214 251.278 406.719C248.861 431.193 254.748 466.555 257.774 474.132C293.252 488.896 316.238 486.502 353.276 476.606C357.06 466.004 358.558 458.518 358.328 440.19C358.07 419.509 359.582 379.951 357.173 374.559Z" fill="white"/>
<path d="M313.981 381.362H303.649C302.231 385.884 297.206 435.379 298.178 436.859C300.593 439.411 312.463 441.229 318.844 436.859L313.981 381.362Z" fill="url(#paint5_linear_432_20)"/>
<path d="M286.496 366.59L294.156 364.045C292.857 372.704 298 378.635 309.099 380.561C324.691 379.572 320.198 375.178 325.341 365.282C328.156 365.282 330.331 367.138 332.487 368.374C335.086 385.197 324.096 389.267 320.198 390.091L309.099 380.561C303.901 384.272 290.313 391.576 290.313 390.091C282.517 385.144 284.114 373.187 286.496 366.59Z" fill="white"/>
<path d="M281.891 426.136C281.891 426.136 257.647 436.466 245.514 436.438L250.91 457.573C259.855 452.408 278.509 445.976 288.552 440.603C299.257 438.88 304.197 435.774 308.082 430.891C312.284 419.639 301.739 405.296 288.661 415.351C290.908 409.193 278.692 415.612 281.891 426.136Z" fill="#F8CEA6"/>
<path d="M247.38 459.289C242.832 452.486 227.89 401.153 254.179 373.941L263.622 432.077L277.265 427.129L279.864 446.92C256.777 463.618 251.928 466.092 247.38 459.289Z" fill="white"/>
<path d="M329.81 427.373C329.81 427.373 354.054 437.703 366.187 437.675L360.79 458.81C351.846 453.645 333.192 447.213 323.149 441.84C312.444 440.117 307.504 437.011 303.619 432.128C299.417 420.876 309.962 406.533 323.04 416.587C320.793 410.43 333.009 416.849 329.81 427.373Z" fill="#F8CEA6"/>
<path d="M364.321 460.526C367.781 456.352 383.811 402.39 357.522 375.178L348.079 433.314L334.436 428.366L331.837 448.157C354.833 466.394 360.861 464.7 364.321 460.526Z" fill="white"/>
<path d="M283 319C287.167 325.667 316.5 329.5 324 319" stroke="#D73C3C" stroke-width="2"/>
<path d="M520.453 147.586C504.894 125.594 489.27 126.059 483.403 129.041C494.916 132.304 504.049 144.18 507.176 149.711C493.389 134.736 483.418 131.106 480.156 131.163C489.513 174.71 520.791 168.483 535.26 159.927C531.362 158.822 522.944 154.808 520.453 147.586Z" fill="url(#paint6_linear_432_20)"/>
<path d="M494.898 95.6026C495.03 105.844 488.929 113.862 485.862 116.59C492.295 117.236 505.296 106.366 510.993 100.851C508.794 105.722 498.084 113.742 493.004 117.142C523.145 119.562 526.662 95.4142 524.653 83.038C519.772 87.2276 514.065 87.854 511.822 87.6435C506.126 86.0292 494.766 85.361 494.898 95.6026Z" fill="url(#paint7_linear_432_20)"/>
<path d="M493.17 65.7756C499.549 113.66 480.716 122 470.502 120.185C462.307 115.429 471.098 97.7537 476.518 89.5107C468.085 100.543 464.909 113.203 464.375 118.154C461.236 116.12 455.324 110.055 456.792 102.072C457.869 87.1494 481.492 71.6566 493.17 65.7756Z" fill="url(#paint8_linear_432_20)"/>
<path d="M91.2857 151.586C106.845 129.594 122.468 130.059 128.335 133.041C116.822 136.304 107.69 148.18 104.562 153.711C118.349 138.736 128.32 135.106 131.582 135.163C122.225 178.71 90.9476 172.483 76.4785 163.927C80.3759 162.822 88.7938 158.808 91.2857 151.586Z" fill="url(#paint9_linear_432_20)"/>
<path d="M116.84 99.6026C116.708 109.844 122.809 117.862 125.876 120.59C119.443 121.236 106.442 110.366 100.746 104.851C102.944 109.722 113.654 117.742 118.734 121.142C88.593 123.562 85.076 99.4142 87.0851 87.038C91.9668 91.2276 97.6732 91.854 99.9163 91.6435C105.613 90.0292 116.972 89.361 116.84 99.6026Z" fill="url(#paint10_linear_432_20)"/>
<path d="M118.569 69.7756C112.189 117.66 131.022 126 141.236 124.185C149.431 119.429 140.64 101.754 135.22 93.5107C143.654 104.543 146.829 117.203 147.363 122.154C150.503 120.12 156.415 114.055 154.946 106.072C153.87 91.1494 130.246 75.6566 118.569 69.7756Z" fill="url(#paint11_linear_432_20)"/>
<path d="M109.286 425.97C124.845 447.962 140.468 447.496 146.335 444.515C134.822 441.252 125.69 429.376 122.562 423.845C136.349 438.82 146.32 442.45 149.582 442.393C140.225 398.846 108.948 405.073 94.4785 413.629C98.3759 414.734 106.794 418.748 109.286 425.97Z" fill="url(#paint12_linear_432_20)"/>
<path d="M134.84 477.953C134.708 467.712 140.809 459.694 143.876 456.966C137.443 456.32 124.442 467.19 118.746 472.705C120.944 467.834 131.654 459.814 136.734 456.414C106.593 453.994 103.076 478.142 105.085 490.518C109.967 486.328 115.673 485.702 117.916 485.912C123.613 487.527 134.972 488.195 134.84 477.953Z" fill="url(#paint13_linear_432_20)"/>
<path d="M136.569 507.78C130.189 459.896 149.022 451.556 159.236 453.371C167.431 458.127 158.64 475.802 153.22 484.045C161.654 473.013 164.829 460.353 165.363 455.402C168.503 457.436 174.415 463.501 172.946 471.484C171.87 486.407 148.246 501.899 136.569 507.78Z" fill="url(#paint14_linear_432_20)"/>
<path d="M514.453 421.97C498.894 443.962 483.27 443.496 477.403 440.515C488.916 437.252 498.049 425.376 501.176 419.845C487.389 434.82 477.418 438.45 474.156 438.393C483.513 394.846 514.791 401.073 529.26 409.629C525.362 410.734 516.944 414.748 514.453 421.97Z" fill="url(#paint15_linear_432_20)"/>
<path d="M488.898 473.953C489.03 463.712 482.929 455.694 479.862 452.966C486.295 452.32 499.296 463.19 504.993 468.705C502.794 463.834 492.084 455.814 487.004 452.414C517.145 449.994 520.662 474.142 518.653 486.518C513.772 482.328 508.065 481.702 505.822 481.912C500.126 483.527 488.766 484.195 488.898 473.953Z" fill="url(#paint16_linear_432_20)"/>
<path d="M487.17 503.78C493.549 455.896 474.716 447.556 464.502 449.371C456.307 454.127 465.098 471.802 470.518 480.045C462.085 469.013 458.909 456.353 458.375 451.402C455.236 453.436 449.324 459.501 450.792 467.484C451.869 482.407 475.492 497.899 487.17 503.78Z" fill="url(#paint17_linear_432_20)"/>
<path d="M120.132 382.732C112.53 392.436 85.7562 408.287 39.4791 394.059C43.0311 380.12 64.1346 358.341 120.132 382.732C100.073 372.191 94.7504 369.813 83.5301 349.673C33.3676 370.208 3.83983 345.956 0.277801 337.277C23.7477 325.636 61.2278 330.017 80.0805 346.323C78.2566 344.052 75.4431 339.201 70.7145 327.534C70.7145 327.534 68.3542 318.835 66.9824 313.098C56.8158 316.066 25.7117 301.247 11.9194 285.494C26.4514 278.97 62.214 287.52 66.6149 310.375C65.035 298.922 61.9321 278.575 62.9793 269.686C55.639 271.668 36.0004 263.522 30.0464 231.664C35.8465 228.97 53.3287 236.119 62.9793 269.686C64.8292 253.982 65.9511 236.313 71.3201 227.863C63.2849 216.224 83.7585 193.222 88.1615 189.112C96.9693 205.39 76.0449 225.686 71.3201 227.863C67.94 240.418 66.189 257.648 67.0529 275.586C69.6091 249.197 92.9764 241.621 104.341 241.131C99.3308 256.741 77.3947 270.605 67.0529 275.586C67.6522 288.031 69.5099 300.816 72.9552 312.62C75.8538 286.802 101.493 276.109 113.95 273.99C106.738 294.523 83.6152 308.299 72.9552 312.62C76.0058 323.071 80.301 332.753 86.0692 340.745C86.8418 341.816 87.834 343.042 89.067 344.396C80.3257 328.817 104.977 309.2 121.133 300.017C117.296 322.108 104.582 344.658 98.7045 353.171C106.666 359.385 118.261 366.531 134.475 373.246C110.672 354.256 131.585 316.536 145.017 300.05C155.504 338.107 142.358 364.704 134.475 373.246C152.868 382.095 189 403.5 183.5 437.5L162 417.5L135.152 393.814L120.132 382.732Z" fill="#363A50"/>
<circle cx="309" cy="75" r="75" fill="white"/>
<path d="M257 52.0637C275.8 46.0637 296.167 54.5637 304 59.5637V116.064L271.5 112.564L257 52.0637Z" fill="#363A50"/>
<path d="M360 52.0637C341.2 46.0637 320.833 54.5637 313 59.5637V116.064L345.5 112.564L360 52.0637Z" fill="#363A50"/>
<path d="M306 61C307.994 58.4723 309.361 59.1573 311 61V116C309.236 117.319 308.434 117.558 306 116V61Z" fill="#B5B5F0"/>
<path d="M314.133 56.8167C314.133 56.8167 322.07 32.5483 337.078 25.6561C352.087 18.7638 331.649 32.7207 336.654 36.6187L363 45C347.183 43.6001 337.55 44.071 314.133 56.8167Z" fill="#B5B5F0"/>
<defs>
<linearGradient id="paint0_linear_432_20" x1="109" y1="281" x2="509" y2="281" gradientUnits="userSpaceOnUse">
<stop stop-color="#6F79A2"/>
<stop offset="0.505208" stop-color="#373F61"/>
<stop offset="0.946932" stop-color="#717CA5"/>
</linearGradient>
<linearGradient id="paint1_linear_432_20" x1="335" y1="108" x2="335" y2="506" gradientUnits="userSpaceOnUse">
<stop stop-color="#252525"/>
<stop offset="1" stop-color="#060000"/>
</linearGradient>
<linearGradient id="paint2_linear_432_20" x1="335" y1="108" x2="533.98" y2="360.554" gradientUnits="userSpaceOnUse">
<stop stop-color="#F8CEA6"/>
<stop offset="0.713542" stop-color="#F7CCA4"/>
<stop offset="1" stop-color="#FFC38A"/>
</linearGradient>
<linearGradient id="paint3_linear_432_20" x1="367.634" y1="136.423" x2="532.163" y2="371.325" gradientUnits="userSpaceOnUse">
<stop stop-color="#252525"/>
<stop offset="1"/>
</linearGradient>
<linearGradient id="paint4_linear_432_20" x1="467.015" y1="223.145" x2="313.964" y2="448.084" gradientUnits="userSpaceOnUse">
<stop stop-color="#252525"/>
<stop offset="1"/>
</linearGradient>
<linearGradient id="paint5_linear_432_20" x1="320.645" y1="120.664" x2="320.645" y2="231.795" gradientUnits="userSpaceOnUse">
<stop stop-color="#8A0202"/>
<stop offset="1" stop-color="#D73C3C"/>
</linearGradient>
<linearGradient id="paint6_linear_432_20" x1="621.981" y1="149.13" x2="362.739" y2="127.155" gradientUnits="userSpaceOnUse">
<stop stop-color="#363A50"/>
<stop offset="0.607257" stop-color="#AAAAE2"/>
</linearGradient>
<linearGradient id="paint7_linear_432_20" x1="621.981" y1="149.13" x2="362.739" y2="127.155" gradientUnits="userSpaceOnUse">
<stop stop-color="#363A50"/>
<stop offset="0.607257" stop-color="#AAAAE2"/>
</linearGradient>
<linearGradient id="paint8_linear_432_20" x1="621.981" y1="149.13" x2="362.739" y2="127.155" gradientUnits="userSpaceOnUse">
<stop stop-color="#363A50"/>
<stop offset="0.607257" stop-color="#AAAAE2"/>
</linearGradient>
<linearGradient id="paint9_linear_432_20" x1="-10.2424" y1="153.13" x2="248.999" y2="131.155" gradientUnits="userSpaceOnUse">
<stop stop-color="#363A50"/>
<stop offset="0.607257" stop-color="#AAAAE2"/>
</linearGradient>
<linearGradient id="paint10_linear_432_20" x1="-10.2424" y1="153.13" x2="248.999" y2="131.155" gradientUnits="userSpaceOnUse">
<stop stop-color="#363A50"/>
<stop offset="0.607257" stop-color="#AAAAE2"/>
</linearGradient>
<linearGradient id="paint11_linear_432_20" x1="-10.2424" y1="153.13" x2="248.999" y2="131.155" gradientUnits="userSpaceOnUse">
<stop stop-color="#363A50"/>
<stop offset="0.607257" stop-color="#AAAAE2"/>
</linearGradient>
<linearGradient id="paint12_linear_432_20" x1="7.75764" y1="424.426" x2="266.999" y2="446.401" gradientUnits="userSpaceOnUse">
<stop stop-color="#363A50"/>
<stop offset="0.607257" stop-color="#AAAAE2"/>
</linearGradient>
<linearGradient id="paint13_linear_432_20" x1="7.75764" y1="424.426" x2="266.999" y2="446.401" gradientUnits="userSpaceOnUse">
<stop stop-color="#363A50"/>
<stop offset="0.607257" stop-color="#AAAAE2"/>
</linearGradient>
<linearGradient id="paint14_linear_432_20" x1="7.75764" y1="424.426" x2="266.999" y2="446.401" gradientUnits="userSpaceOnUse">
<stop stop-color="#363A50"/>
<stop offset="0.607257" stop-color="#AAAAE2"/>
</linearGradient>
<linearGradient id="paint15_linear_432_20" x1="615.981" y1="420.426" x2="356.739" y2="442.401" gradientUnits="userSpaceOnUse">
<stop stop-color="#363A50"/>
<stop offset="0.607257" stop-color="#AAAAE2"/>
</linearGradient>
<linearGradient id="paint16_linear_432_20" x1="615.981" y1="420.426" x2="356.739" y2="442.401" gradientUnits="userSpaceOnUse">
<stop stop-color="#363A50"/>
<stop offset="0.607257" stop-color="#AAAAE2"/>
</linearGradient>
<linearGradient id="paint17_linear_432_20" x1="615.981" y1="420.426" x2="356.739" y2="442.401" gradientUnits="userSpaceOnUse">
<stop stop-color="#363A50"/>
<stop offset="0.607257" stop-color="#AAAAE2"/>
</linearGradient>
</defs>
</svg>
