<svg width="66" height="66" viewBox="0 0 66 66" fill="none" xmlns="http://www.w3.org/2000/svg">
<g clip-path="url(#clip0_287_29)">
<path d="M33 66C51.2254 66 66 51.2254 66 33C66 14.7746 51.2254 0 33 0C14.7746 0 0 14.7746 0 33C0 51.2254 14.7746 66 33 66Z" fill="url(#paint0_linear_287_29)"/>
<path d="M33 39C40.1797 39 46 33.1797 46 26C46 18.8203 40.1797 13 33 13C25.8203 13 20 18.8203 20 26C20 33.1797 25.8203 39 33 39Z" fill="url(#paint1_linear_287_29)"/>
<path d="M32.7528 66C45.0396 66 55 59.5605 55 52.2453C55 44.9301 45.0396 39 32.7528 39C20.466 39 11 44.9301 11 52.2453C11 59.5605 20.466 66 32.7528 66Z" fill="url(#paint2_linear_287_29)"/>
</g>
<defs>
<linearGradient id="paint0_linear_287_29" x1="33" y1="0" x2="33" y2="66" gradientUnits="userSpaceOnUse">
<stop stop-color="#B5B5F0"/>
<stop offset="1" stop-color="#515878"/>
</linearGradient>
<linearGradient id="paint1_linear_287_29" x1="33" y1="13" x2="33" y2="39" gradientUnits="userSpaceOnUse">
<stop stop-color="white"/>
<stop offset="1" stop-color="#EEEEEE"/>
</linearGradient>
<linearGradient id="paint2_linear_287_29" x1="33" y1="39" x2="33" y2="66" gradientUnits="userSpaceOnUse">
<stop stop-color="white"/>
<stop offset="1" stop-color="#EEEEEE"/>
</linearGradient>
<clipPath id="clip0_287_29">
<rect width="66" height="66" fill="white"/>
</clipPath>
</defs>
</svg>
